solid OpenSCAD_Model
  facet normal 0 0 1
    outer loop
      vertex 13.428 -8.32119 282
      vertex 14.6271 -9.7182 282
      vertex 15.2084 -8.78058 282
    endloop
  endfacet
  facet normal -0 0 1
    outer loop
      vertex 13.428 -8.32119 282
      vertex 15.2084 -8.78058 282
      vertex 13.6876 -7.90252 282
    endloop
  endfacet
  facet normal 0 0 1
    outer loop
      vertex 14.6271 -9.7182 282
      vertex 13.428 -8.32119 282
      vertex 13.1644 -8.74638 282
    endloop
  endfacet
  facet normal 0 0 1
    outer loop
      vertex 14.6271 -9.7182 282
      vertex 13.1644 -8.74638 282
      vertex 13.988 -10.6175 282
    endloop
  endfacet
  facet normal -0 0 1
    outer loop
      vertex 12.5892 -9.55572 282
      vertex 13.988 -10.6175 282
      vertex 13.1644 -8.74638 282
    endloop
  endfacet
  facet normal -0 0 1
    outer loop
      vertex 12.2744 -9.94452 282
      vertex 13.988 -10.6175 282
      vertex 12.5892 -9.55572 282
    endloop
  endfacet
  facet normal 0 -0 1
    outer loop
      vertex 13.2937 -11.4748 282
      vertex 13.988 -10.6175 282
      vertex 12.2744 -9.94452 282
    endloop
  endfacet
  facet normal -0 0 1
    outer loop
      vertex 11.9643 -10.3273 282
      vertex 13.2937 -11.4748 282
      vertex 12.2744 -9.94452 282
    endloop
  endfacet
  facet normal 0 0 1
    outer loop
      vertex 13.2937 -11.4748 282
      vertex 11.9643 -10.3273 282
      vertex 12.9232 -11.8777 282
    endloop
  endfacet
  facet normal -0 0 1
    outer loop
      vertex 11.2923 -11.0582 282
      vertex 12.9232 -11.8777 282
      vertex 11.9643 -10.3273 282
    endloop
  endfacet
  facet normal 0 0 1
    outer loop
      vertex 12.9232 -11.8777 282
      vertex 11.2923 -11.0582 282
      vertex 12.547 -12.2869 282
    endloop
  endfacet
  facet normal 0 0 1
    outer loop
      vertex 12.547 -12.2869 282
      vertex 11.2923 -11.0582 282
      vertex 11.7507 -13.0505 282
    endloop
  endfacet
  facet normal -0 0 1
    outer loop
      vertex 10.5756 -11.7454 282
      vertex 11.7507 -13.0505 282
      vertex 11.2923 -11.0582 282
    endloop
  endfacet
  facet normal 0 0 1
    outer loop
      vertex 11.7507 -13.0505 282
      vertex 10.5756 -11.7454 282
      vertex 11.3327 -13.4038 282
    endloop
  endfacet
  facet normal -0 0 1
    outer loop
      vertex 10.1994 -12.0634 282
      vertex 11.3327 -13.4038 282
      vertex 10.5756 -11.7454 282
    endloop
  endfacet
  facet normal -0 0 1
    outer loop
      vertex 9.81727 -12.3863 282
      vertex 11.3327 -13.4038 282
      vertex 10.1994 -12.0634 282
    endloop
  endfacet
  facet normal 0 0 1
    outer loop
      vertex 11.3327 -13.4038 282
      vertex 9.81727 -12.3863 282
      vertex 10.9081 -13.7626 282
    endloop
  endfacet
  facet normal 0 -0 1
    outer loop
      vertex 10.4618 -14.094 282
      vertex 10.9081 -13.7626 282
      vertex 9.81727 -12.3863 282
    endloop
  endfacet
  facet normal -0 0 1
    outer loop
      vertex 9.02016 -12.9783 282
      vertex 10.4618 -14.094 282
      vertex 9.81727 -12.3863 282
    endloop
  endfacet
  facet normal 0 0 1
    outer loop
      vertex 10.4618 -14.094 282
      vertex 9.02016 -12.9783 282
      vertex 10.0224 -14.4203 282
    endloop
  endfacet
  facet normal 0 0 1
    outer loop
      vertex 10.0224 -14.4203 282
      vertex 9.02016 -12.9783 282
      vertex 9.09716 -15.0212 282
    endloop
  endfacet
  facet normal 0 0 1
    outer loop
      vertex 9.02016 -12.9783 282
      vertex 8.18744 -13.5191 282
      vertex 9.09716 -15.0212 282
    endloop
  endfacet
  facet normal 0 0 1
    outer loop
      vertex 9.09716 -15.0212 282
      vertex 8.18744 -13.5191 282
      vertex 8.61287 -15.2941 282
    endloop
  endfacet
  facet normal -0 0 1
    outer loop
      vertex 7.32242 -14.0065 282
      vertex 8.61287 -15.2941 282
      vertex 8.18744 -13.5191 282
    endloop
  endfacet
  facet normal 0 0 1
    outer loop
      vertex 8.61287 -15.2941 282
      vertex 7.32242 -14.0065 282
      vertex 8.13602 -15.5628 282
    endloop
  endfacet
  facet normal 0 0 1
    outer loop
      vertex 8.13602 -15.5628 282
      vertex 7.32242 -14.0065 282
      vertex 7.64324 -15.801 282
    endloop
  endfacet
  facet normal -0 0 1
    outer loop
      vertex 6.87892 -14.2209 282
      vertex 7.64324 -15.801 282
      vertex 7.32242 -14.0065 282
    endloop
  endfacet
  facet normal -0 0 1
    outer loop
      vertex 6.42849 -14.4386 282
      vertex 7.64324 -15.801 282
      vertex 6.87892 -14.2209 282
    endloop
  endfacet
  facet normal 0 0 1
    outer loop
      vertex 7.64324 -15.801 282
      vertex 6.42849 -14.4386 282
      vertex 7.14277 -16.0429 282
    endloop
  endfacet
  facet normal -0 0 1
    outer loop
      vertex 5.96529 -14.6277 282
      vertex 7.14277 -16.0429 282
      vertex 6.42849 -14.4386 282
    endloop
  endfacet
  facet normal 0 0 1
    outer loop
      vertex 7.14277 -16.0429 282
      vertex 5.96529 -14.6277 282
      vertex 6.12133 -16.4598 282
    endloop
  endfacet
  facet normal -0 0 1
    outer loop
      vertex 5.5092 -14.8138 282
      vertex 6.12133 -16.4598 282
      vertex 5.96529 -14.6277 282
    endloop
  endfacet
  facet normal -0 0 1
    outer loop
      vertex 5.03504 -14.9734 282
      vertex 6.12133 -16.4598 282
      vertex 5.5092 -14.8138 282
    endloop
  endfacet
  facet normal 0 0 1
    outer loop
      vertex 6.12133 -16.4598 282
      vertex 5.03504 -14.9734 282
      vertex 5.07574 -16.8116 282
    endloop
  endfacet
  facet normal -0 0 1
    outer loop
      vertex 4.56816 -15.1305 282
      vertex 5.07574 -16.8116 282
      vertex 5.03504 -14.9734 282
    endloop
  endfacet
  facet normal 0 0 1
    outer loop
      vertex 4.56816 -15.1305 282
      vertex 4.01011 -17.0972 282
      vertex 5.07574 -16.8116 282
    endloop
  endfacet
  facet normal -0 0 1
    outer loop
      vertex 3.6091 -15.3875 282
      vertex 4.01011 -17.0972 282
      vertex 4.56816 -15.1305 282
    endloop
  endfacet
  facet normal -0 0 1
    outer loop
      vertex 3.12621 -15.4848 282
      vertex 4.01011 -17.0972 282
      vertex 3.6091 -15.3875 282
    endloop
  endfacet
  facet normal 0 0 1
    outer loop
      vertex 3.12621 -15.4848 282
      vertex 2.92865 -17.3152 282
      vertex 4.01011 -17.0972 282
    endloop
  endfacet
  facet normal -0 0 1
    outer loop
      vertex 2.63579 -15.5837 282
      vertex 2.92865 -17.3152 282
      vertex 3.12621 -15.4848 282
    endloop
  endfacet
  facet normal -0 0 1
    outer loop
      vertex 2.14774 -15.6506 282
      vertex 2.92865 -17.3152 282
      vertex 2.63579 -15.5837 282
    endloop
  endfacet
  facet normal 0 0 1
    outer loop
      vertex 2.14774 -15.6506 282
      vertex 1.83564 -17.465 282
      vertex 2.92865 -17.3152 282
    endloop
  endfacet
  facet normal -0 0 1
    outer loop
      vertex 1.65208 -15.7185 282
      vertex 1.83564 -17.465 282
      vertex 2.14774 -15.6506 282
    endloop
  endfacet
  facet normal 0 0 1
    outer loop
      vertex 1.65208 -15.7185 282
      vertex 1.28126 -17.5057 282
      vertex 1.83564 -17.465 282
    endloop
  endfacet
  facet normal -0 0 1
    outer loop
      vertex 1.15313 -15.7551 282
      vertex 1.28126 -17.5057 282
      vertex 1.65208 -15.7185 282
    endloop
  endfacet
  facet normal 0 0 1
    outer loop
      vertex 1.28126 -17.5057 282
      vertex 1.15313 -15.7551 282
      vertex 1.28125 -17.5057 282
    endloop
  endfacet
  facet normal -0 0 1
    outer loop
      vertex 0.661847 -15.7912 282
      vertex 1.28125 -17.5057 282
      vertex 1.15313 -15.7551 282
    endloop
  endfacet
  facet normal 0 0 1
    outer loop
      vertex 1.28125 -17.5057 282
      vertex 0.661847 -15.7912 282
      vertex 0.735385 -17.5458 282
    endloop
  endfacet
  facet normal 0 0 1
    outer loop
      vertex 0.661847 -15.7912 282
      vertex 0.188076 -17.5515 282
      vertex 0.735385 -17.5458 282
    endloop
  endfacet
  facet normal -0 0 1
    outer loop
      vertex 3.31176e-07 -15.7981 282
      vertex 0.188076 -17.5515 282
      vertex 0.661847 -15.7912 282
    endloop
  endfacet
  facet normal 0 0 1
    outer loop
      vertex 0.188076 -17.5515 282
      vertex 3.31176e-07 -15.7981 282
      vertex 3.2209e-07 -17.5535 282
    endloop
  endfacet
  facet normal 0 0 -1
    outer loop
      vertex 14.6885 -9.759 256.08
      vertex 16.3205 -10.8433 256.08
      vertex 16.0243 -11.2601 256.08
    endloop
  endfacet
  facet normal 0 0 -1
    outer loop
      vertex 16.3205 -10.8433 256.08
      vertex 14.6885 -9.759 256.08
      vertex 16.6998 -10.2317 256.08
    endloop
  endfacet
  facet normal 0 0 -1
    outer loop
      vertex 14.0467 -10.662 256.08
      vertex 16.0243 -11.2601 256.08
      vertex 15.6075 -11.8467 256.08
    endloop
  endfacet
  facet normal 0 -0 -1
    outer loop
      vertex 15.0298 -9.20852 256.08
      vertex 16.6998 -10.2317 256.08
      vertex 14.6885 -9.759 256.08
    endloop
  endfacet
  facet normal 0 0 -1
    outer loop
      vertex 14.0467 -10.662 256.08
      vertex 15.6075 -11.8467 256.08
      vertex 15.1546 -12.406 256.08
    endloop
  endfacet
  facet normal 0 0 -1
    outer loop
      vertex 16.6998 -10.2317 256.08
      vertex 15.2723 -8.81744 256.08
      vertex 16.9692 -9.79716 256.08
    endloop
  endfacet
  facet normal 0 0 -1
    outer loop
      vertex 13.3495 -11.523 256.08
      vertex 15.1546 -12.406 256.08
      vertex 14.8328 -12.8033 256.08
    endloop
  endfacet
  facet normal 0 -0 -1
    outer loop
      vertex 15.2723 -8.81744 256.08
      vertex 16.6998 -10.2317 256.08
      vertex 15.0298 -9.20852 256.08
    endloop
  endfacet
  facet normal 0 0 -1
    outer loop
      vertex 13.3495 -11.523 256.08
      vertex 14.8328 -12.8033 256.08
      vertex 14.4867 -13.1797 256.08
    endloop
  endfacet
  facet normal 0 0 -1
    outer loop
      vertex 16.0243 -11.2601 256.08
      vertex 14.4219 -10.1341 256.08
      vertex 14.6885 -9.759 256.08
    endloop
  endfacet
  facet normal 0 0 -1
    outer loop
      vertex 16.0243 -11.2601 256.08
      vertex 14.0467 -10.662 256.08
      vertex 14.4219 -10.1341 256.08
    endloop
  endfacet
  facet normal 0 0 -1
    outer loop
      vertex 12.5996 -12.3385 256.08
      vertex 14.4867 -13.1797 256.08
      vertex 13.9996 -13.7094 256.08
    endloop
  endfacet
  facet normal 0 0 -1
    outer loop
      vertex 15.1546 -12.406 256.08
      vertex 13.6391 -11.1654 256.08
      vertex 14.0467 -10.662 256.08
    endloop
  endfacet
  facet normal 0 0 -1
    outer loop
      vertex 12.2675 -12.657 256.08
      vertex 13.9996 -13.7094 256.08
      vertex 13.4802 -14.2075 256.08
    endloop
  endfacet
  facet normal 0 0 -1
    outer loop
      vertex 15.1546 -12.406 256.08
      vertex 13.3495 -11.523 256.08
      vertex 13.6391 -11.1654 256.08
    endloop
  endfacet
  facet normal 0 0 -1
    outer loop
      vertex 11.8 -13.1053 256.08
      vertex 13.4802 -14.2075 256.08
      vertex 13.1112 -14.5614 256.08
    endloop
  endfacet
  facet normal 0 0 -1
    outer loop
      vertex 14.4867 -13.1797 256.08
      vertex 13.0381 -11.8617 256.08
      vertex 13.3495 -11.523 256.08
    endloop
  endfacet
  facet normal 0 0 -1
    outer loop
      vertex 11.8 -13.1053 256.08
      vertex 13.1112 -14.5614 256.08
      vertex 12.7206 -14.8914 256.08
    endloop
  endfacet
  facet normal 0 0 -1
    outer loop
      vertex 14.4867 -13.1797 256.08
      vertex 12.5996 -12.3385 256.08
      vertex 13.0381 -11.8617 256.08
    endloop
  endfacet
  facet normal 0 0 -1
    outer loop
      vertex 13.9996 -13.7094 256.08
      vertex 12.2675 -12.657 256.08
      vertex 12.5996 -12.3385 256.08
    endloop
  endfacet
  facet normal 0 0 -1
    outer loop
      vertex 11.3053 -13.5233 256.08
      vertex 12.7206 -14.8914 256.08
      vertex 12.171 -15.3559 256.08
    endloop
  endfacet
  facet normal 0 0 -1
    outer loop
      vertex 13.4802 -14.2075 256.08
      vertex 11.8 -13.1053 256.08
      vertex 12.2675 -12.657 256.08
    endloop
  endfacet
  facet normal 0 0 -1
    outer loop
      vertex 10.9539 -13.8203 256.08
      vertex 12.171 -15.3559 256.08
      vertex 11.7605 -15.6608 256.08
    endloop
  endfacet
  facet normal 0 0 -1
    outer loop
      vertex 12.7206 -14.8914 256.08
      vertex 11.3053 -13.5233 256.08
      vertex 11.8 -13.1053 256.08
    endloop
  endfacet
  facet normal 0 0 -1
    outer loop
      vertex 10.0645 -14.4809 256.08
      vertex 11.7605 -15.6608 256.08
      vertex 11.1827 -16.0899 256.08
    endloop
  endfacet
  facet normal 0 0 -1
    outer loop
      vertex 12.171 -15.3559 256.08
      vertex 10.9539 -13.8203 256.08
      vertex 11.3053 -13.5233 256.08
    endloop
  endfacet
  facet normal 0 0 -1
    outer loop
      vertex 11.7605 -15.6608 256.08
      vertex 10.5845 -14.0947 256.08
      vertex 10.9539 -13.8203 256.08
    endloop
  endfacet
  facet normal 0 0 -1
    outer loop
      vertex 10.0645 -14.4809 256.08
      vertex 11.1827 -16.0899 256.08
      vertex 10.5792 -16.4818 256.08
    endloop
  endfacet
  facet normal 0 0 -1
    outer loop
      vertex 9.13535 -15.0842 256.08
      vertex 10.5792 -16.4818 256.08
      vertex 10.1504 -16.7603 256.08
    endloop
  endfacet
  facet normal 0 0 -1
    outer loop
      vertex 11.7605 -15.6608 256.08
      vertex 10.0645 -14.4809 256.08
      vertex 10.5845 -14.0947 256.08
    endloop
  endfacet
  facet normal 0 0 -1
    outer loop
      vertex 9.13535 -15.0842 256.08
      vertex 10.1504 -16.7603 256.08
      vertex 9.5234 -17.1136 256.08
    endloop
  endfacet
  facet normal 0 0 -1
    outer loop
      vertex 10.5792 -16.4818 256.08
      vertex 9.52126 -14.8336 256.08
      vertex 10.0645 -14.4809 256.08
    endloop
  endfacet
  facet normal 0 0 -1
    outer loop
      vertex 10.5792 -16.4818 256.08
      vertex 9.13535 -15.0842 256.08
      vertex 9.52126 -14.8336 256.08
    endloop
  endfacet
  facet normal 0 0 -1
    outer loop
      vertex 8.17017 -15.6281 256.08
      vertex 9.5234 -17.1136 256.08
      vertex 9.07797 -17.3646 256.08
    endloop
  endfacet
  facet normal 0 0 -1
    outer loop
      vertex 8.17017 -15.6281 256.08
      vertex 9.07797 -17.3646 256.08
      vertex 8.61766 -17.5871 256.08
    endloop
  endfacet
  facet normal 0 0 -1
    outer loop
      vertex 9.5234 -17.1136 256.08
      vertex 8.57106 -15.4022 256.08
      vertex 9.13535 -15.0842 256.08
    endloop
  endfacet
  facet normal 0 0 -1
    outer loop
      vertex 9.5234 -17.1136 256.08
      vertex 8.17017 -15.6281 256.08
      vertex 8.57106 -15.4022 256.08
    endloop
  endfacet
  facet normal 0 0 -1
    outer loop
      vertex 7.58704 -15.91 256.08
      vertex 8.61766 -17.5871 256.08
      vertex 7.96973 -17.9003 256.08
    endloop
  endfacet
  facet normal 0 0 -1
    outer loop
      vertex 8.61766 -17.5871 256.08
      vertex 7.58704 -15.91 256.08
      vertex 8.17017 -15.6281 256.08
    endloop
  endfacet
  facet normal 0 0 -1
    outer loop
      vertex 7.17275 -16.1103 256.08
      vertex 7.96973 -17.9003 256.08
      vertex 7.49635 -18.0935 256.08
    endloop
  endfacet
  facet normal 0 0 -1
    outer loop
      vertex 7.96973 -17.9003 256.08
      vertex 7.17275 -16.1103 256.08
      vertex 7.58704 -15.91 256.08
    endloop
  endfacet
  facet normal 0 0 -1
    outer loop
      vertex 6.14703 -16.5289 256.08
      vertex 7.49635 -18.0935 256.08
      vertex 6.83003 -18.3654 256.08
    endloop
  endfacet
  facet normal 0 0 -1
    outer loop
      vertex 7.49635 -18.0935 256.08
      vertex 6.74671 -16.2841 256.08
      vertex 7.17275 -16.1103 256.08
    endloop
  endfacet
  facet normal 0 0 -1
    outer loop
      vertex 6.14703 -16.5289 256.08
      vertex 6.83003 -18.3654 256.08
      vertex 6.34546 -18.5285 256.08
    endloop
  endfacet
  facet normal 0 0 -1
    outer loop
      vertex 7.49635 -18.0935 256.08
      vertex 6.14703 -16.5289 256.08
      vertex 6.74671 -16.2841 256.08
    endloop
  endfacet
  facet normal 0 0 -1
    outer loop
      vertex 6.34546 -18.5285 256.08
      vertex 5.71091 -16.6756 256.08
      vertex 6.14703 -16.5289 256.08
    endloop
  endfacet
  facet normal 0 0 -1
    outer loop
      vertex 5.09704 -16.8822 256.08
      vertex 6.34546 -18.5285 256.08
      vertex 5.66338 -18.758 256.08
    endloop
  endfacet
  facet normal 0 0 -1
    outer loop
      vertex 6.34546 -18.5285 256.08
      vertex 5.09704 -16.8822 256.08
      vertex 5.71091 -16.6756 256.08
    endloop
  endfacet
  facet normal 0 0 -1
    outer loop
      vertex 4.47438 -19.0766 256.08
      vertex 5.09704 -16.8822 256.08
      vertex 5.66338 -18.758 256.08
    endloop
  endfacet
  facet normal 0 0 -1
    outer loop
      vertex 4.47438 -19.0766 256.08
      vertex 4.02694 -17.169 256.08
      vertex 5.09704 -16.8822 256.08
    endloop
  endfacet
  facet normal 0 0 -1
    outer loop
      vertex 3.76891 -19.2189 256.08
      vertex 4.02694 -17.169 256.08
      vertex 4.47438 -19.0766 256.08
    endloop
  endfacet
  facet normal 0 0 -1
    outer loop
      vertex 3.76891 -19.2189 256.08
      vertex 3.39202 -17.297 256.08
      vertex 4.02694 -17.169 256.08
    endloop
  endfacet
  facet normal 0 0 -1
    outer loop
      vertex 2.94095 -17.3879 256.08
      vertex 3.76891 -19.2189 256.08
      vertex 3.26772 -19.3199 256.08
    endloop
  endfacet
  facet normal 0 0 -1
    outer loop
      vertex 3.76891 -19.2189 256.08
      vertex 2.94095 -17.3879 256.08
      vertex 3.39202 -17.297 256.08
    endloop
  endfacet
  facet normal 0 0 -1
    outer loop
      vertex 2.55471 -19.4176 256.08
      vertex 2.94095 -17.3879 256.08
      vertex 3.26772 -19.3199 256.08
    endloop
  endfacet
  facet normal 0 0 -1
    outer loop
      vertex 2.55471 -19.4176 256.08
      vertex 2.29924 -17.4758 256.08
      vertex 2.94095 -17.3879 256.08
    endloop
  endfacet
  facet normal 0 0 -1
    outer loop
      vertex 1.84335 -17.5383 256.08
      vertex 2.55471 -19.4176 256.08
      vertex 2.04816 -19.487 256.08
    endloop
  endfacet
  facet normal 0 0 -1
    outer loop
      vertex 2.55471 -19.4176 256.08
      vertex 1.84335 -17.5383 256.08
      vertex 2.29924 -17.4758 256.08
    endloop
  endfacet
  facet normal 0 0 -1
    outer loop
      vertex 2.04816 -19.487 256.08
      vertex 1.38443 -17.572 256.08
      vertex 1.84335 -17.5383 256.08
    endloop
  endfacet
  facet normal 0 0 -1
    outer loop
      vertex 1.33043 -19.5397 256.08
      vertex 1.38443 -17.572 256.08
      vertex 2.04816 -19.487 256.08
    endloop
  endfacet
  facet normal 0 0 -1
    outer loop
      vertex 0.738472 -17.6194 256.08
      vertex 1.33043 -19.5397 256.08
      vertex 0.820525 -19.5771 256.08
    endloop
  endfacet
  facet normal 0 0 -1
    outer loop
      vertex 1.33043 -19.5397 256.08
      vertex 0.738472 -17.6194 256.08
      vertex 1.38443 -17.572 256.08
    endloop
  endfacet
  facet normal 0 0 -1
    outer loop
      vertex 0.309274 -19.5825 256.08
      vertex 0.738472 -17.6194 256.08
      vertex 0.820525 -19.5771 256.08
    endloop
  endfacet
  facet normal 0 0 -1
    outer loop
      vertex 0.309274 -19.5825 256.08
      vertex 0.278346 -17.6242 256.08
      vertex 0.738472 -17.6194 256.08
    endloop
  endfacet
  facet normal 0 0 -1
    outer loop
      vertex 0.309274 -19.5825 256.08
      vertex 3.21708e-07 -17.6271 256.08
      vertex 0.278346 -17.6242 256.08
    endloop
  endfacet
  facet normal 0 -0 -1
    outer loop
      vertex 3.21708e-07 -17.6271 256.08
      vertex 0.309274 -19.5825 256.08
      vertex 3.1157e-07 -19.5857 256.08
    endloop
  endfacet
  facet normal 0.595129 -0.801248 0.0618271
    outer loop
      vertex 12.171 -15.3559 256.08
      vertex 12.0236 -15.17 259.908
      vertex 11.7605 -15.6608 256.08
    endloop
  endfacet
  facet normal 0.812968 -0.577821 0.0721527
    outer loop
      vertex 15.4185 -11.7033 259.908
      vertex 16.123 -10.7121 259.908
      vertex 14.8948 -11.3058 268.992
    endloop
  endfacet
  facet normal 0.775099 -0.627707 0.0721524
    outer loop
      vertex 15.4185 -11.7033 259.908
      vertex 14.8948 -11.3058 268.992
      vertex 14.6532 -12.6483 259.908
    endloop
  endfacet
  facet normal 0.594729 -0.800682 0.0721487
    outer loop
      vertex 12.0236 -15.17 259.908
      vertex 11.6152 -14.6548 268.992
      vertex 11.0474 -15.8951 259.908
    endloop
  endfacet
  facet normal 0.847685 -0.525569 0.0721633
    outer loop
      vertex 16.123 -10.7121 259.908
      vertex 16.7638 -9.67856 259.908
      vertex 15.5753 -10.3482 268.992
    endloop
  endfacet
  facet normal 0.0103298 -0.996476 0.0832359
    outer loop
      vertex 3.17494e-07 -18.4412 271.988
      vertex 0.752435 -17.9526 277.744
      vertex 3.19983e-07 -17.9604 277.744
    endloop
  endfacet
  facet normal 0.543644 -0.837036 0.0618204
    outer loop
      vertex 10.1504 -16.7603 256.08
      vertex 10.5792 -16.4818 256.08
      vertex 10.0275 -16.5574 259.908
    endloop
  endfacet
  facet normal 0.688989 -0.718494 0.0951893
    outer loop
      vertex 12.8379 -12.5718 277.744
      vertex 12.547 -12.2869 282
      vertex 11.7507 -13.0505 282
    endloop
  endfacet
  facet normal 0.732777 -0.673777 0.095198
    outer loop
      vertex 12.8379 -12.5718 277.744
      vertex 13.6019 -11.7409 277.744
      vertex 12.9232 -11.8777 282
    endloop
  endfacet
  facet normal 0.689739 -0.71926 0.0832193
    outer loop
      vertex 12.5125 -13.8965 268.992
      vertex 13.3604 -13.0834 268.992
      vertex 12.0232 -13.3531 277.744
    endloop
  endfacet
  facet normal 0.433227 -0.896245 0.0951797
    outer loop
      vertex 8.32465 -15.9236 277.744
      vertex 8.13602 -15.5628 282
      vertex 7.64324 -15.801 282
    endloop
  endfacet
  facet normal 0.317479 -0.943476 0.095181
    outer loop
      vertex 6.26326 -16.8414 277.744
      vertex 6.12133 -16.4598 282
      vertex 5.19342 -17.2014 277.744
    endloop
  endfacet
  facet normal 0.196748 -0.975822 0.0951959
    outer loop
      vertex 2.99656 -17.7167 277.744
      vertex 4.10308 -17.4936 277.744
      vertex 2.92865 -17.3152 282
    endloop
  endfacet
  facet normal 0.433266 -0.896225 0.0951854
    outer loop
      vertex 7.30838 -16.4149 277.744
      vertex 8.32465 -15.9236 277.744
      vertex 7.64324 -15.801 282
    endloop
  endfacet
  facet normal 0.734211 -0.675077 0.0721521
    outer loop
      vertex 14.6532 -12.6483 259.908
      vertex 14.1555 -12.2187 268.992
      vertex 13.8301 -13.5435 259.908
    endloop
  endfacet
  facet normal 0.593485 -0.799195 0.0952013
    outer loop
      vertex 10.2548 -14.7547 277.744
      vertex 10.4618 -14.094 282
      vertex 10.0224 -14.4203 282
    endloop
  endfacet
  facet normal 0.773628 -0.626451 0.0951732
    outer loop
      vertex 14.3123 -10.8636 277.744
      vertex 13.988 -10.6175 282
      vertex 13.6019 -11.7409 277.744
    endloop
  endfacet
  facet normal 0.846054 -0.524531 0.0951839
    outer loop
      vertex 15.561 -8.98416 277.744
      vertex 15.2084 -8.78058 282
      vertex 14.6271 -9.7182 282
    endloop
  endfacet
  facet normal 0.197146 -0.977715 0.0721527
    outer loop
      vertex 4.42021 -18.8457 259.908
      vertex 4.27007 -18.2056 268.992
      vertex 3.11851 -18.4378 268.992
    endloop
  endfacet
  facet normal 0.196707 -0.975831 0.095185
    outer loop
      vertex 4.10308 -17.4936 277.744
      vertex 4.01011 -17.0972 282
      vertex 2.92865 -17.3152 282
    endloop
  endfacet
  facet normal 0.0104349 -0.996477 0.0832171
    outer loop
      vertex 0.783059 -18.6832 268.992
      vertex 3.17494e-07 -18.4412 271.988
      vertex 3.16199e-07 -18.6914 268.992
    endloop
  endfacet
  facet normal 0.0104478 -0.996476 0.0832205
    outer loop
      vertex 3.17494e-07 -18.4412 271.988
      vertex 0.783059 -18.6832 268.992
      vertex 0.752435 -17.9526 277.744
    endloop
  endfacet
  facet normal 0.813574 -0.578169 0.0617912
    outer loop
      vertex 16.3205 -10.8433 256.08
      vertex 16.123 -10.7121 259.908
      vertex 16.0243 -11.2601 256.08
    endloop
  endfacet
  facet normal 0.813535 -0.578223 0.0618
    outer loop
      vertex 15.4185 -11.7033 259.908
      vertex 16.0243 -11.2601 256.08
      vertex 16.123 -10.7121 259.908
    endloop
  endfacet
  facet normal 0.813617 -0.578104 0.061827
    outer loop
      vertex 16.0243 -11.2601 256.08
      vertex 15.4185 -11.7033 259.908
      vertex 15.6075 -11.8467 256.08
    endloop
  endfacet
  facet normal 0.775667 -0.628106 0.0618264
    outer loop
      vertex 15.4185 -11.7033 259.908
      vertex 15.1546 -12.406 256.08
      vertex 15.6075 -11.8467 256.08
    endloop
  endfacet
  facet normal 0.775637 -0.628143 0.0618353
    outer loop
      vertex 15.1546 -12.406 256.08
      vertex 15.4185 -11.7033 259.908
      vertex 14.6532 -12.6483 259.908
    endloop
  endfacet
  facet normal 0.37617 -0.921648 0.0951951
    outer loop
      vertex 7.30838 -16.4149 277.744
      vertex 7.14277 -16.0429 282
      vertex 6.12133 -16.4598 282
    endloop
  endfacet
  facet normal 0.317855 -0.94448 0.0832234
    outer loop
      vertex 6.51817 -17.5268 268.992
      vertex 6.26326 -16.8414 277.744
      vertex 5.40478 -17.9015 268.992
    endloop
  endfacet
  facet normal 0.196975 -0.976869 0.0832314
    outer loop
      vertex 3.11851 -18.4378 268.992
      vertex 4.27007 -18.2056 268.992
      vertex 2.99656 -17.7167 277.744
    endloop
  endfacet
  facet normal 0.135102 -0.986248 0.0951958
    outer loop
      vertex 2.99656 -17.7167 277.744
      vertex 2.92865 -17.3152 282
      vertex 1.8782 -17.8699 277.744
    endloop
  endfacet
  facet normal 0.376876 -0.923449 0.0721592
    outer loop
      vertex 6.74735 -18.1431 259.908
      vertex 7.87325 -17.6836 259.908
      vertex 6.51817 -17.5268 268.992
    endloop
  endfacet
  facet normal 0.542161 -0.834864 0.0952013
    outer loop
      vertex 10.2548 -14.7547 277.744
      vertex 10.0224 -14.4203 282
      vertex 9.30808 -15.3695 277.744
    endloop
  endfacet
  facet normal 0.489634 -0.868937 0.0721549
    outer loop
      vertex 10.0275 -16.5574 259.908
      vertex 9.68691 -15.995 268.992
      vertex 8.66346 -16.5717 268.992
    endloop
  endfacet
  facet normal 0.690336 -0.719882 0.0721503
    outer loop
      vertex 12.9524 -14.3851 259.908
      vertex 13.3604 -13.0834 268.992
      vertex 12.5125 -13.8965 268.992
    endloop
  endfacet
  facet normal 0.733566 -0.674503 0.0832244
    outer loop
      vertex 14.1555 -12.2187 268.992
      vertex 13.6019 -11.7409 277.744
      vertex 12.8379 -12.5718 277.744
    endloop
  endfacet
  facet normal 0.77446 -0.627124 0.0832309
    outer loop
      vertex 14.8948 -11.3058 268.992
      vertex 14.3123 -10.8636 277.744
      vertex 13.6019 -11.7409 277.744
    endloop
  endfacet
  facet normal 0.7751 -0.627705 0.0721521
    outer loop
      vertex 14.6532 -12.6483 259.908
      vertex 14.8948 -11.3058 268.992
      vertex 14.1555 -12.2187 268.992
    endloop
  endfacet
  facet normal 0.77443 -0.627162 0.0832247
    outer loop
      vertex 14.1555 -12.2187 268.992
      vertex 14.8948 -11.3058 268.992
      vertex 13.6019 -11.7409 277.744
    endloop
  endfacet
  facet normal 0.811413 -0.576671 0.0951799
    outer loop
      vertex 14.9662 -9.94352 277.744
      vertex 14.6271 -9.7182 282
      vertex 14.3123 -10.8636 277.744
    endloop
  endfacet
  facet normal 0.19696 -0.976872 0.0832294
    outer loop
      vertex 4.27007 -18.2056 268.992
      vertex 4.10308 -17.4936 277.744
      vertex 2.99656 -17.7167 277.744
    endloop
  endfacet
  facet normal 0.0728859 -0.992788 0.095179
    outer loop
      vertex 1.8782 -17.8699 277.744
      vertex 1.83564 -17.465 282
      vertex 1.28126 -17.5057 282
    endloop
  endfacet
  facet normal 0.258373 -0.964066 0.0618074
    outer loop
      vertex 4.47438 -19.0766 256.08
      vertex 5.59482 -18.5309 259.908
      vertex 4.42021 -18.8457 259.908
    endloop
  endfacet
  facet normal 0.25833 -0.964077 0.0618216
    outer loop
      vertex 5.59482 -18.5309 259.908
      vertex 4.47438 -19.0766 256.08
      vertex 5.66338 -18.758 256.08
    endloop
  endfacet
  facet normal 0.77559 -0.628202 0.0618253
    outer loop
      vertex 14.8328 -12.8033 256.08
      vertex 15.1546 -12.406 256.08
      vertex 14.6532 -12.6483 259.908
    endloop
  endfacet
  facet normal 0.318293 -0.945975 0.0618216
    outer loop
      vertex 6.34546 -18.5285 256.08
      vertex 5.59482 -18.5309 259.908
      vertex 5.66338 -18.758 256.08
    endloop
  endfacet
  facet normal 0.318298 -0.945973 0.0618226
    outer loop
      vertex 5.59482 -18.5309 259.908
      vertex 6.34546 -18.5285 256.08
      vertex 6.74735 -18.1431 259.908
    endloop
  endfacet
  facet normal 0.643211 -0.761153 0.0832225
    outer loop
      vertex 11.6152 -14.6548 268.992
      vertex 12.0232 -13.3531 277.744
      vertex 11.161 -14.0817 277.744
    endloop
  endfacet
  facet normal 0.434126 -0.897959 0.0721477
    outer loop
      vertex 8.96807 -17.1543 259.908
      vertex 8.66346 -16.5717 268.992
      vertex 7.87325 -17.6836 259.908
    endloop
  endfacet
  facet normal 0.434108 -0.897967 0.0721502
    outer loop
      vertex 7.87325 -17.6836 259.908
      vertex 8.66346 -16.5717 268.992
      vertex 7.60582 -17.083 268.992
    endloop
  endfacet
  facet normal 0.318077 -0.945315 0.0721592
    outer loop
      vertex 6.74735 -18.1431 259.908
      vertex 6.51817 -17.5268 268.992
      vertex 5.59482 -18.5309 259.908
    endloop
  endfacet
  facet normal 0.644265 -0.762299 0.0618276
    outer loop
      vertex 12.7206 -14.8914 256.08
      vertex 12.0236 -15.17 259.908
      vertex 12.171 -15.3559 256.08
    endloop
  endfacet
  facet normal 0.644225 -0.762334 0.0618178
    outer loop
      vertex 12.0236 -15.17 259.908
      vertex 12.7206 -14.8914 256.08
      vertex 12.9524 -14.3851 259.908
    endloop
  endfacet
  facet normal 0.734721 -0.675546 0.0618219
    outer loop
      vertex 13.8301 -13.5435 259.908
      vertex 14.4867 -13.1797 256.08
      vertex 14.6532 -12.6483 259.908
    endloop
  endfacet
  facet normal 0.734679 -0.675594 0.0618101
    outer loop
      vertex 14.4867 -13.1797 256.08
      vertex 13.8301 -13.5435 259.908
      vertex 13.9996 -13.7094 256.08
    endloop
  endfacet
  facet normal 0.734192 -0.675097 0.0721557
    outer loop
      vertex 13.8301 -13.5435 259.908
      vertex 14.1555 -12.2187 268.992
      vertex 13.3604 -13.0834 268.992
    endloop
  endfacet
  facet normal 0.689756 -0.719243 0.0832224
    outer loop
      vertex 13.3604 -13.0834 268.992
      vertex 12.8379 -12.5718 277.744
      vertex 12.0232 -13.3531 277.744
    endloop
  endfacet
  facet normal 0.689014 -0.718469 0.0951985
    outer loop
      vertex 11.7507 -13.0505 282
      vertex 12.0232 -13.3531 277.744
      vertex 12.8379 -12.5718 277.744
    endloop
  endfacet
  facet normal 0.732741 -0.673817 0.0951911
    outer loop
      vertex 13.6019 -11.7409 277.744
      vertex 13.2937 -11.4748 282
      vertex 12.9232 -11.8777 282
    endloop
  endfacet
  facet normal 0.811427 -0.576652 0.0951739
    outer loop
      vertex 14.3123 -10.8636 277.744
      vertex 14.6271 -9.7182 282
      vertex 13.988 -10.6175 282
    endloop
  endfacet
  facet normal 0.733557 -0.674513 0.0832226
    outer loop
      vertex 13.3604 -13.0834 268.992
      vertex 14.1555 -12.2187 268.992
      vertex 12.8379 -12.5718 277.744
    endloop
  endfacet
  facet normal 0.690303 -0.719913 0.0721563
    outer loop
      vertex 13.8301 -13.5435 259.908
      vertex 13.3604 -13.0834 268.992
      vertex 12.9524 -14.3851 259.908
    endloop
  endfacet
  facet normal 0.812286 -0.577291 0.0832306
    outer loop
      vertex 14.8948 -11.3058 268.992
      vertex 14.9662 -9.94352 277.744
      vertex 14.3123 -10.8636 277.744
    endloop
  endfacet
  facet normal 0.846955 -0.525111 0.0832246
    outer loop
      vertex 15.5753 -10.3482 268.992
      vertex 16.1943 -9.34981 268.992
      vertex 14.9662 -9.94352 277.744
    endloop
  endfacet
  facet normal 0.812312 -0.577254 0.0832247
    outer loop
      vertex 15.5753 -10.3482 268.992
      vertex 14.9662 -9.94352 277.744
      vertex 14.8948 -11.3058 268.992
    endloop
  endfacet
  facet normal 0.0103265 -0.998034 0.0618166
    outer loop
      vertex 0.309274 -19.5825 256.08
      vertex 3.12797e-07 -19.3486 259.908
      vertex 3.1157e-07 -19.5857 256.08
    endloop
  endfacet
  facet normal 0.0104655 -0.998032 0.0618277
    outer loop
      vertex 3.12797e-07 -19.3486 259.908
      vertex 0.309274 -19.5825 256.08
      vertex 0.810592 -19.3401 259.908
    endloop
  endfacet
  facet normal 0.0104583 -0.997339 0.0721534
    outer loop
      vertex 0.810592 -19.3401 259.908
      vertex 3.13958e-07 -19.1244 263.007
      vertex 3.12797e-07 -19.3486 259.908
    endloop
  endfacet
  facet normal 0.0104576 -0.997339 0.0721532
    outer loop
      vertex 3.13958e-07 -19.1244 263.007
      vertex 0.810592 -19.3401 259.908
      vertex 0.783059 -18.6832 268.992
    endloop
  endfacet
  facet normal 0.135248 -0.98731 0.0832277
    outer loop
      vertex 1.95464 -18.5972 268.992
      vertex 2.99656 -17.7167 277.744
      vertex 1.8782 -17.8699 277.744
    endloop
  endfacet
  facet normal 0.31782 -0.944491 0.0832281
    outer loop
      vertex 5.40478 -17.9015 268.992
      vertex 6.26326 -16.8414 277.744
      vertex 5.19342 -17.2014 277.744
    endloop
  endfacet
  facet normal 0.317446 -0.943487 0.0951899
    outer loop
      vertex 5.19342 -17.2014 277.744
      vertex 6.12133 -16.4598 282
      vertex 5.07574 -16.8116 282
    endloop
  endfacet
  facet normal 0.257699 -0.961525 0.0951849
    outer loop
      vertex 4.10308 -17.4936 277.744
      vertex 5.07574 -16.8116 282
      vertex 4.01011 -17.0972 282
    endloop
  endfacet
  facet normal 0.25768 -0.96153 0.0951899
    outer loop
      vertex 5.07574 -16.8116 282
      vertex 4.10308 -17.4936 277.744
      vertex 5.19342 -17.2014 277.744
    endloop
  endfacet
  facet normal 0.0105851 -0.995403 0.095188
    outer loop
      vertex 3.21388e-07 -17.6891 280.582
      vertex 0.188076 -17.5515 282
      vertex 3.2209e-07 -17.5535 282
    endloop
  endfacet
  facet normal 0.0103188 -0.995409 0.0951566
    outer loop
      vertex 0.752435 -17.9526 277.744
      vertex 3.21388e-07 -17.6891 280.582
      vertex 3.19983e-07 -17.9604 277.744
    endloop
  endfacet
  facet normal 0.010488 -0.995403 0.0952009
    outer loop
      vertex 3.21388e-07 -17.6891 280.582
      vertex 0.752435 -17.9526 277.744
      vertex 0.188076 -17.5515 282
    endloop
  endfacet
  facet normal 0.135167 -0.986241 0.0951789
    outer loop
      vertex 1.8782 -17.8699 277.744
      vertex 2.92865 -17.3152 282
      vertex 1.83564 -17.465 282
    endloop
  endfacet
  facet normal 0.0729313 -0.992784 0.0951852
    outer loop
      vertex 0.752435 -17.9526 277.744
      vertex 1.28125 -17.5057 282
      vertex 0.735385 -17.5458 282
    endloop
  endfacet
  facet normal 0.376121 -0.921669 0.0951813
    outer loop
      vertex 6.12133 -16.4598 282
      vertex 6.26326 -16.8414 277.744
      vertex 7.30838 -16.4149 277.744
    endloop
  endfacet
  facet normal 0.433201 -0.896256 0.0951949
    outer loop
      vertex 7.30838 -16.4149 277.744
      vertex 7.64324 -15.801 282
      vertex 7.14277 -16.0429 282
    endloop
  endfacet
  facet normal 0.197095 -0.977726 0.0721459
    outer loop
      vertex 3.22816 -19.086 259.908
      vertex 4.42021 -18.8457 259.908
      vertex 3.11851 -18.4378 268.992
    endloop
  endfacet
  facet normal 0.489588 -0.868964 0.0721479
    outer loop
      vertex 8.96807 -17.1543 259.908
      vertex 10.0275 -16.5574 259.908
      vertex 8.66346 -16.5717 268.992
    endloop
  endfacet
  facet normal 0.542745 -0.835764 0.0832242
    outer loop
      vertex 9.68691 -15.995 268.992
      vertex 10.2548 -14.7547 277.744
      vertex 9.30808 -15.3695 277.744
    endloop
  endfacet
  facet normal 0.489984 -0.869536 0.0618371
    outer loop
      vertex 9.07797 -17.3646 256.08
      vertex 9.5234 -17.1136 256.08
      vertex 8.96807 -17.1543 259.908
    endloop
  endfacet
  facet normal 0.489928 -0.869567 0.0618288
    outer loop
      vertex 9.5234 -17.1136 256.08
      vertex 10.0275 -16.5574 259.908
      vertex 8.96807 -17.1543 259.908
    endloop
  endfacet
  facet normal 0.489969 -0.869545 0.0618202
    outer loop
      vertex 10.0275 -16.5574 259.908
      vertex 9.5234 -17.1136 256.08
      vertex 10.1504 -16.7603 256.08
    endloop
  endfacet
  facet normal 0.434362 -0.898613 0.0618377
    outer loop
      vertex 9.07797 -17.3646 256.08
      vertex 8.96807 -17.1543 259.908
      vertex 8.61766 -17.5871 256.08
    endloop
  endfacet
  facet normal 0.434374 -0.898609 0.0618174
    outer loop
      vertex 8.61766 -17.5871 256.08
      vertex 7.87325 -17.6836 259.908
      vertex 7.96973 -17.9003 256.08
    endloop
  endfacet
  facet normal 0.434427 -0.898582 0.0618283
    outer loop
      vertex 7.87325 -17.6836 259.908
      vertex 8.61766 -17.5871 256.08
      vertex 8.96807 -17.1543 259.908
    endloop
  endfacet
  facet normal 0.690783 -0.720414 0.0618208
    outer loop
      vertex 13.4802 -14.2075 256.08
      vertex 13.8301 -13.5435 259.908
      vertex 12.9524 -14.3851 259.908
    endloop
  endfacet
  facet normal 0.690829 -0.720371 0.0618091
    outer loop
      vertex 13.8301 -13.5435 259.908
      vertex 13.4802 -14.2075 256.08
      vertex 13.9996 -13.7094 256.08
    endloop
  endfacet
  facet normal 0.690861 -0.720338 0.061835
    outer loop
      vertex 13.1112 -14.5614 256.08
      vertex 13.4802 -14.2075 256.08
      vertex 12.9524 -14.3851 259.908
    endloop
  endfacet
  facet normal 0.64323 -0.761137 0.0832192
    outer loop
      vertex 12.5125 -13.8965 268.992
      vertex 12.0232 -13.3531 277.744
      vertex 11.6152 -14.6548 268.992
    endloop
  endfacet
  facet normal 0.543225 -0.836481 0.0721548
    outer loop
      vertex 10.0275 -16.5574 259.908
      vertex 10.6721 -15.3552 268.992
      vertex 9.68691 -15.995 268.992
    endloop
  endfacet
  facet normal 0.642519 -0.760335 0.0951857
    outer loop
      vertex 11.161 -14.0817 277.744
      vertex 12.0232 -13.3531 277.744
      vertex 11.3327 -13.4038 282
    endloop
  endfacet
  facet normal 0.732825 -0.673726 0.0951887
    outer loop
      vertex 12.8379 -12.5718 277.744
      vertex 12.9232 -11.8777 282
      vertex 12.547 -12.2869 282
    endloop
  endfacet
  facet normal 0.773585 -0.626502 0.0951906
    outer loop
      vertex 13.6019 -11.7409 277.744
      vertex 13.988 -10.6175 282
      vertex 13.2937 -11.4748 282
    endloop
  endfacet
  facet normal 0.813015 -0.577753 0.0721635
    outer loop
      vertex 16.123 -10.7121 259.908
      vertex 15.5753 -10.3482 268.992
      vertex 14.8948 -11.3058 268.992
    endloop
  endfacet
  facet normal 0.31813 -0.945297 0.0721519
    outer loop
      vertex 5.59482 -18.5309 259.908
      vertex 6.51817 -17.5268 268.992
      vertex 5.40478 -17.9015 268.992
    endloop
  endfacet
  facet normal 0.197232 -0.978405 0.0618295
    outer loop
      vertex 3.76891 -19.2189 256.08
      vertex 4.42021 -18.8457 259.908
      vertex 3.22816 -19.086 259.908
    endloop
  endfacet
  facet normal 0.197349 -0.978383 0.0618075
    outer loop
      vertex 4.42021 -18.8457 259.908
      vertex 3.76891 -19.2189 256.08
      vertex 4.47438 -19.0766 256.08
    endloop
  endfacet
  facet normal 0.257958 -0.962565 0.0832292
    outer loop
      vertex 4.27007 -18.2056 268.992
      vertex 5.19342 -17.2014 277.744
      vertex 4.10308 -17.4936 277.744
    endloop
  endfacet
  facet normal 0.257965 -0.962563 0.0832283
    outer loop
      vertex 5.19342 -17.2014 277.744
      vertex 4.27007 -18.2056 268.992
      vertex 5.40478 -17.9015 268.992
    endloop
  endfacet
  facet normal 0.0103667 -0.995406 0.0951851
    outer loop
      vertex 0.752435 -17.9526 277.744
      vertex 0.735385 -17.5458 282
      vertex 0.188076 -17.5515 282
    endloop
  endfacet
  facet normal 0 -0.994532 0.104431
    outer loop
      vertex 0.752435 -17.9526 277.744
      vertex 1.28126 -17.5057 282
      vertex 1.28125 -17.5057 282
    endloop
  endfacet
  facet normal 0.0729311 -0.992784 0.095185
    outer loop
      vertex 1.28126 -17.5057 282
      vertex 0.752435 -17.9526 277.744
      vertex 1.8782 -17.8699 277.744
    endloop
  endfacet
  facet normal 0.135219 -0.987314 0.0832315
    outer loop
      vertex 3.11851 -18.4378 268.992
      vertex 2.99656 -17.7167 277.744
      vertex 1.95464 -18.5972 268.992
    endloop
  endfacet
  facet normal 0.644129 -0.762414 0.0618342
    outer loop
      vertex 13.1112 -14.5614 256.08
      vertex 12.9524 -14.3851 259.908
      vertex 12.7206 -14.8914 256.08
    endloop
  endfacet
  facet normal 0.376526 -0.92266 0.0832293
    outer loop
      vertex 7.60582 -17.083 268.992
      vertex 7.30838 -16.4149 277.744
      vertex 6.26326 -16.8414 277.744
    endloop
  endfacet
  facet normal 0.542193 -0.834845 0.0951917
    outer loop
      vertex 9.30808 -15.3695 277.744
      vertex 10.0224 -14.4203 282
      vertex 9.09716 -15.0212 282
    endloop
  endfacet
  facet normal 0.135478 -0.98885 0.0618151
    outer loop
      vertex 2.04816 -19.487 256.08
      vertex 2.55471 -19.4176 256.08
      vertex 2.02337 -19.2511 259.908
    endloop
  endfacet
  facet normal 0.135414 -0.988159 0.0721458
    outer loop
      vertex 3.22816 -19.086 259.908
      vertex 3.11851 -18.4378 268.992
      vertex 2.02337 -19.2511 259.908
    endloop
  endfacet
  facet normal 0.0730106 -0.995413 0.0618177
    outer loop
      vertex 0.820525 -19.5771 256.08
      vertex 1.33043 -19.5397 256.08
      vertex 0.810592 -19.3401 259.908
    endloop
  endfacet
  facet normal 0.488697 -0.867245 0.0951921
    outer loop
      vertex 9.30808 -15.3695 277.744
      vertex 9.09716 -15.0212 282
      vertex 8.61287 -15.2941 282
    endloop
  endfacet
  facet normal 0.489178 -0.868204 0.0832241
    outer loop
      vertex 9.68691 -15.995 268.992
      vertex 9.30808 -15.3695 277.744
      vertex 8.32465 -15.9236 277.744
    endloop
  endfacet
  facet normal 0.594666 -0.800728 0.0721589
    outer loop
      vertex 11.0474 -15.8951 259.908
      vertex 11.6152 -14.6548 268.992
      vertex 10.6721 -15.3552 268.992
    endloop
  endfacet
  facet normal 0.54358 -0.837079 0.0618103
    outer loop
      vertex 10.5792 -16.4818 256.08
      vertex 11.0474 -15.8951 259.908
      vertex 10.0275 -16.5574 259.908
    endloop
  endfacet
  facet normal 0.543581 -0.837078 0.0618102
    outer loop
      vertex 11.0474 -15.8951 259.908
      vertex 10.5792 -16.4818 256.08
      vertex 11.1827 -16.0899 256.08
    endloop
  endfacet
  facet normal 0.377147 -0.924088 0.0618174
    outer loop
      vertex 7.96973 -17.9003 256.08
      vertex 7.87325 -17.6836 259.908
      vertex 7.49635 -18.0935 256.08
    endloop
  endfacet
  facet normal 0.734706 -0.675563 0.0618248
    outer loop
      vertex 14.8328 -12.8033 256.08
      vertex 14.6532 -12.6483 259.908
      vertex 14.4867 -13.1797 256.08
    endloop
  endfacet
  facet normal 0.642511 -0.760341 0.095187
    outer loop
      vertex 11.161 -14.0817 277.744
      vertex 11.3327 -13.4038 282
      vertex 10.9081 -13.7626 282
    endloop
  endfacet
  facet normal 0.847687 -0.525565 0.072164
    outer loop
      vertex 16.7638 -9.67856 259.908
      vertex 16.1943 -9.34981 268.992
      vertex 15.5753 -10.3482 268.992
    endloop
  endfacet
  facet normal 0.846955 -0.52511 0.0832248
    outer loop
      vertex 16.1943 -9.34981 268.992
      vertex 15.561 -8.98416 277.744
      vertex 14.9662 -9.94352 277.744
    endloop
  endfacet
  facet normal 0.846045 -0.524545 0.0951797
    outer loop
      vertex 14.9662 -9.94352 277.744
      vertex 15.561 -8.98416 277.744
      vertex 14.6271 -9.7182 282
    endloop
  endfacet
  facet normal 0.258188 -0.963396 0.0721526
    outer loop
      vertex 4.42021 -18.8457 259.908
      vertex 5.40478 -17.9015 268.992
      vertex 4.27007 -18.2056 268.992
    endloop
  endfacet
  facet normal 0.258194 -0.963395 0.0721519
    outer loop
      vertex 5.40478 -17.9015 268.992
      vertex 4.42021 -18.8457 259.908
      vertex 5.59482 -18.5309 259.908
    endloop
  endfacet
  facet normal 0.433733 -0.897189 0.0832291
    outer loop
      vertex 8.66346 -16.5717 268.992
      vertex 8.32465 -15.9236 277.744
      vertex 7.60582 -17.083 268.992
    endloop
  endfacet
  facet normal 0.376485 -0.922677 0.0832236
    outer loop
      vertex 6.51817 -17.5268 268.992
      vertex 7.60582 -17.083 268.992
      vertex 6.26326 -16.8414 277.744
    endloop
  endfacet
  facet normal 0.376811 -0.923476 0.07215
    outer loop
      vertex 7.87325 -17.6836 259.908
      vertex 7.60582 -17.083 268.992
      vertex 6.51817 -17.5268 268.992
    endloop
  endfacet
  facet normal 0.0730096 -0.993852 0.0832278
    outer loop
      vertex 1.95464 -18.5972 268.992
      vertex 1.8782 -17.8699 277.744
      vertex 0.752435 -17.9526 277.744
    endloop
  endfacet
  facet normal 0.0729542 -0.993857 0.0832205
    outer loop
      vertex 0.783059 -18.6832 268.992
      vertex 1.95464 -18.5972 268.992
      vertex 0.752435 -17.9526 277.744
    endloop
  endfacet
  facet normal 0.0104439 -0.997339 0.072155
    outer loop
      vertex 3.13958e-07 -19.1244 263.007
      vertex 0.783059 -18.6832 268.992
      vertex 3.16199e-07 -18.6914 268.992
    endloop
  endfacet
  facet normal 0.594155 -0.800034 0.0832226
    outer loop
      vertex 11.6152 -14.6548 268.992
      vertex 11.161 -14.0817 277.744
      vertex 10.2548 -14.7547 277.744
    endloop
  endfacet
  facet normal 0.593515 -0.799173 0.0951964
    outer loop
      vertex 10.4618 -14.094 282
      vertex 10.2548 -14.7547 277.744
      vertex 11.161 -14.0817 277.744
    endloop
  endfacet
  facet normal 0.543201 -0.836496 0.0721585
    outer loop
      vertex 11.0474 -15.8951 259.908
      vertex 10.6721 -15.3552 268.992
      vertex 10.0275 -16.5574 259.908
    endloop
  endfacet
  facet normal 0.595074 -0.801291 0.061809
    outer loop
      vertex 11.7605 -15.6608 256.08
      vertex 11.0474 -15.8951 259.908
      vertex 11.1827 -16.0899 256.08
    endloop
  endfacet
  facet normal 0.595142 -0.801239 0.0618249
    outer loop
      vertex 11.0474 -15.8951 259.908
      vertex 11.7605 -15.6608 256.08
      vertex 12.0236 -15.17 259.908
    endloop
  endfacet
  facet normal 0.197171 -0.978418 0.0618213
    outer loop
      vertex 3.26772 -19.3199 256.08
      vertex 3.76891 -19.2189 256.08
      vertex 3.22816 -19.086 259.908
    endloop
  endfacet
  facet normal 0.135508 -0.988846 0.0618191
    outer loop
      vertex 2.55471 -19.4176 256.08
      vertex 3.22816 -19.086 259.908
      vertex 2.02337 -19.2511 259.908
    endloop
  endfacet
  facet normal 0.135497 -0.988847 0.0618212
    outer loop
      vertex 3.22816 -19.086 259.908
      vertex 2.55471 -19.4176 256.08
      vertex 3.26772 -19.3199 256.08
    endloop
  endfacet
  facet normal 0.0105415 -0.998032 0.0618177
    outer loop
      vertex 0.820525 -19.5771 256.08
      vertex 0.810592 -19.3401 259.908
      vertex 0.309274 -19.5825 256.08
    endloop
  endfacet
  facet normal 0.318392 -0.945942 0.0618097
    outer loop
      vertex 6.83003 -18.3654 256.08
      vertex 6.74735 -18.1431 259.908
      vertex 6.34546 -18.5285 256.08
    endloop
  endfacet
  facet normal 0.377094 -0.92411 0.0618098
    outer loop
      vertex 7.49635 -18.0935 256.08
      vertex 6.74735 -18.1431 259.908
      vertex 6.83003 -18.3654 256.08
    endloop
  endfacet
  facet normal 0.377138 -0.924092 0.0618186
    outer loop
      vertex 6.74735 -18.1431 259.908
      vertex 7.49635 -18.0935 256.08
      vertex 7.87325 -17.6836 259.908
    endloop
  endfacet
  facet normal 0.593458 -0.799216 0.0951869
    outer loop
      vertex 11.161 -14.0817 277.744
      vertex 10.9081 -13.7626 282
      vertex 10.4618 -14.094 282
    endloop
  endfacet
  facet normal 0.642593 -0.760271 0.0951984
    outer loop
      vertex 12.0232 -13.3531 277.744
      vertex 11.7507 -13.0505 282
      vertex 11.3327 -13.4038 282
    endloop
  endfacet
  facet normal 0.848291 -0.525911 0.0618109
    outer loop
      vertex 16.9692 -9.79716 256.08
      vertex 16.7638 -9.67856 259.908
      vertex 16.6998 -10.2317 256.08
    endloop
  endfacet
  facet normal 0.848275 -0.525935 0.0618145
    outer loop
      vertex 16.123 -10.7121 259.908
      vertex 16.6998 -10.2317 256.08
      vertex 16.7638 -9.67856 259.908
    endloop
  endfacet
  facet normal 0.848212 -0.526041 0.0617916
    outer loop
      vertex 16.6998 -10.2317 256.08
      vertex 16.123 -10.7121 259.908
      vertex 16.3205 -10.8433 256.08
    endloop
  endfacet
  facet normal 0.489211 -0.868185 0.083229
    outer loop
      vertex 8.66346 -16.5717 268.992
      vertex 9.68691 -15.995 268.992
      vertex 8.32465 -15.9236 277.744
    endloop
  endfacet
  facet normal 0.433732 -0.89719 0.0832292
    outer loop
      vertex 7.60582 -17.083 268.992
      vertex 8.32465 -15.9236 277.744
      vertex 7.30838 -16.4149 277.744
    endloop
  endfacet
  facet normal 0.135337 -0.988169 0.072156
    outer loop
      vertex 2.02337 -19.2511 259.908
      vertex 3.11851 -18.4378 268.992
      vertex 1.95464 -18.5972 268.992
    endloop
  endfacet
  facet normal 0.0730173 -0.994717 0.0721559
    outer loop
      vertex 2.02337 -19.2511 259.908
      vertex 1.95464 -18.5972 268.992
      vertex 0.783059 -18.6832 268.992
    endloop
  endfacet
  facet normal 0.643777 -0.761804 0.0721488
    outer loop
      vertex 12.0236 -15.17 259.908
      vertex 12.9524 -14.3851 259.908
      vertex 11.6152 -14.6548 268.992
    endloop
  endfacet
  facet normal 0.643787 -0.761796 0.0721505
    outer loop
      vertex 12.9524 -14.3851 259.908
      vertex 12.5125 -13.8965 268.992
      vertex 11.6152 -14.6548 268.992
    endloop
  endfacet
  facet normal 0.488652 -0.867271 0.0951851
    outer loop
      vertex 8.32465 -15.9236 277.744
      vertex 9.30808 -15.3695 277.744
      vertex 8.61287 -15.2941 282
    endloop
  endfacet
  facet normal 0.488687 -0.867252 0.0951799
    outer loop
      vertex 8.32465 -15.9236 277.744
      vertex 8.61287 -15.2941 282
      vertex 8.13602 -15.5628 282
    endloop
  endfacet
  facet normal 0.0730484 -0.99541 0.0618227
    outer loop
      vertex 1.33043 -19.5397 256.08
      vertex 2.02337 -19.2511 259.908
      vertex 0.810592 -19.3401 259.908
    endloop
  endfacet
  facet normal 0.0730888 -0.995408 0.0618152
    outer loop
      vertex 2.02337 -19.2511 259.908
      vertex 1.33043 -19.5397 256.08
      vertex 2.04816 -19.487 256.08
    endloop
  endfacet
  facet normal 0.0729977 -0.994719 0.0721533
    outer loop
      vertex 0.810592 -19.3401 259.908
      vertex 2.02337 -19.2511 259.908
      vertex 0.783059 -18.6832 268.992
    endloop
  endfacet
  facet normal 0.594152 -0.800036 0.0832223
    outer loop
      vertex 10.6721 -15.3552 268.992
      vertex 11.6152 -14.6548 268.992
      vertex 10.2548 -14.7547 277.744
    endloop
  endfacet
  facet normal 0.542756 -0.835757 0.0832226
    outer loop
      vertex 10.6721 -15.3552 268.992
      vertex 10.2548 -14.7547 277.744
      vertex 9.68691 -15.995 268.992
    endloop
  endfacet
  facet normal -0.490159 0.869854 -0.0556565
    outer loop
      vertex 8.17017 -15.6281 256.08
      vertex 8.07127 -15.4389 259.908
      vertex 8.57106 -15.4022 256.08
    endloop
  endfacet
  facet normal -0.135441 0.988653 -0.0649713
    outer loop
      vertex 1.82103 -17.326 259.908
      vertex 1.75918 -16.7375 268.992
      vertex 2.80666 -16.594 268.992
    endloop
  endfacet
  facet normal -0.73495 0.675833 -0.0556656
    outer loop
      vertex 13.0381 -11.8617 256.08
      vertex 12.4471 -12.1891 259.908
      vertex 13.1879 -11.3835 259.908
    endloop
  endfacet
  facet normal -0.73491 0.675877 -0.0556556
    outer loop
      vertex 12.4471 -12.1891 259.908
      vertex 13.0381 -11.8617 256.08
      vertex 12.5996 -12.3385 256.08
    endloop
  endfacet
  facet normal -0.775468 0.628034 -0.0649787
    outer loop
      vertex 13.8767 -10.533 259.908
      vertex 13.1879 -11.3835 259.908
      vertex 13.4053 -10.1752 268.992
    endloop
  endfacet
  facet normal -0.77426 0.627034 -0.0857313
    outer loop
      vertex 12.2417 -10.5668 277.744
      vertex 12.2744 -9.94452 282
      vertex 12.8811 -9.77727 277.744
    endloop
  endfacet
  facet normal -0.734536 0.675452 -0.0649709
    outer loop
      vertex 13.1879 -11.3835 259.908
      vertex 12.4471 -12.1891 259.908
      vertex 12.74 -10.9968 268.992
    endloop
  endfacet
  facet normal -0.258055 0.963218 -0.0749558
    outer loop
      vertex 3.84307 -16.385 268.992
      vertex 4.67408 -15.4813 277.744
      vertex 4.86431 -16.1114 268.992
    endloop
  endfacet
  facet normal -0.258053 0.963219 -0.0749561
    outer loop
      vertex 4.67408 -15.4813 277.744
      vertex 3.84307 -16.385 268.992
      vertex 3.69277 -15.7442 277.744
    endloop
  endfacet
  facet normal -0.81387 0.578377 -0.0556445
    outer loop
      vertex 14.4219 -10.1341 256.08
      vertex 13.8767 -10.533 259.908
      vertex 14.5107 -9.64086 259.908
    endloop
  endfacet
  facet normal -0.813835 0.578426 -0.0556345
    outer loop
      vertex 13.8767 -10.533 259.908
      vertex 14.4219 -10.1341 256.08
      vertex 14.0467 -10.662 256.08
    endloop
  endfacet
  facet normal -0.81341 0.57805 -0.0649788
    outer loop
      vertex 13.8767 -10.533 259.908
      vertex 13.4053 -10.1752 268.992
      vertex 14.5107 -9.64086 259.908
    endloop
  endfacet
  facet normal -0.376715 0.923292 -0.0749548
    outer loop
      vertex 5.86635 -15.7741 268.992
      vertex 5.63693 -15.1572 277.744
      vertex 6.84524 -15.3747 268.992
    endloop
  endfacet
  facet normal -0.317843 0.94426 -0.0857277
    outer loop
      vertex 5.63693 -15.1572 277.744
      vertex 4.67408 -15.4813 277.744
      vertex 5.5092 -14.8138 282
    endloop
  endfacet
  facet normal -0.197122 0.977509 -0.0749588
    outer loop
      vertex 2.80666 -16.594 268.992
      vertex 2.6969 -15.945 277.744
      vertex 3.84307 -16.385 268.992
    endloop
  endfacet
  facet normal -0.37698 0.92394 -0.0649627
    outer loop
      vertex 7.08592 -15.9152 259.908
      vertex 5.86635 -15.7741 268.992
      vertex 6.84524 -15.3747 268.992
    endloop
  endfacet
  facet normal -0.643052 0.761007 -0.085747
    outer loop
      vertex 10.0449 -12.6735 277.744
      vertex 9.81727 -12.3863 282
      vertex 10.1994 -12.0634 282
    endloop
  endfacet
  facet normal -0.594532 0.800571 -0.0749519
    outer loop
      vertex 10.4537 -13.1893 268.992
      vertex 9.22929 -13.2792 277.744
      vertex 10.0449 -12.6735 277.744
    endloop
  endfacet
  facet normal -0.64365 0.761641 -0.0749518
    outer loop
      vertex 10.4537 -13.1893 268.992
      vertex 10.0449 -12.6735 277.744
      vertex 10.8208 -12.0178 277.744
    endloop
  endfacet
  facet normal -0.734534 0.675454 -0.0649713
    outer loop
      vertex 12.4471 -12.1891 259.908
      vertex 12.0243 -11.7751 268.992
      vertex 12.74 -10.9968 268.992
    endloop
  endfacet
  facet normal -0.813833 0.578427 -0.0556518
    outer loop
      vertex 14.6885 -9.759 256.08
      vertex 14.4219 -10.1341 256.08
      vertex 14.5107 -9.64086 259.908
    endloop
  endfacet
  facet normal -0.775976 0.628304 -0.0556341
    outer loop
      vertex 13.6391 -11.1654 256.08
      vertex 13.8767 -10.533 259.908
      vertex 14.0467 -10.662 256.08
    endloop
  endfacet
  facet normal -0.775906 0.628388 -0.0556524
    outer loop
      vertex 13.8767 -10.533 259.908
      vertex 13.6391 -11.1654 256.08
      vertex 13.1879 -11.3835 259.908
    endloop
  endfacet
  facet normal -0.19722 0.978204 -0.0649705
    outer loop
      vertex 3.97819 -16.9611 259.908
      vertex 2.90535 -17.1774 259.908
      vertex 3.84307 -16.385 268.992
    endloop
  endfacet
  facet normal -0.196956 0.976656 -0.0857453
    outer loop
      vertex 2.63579 -15.5837 282
      vertex 3.12621 -15.4848 282
      vertex 3.69277 -15.7442 277.744
    endloop
  endfacet
  facet normal -0.197318 0.978758 -0.0556695
    outer loop
      vertex 3.39202 -17.297 256.08
      vertex 3.97819 -16.9611 259.908
      vertex 4.02694 -17.169 256.08
    endloop
  endfacet
  facet normal -0.197331 0.978755 -0.0556673
    outer loop
      vertex 3.97819 -16.9611 259.908
      vertex 3.39202 -17.297 256.08
      vertex 2.90535 -17.1774 259.908
    endloop
  endfacet
  facet normal -0.135222 0.987099 -0.0857326
    outer loop
      vertex 1.69038 -16.0829 277.744
      vertex 1.65208 -15.7185 282
      vertex 2.14774 -15.6506 282
    endloop
  endfacet
  facet normal -0.318127 0.945081 -0.0749548
    outer loop
      vertex 5.86635 -15.7741 268.992
      vertex 4.86431 -16.1114 268.992
      vertex 5.63693 -15.1572 277.744
    endloop
  endfacet
  facet normal -0.691101 0.720612 -0.0556563
    outer loop
      vertex 12.5996 -12.3385 256.08
      vertex 12.2675 -12.657 256.08
      vertex 12.4471 -12.1891 259.908
    endloop
  endfacet
  facet normal -0.31822 0.945788 -0.0649625
    outer loop
      vertex 5.03534 -16.6778 259.908
      vertex 4.86431 -16.1114 268.992
      vertex 6.07261 -16.3288 259.908
    endloop
  endfacet
  facet normal -0.434561 0.898921 -0.0556567
    outer loop
      vertex 7.58704 -15.91 256.08
      vertex 8.07127 -15.4389 259.908
      vertex 8.17017 -15.6281 256.08
    endloop
  endfacet
  facet normal -0.434529 0.898936 -0.0556627
    outer loop
      vertex 8.07127 -15.4389 259.908
      vertex 7.58704 -15.91 256.08
      vertex 7.08592 -15.9152 259.908
    endloop
  endfacet
  facet normal -0.734019 0.674981 -0.0749502
    outer loop
      vertex 12.0243 -11.7751 268.992
      vertex 11.5541 -11.3146 277.744
      vertex 12.74 -10.9968 268.992
    endloop
  endfacet
  facet normal -0.690687 0.720229 -0.0649711
    outer loop
      vertex 12.4471 -12.1891 259.908
      vertex 11.2612 -12.5069 268.992
      vertex 12.0243 -11.7751 268.992
    endloop
  endfacet
  facet normal -0.733405 0.674364 -0.0857406
    outer loop
      vertex 11.5541 -11.3146 277.744
      vertex 11.2923 -11.0582 282
      vertex 12.2417 -10.5668 277.744
    endloop
  endfacet
  facet normal -0.733434 0.67433 -0.0857511
    outer loop
      vertex 12.2417 -10.5668 277.744
      vertex 11.2923 -11.0582 282
      vertex 11.9643 -10.3273 282
    endloop
  endfacet
  facet normal -0.690687 0.720229 -0.064971
    outer loop
      vertex 11.6572 -12.9466 259.908
      vertex 11.2612 -12.5069 268.992
      vertex 12.4471 -12.1891 259.908
    endloop
  endfacet
  facet normal -0.812835 0.577652 -0.0749489
    outer loop
      vertex 13.4053 -10.1752 268.992
      vertex 12.8811 -9.77727 277.744
      vertex 13.4696 -8.94917 277.744
    endloop
  endfacet
  facet normal -0.774936 0.627581 -0.0749491
    outer loop
      vertex 13.4053 -10.1752 268.992
      vertex 12.2417 -10.5668 277.744
      vertex 12.8811 -9.77727 277.744
    endloop
  endfacet
  facet normal -0.0731226 0.995769 -0.0556515
    outer loop
      vertex 1.84335 -17.5383 256.08
      vertex 1.38443 -17.572 256.08
      vertex 1.82103 -17.326 259.908
    endloop
  endfacet
  facet normal -0.135614 0.989198 -0.0556514
    outer loop
      vertex 1.84335 -17.5383 256.08
      vertex 1.82103 -17.326 259.908
      vertex 2.29924 -17.4758 256.08
    endloop
  endfacet
  facet normal -0.848106 0.525827 -0.064974
    outer loop
      vertex 14.5107 -9.64086 259.908
      vertex 14.0178 -9.31339 268.992
      vertex 15.0874 -8.7107 259.908
    endloop
  endfacet
  facet normal -0.812126 0.577148 -0.085744
    outer loop
      vertex 12.8811 -9.77727 277.744
      vertex 12.5892 -9.55572 282
      vertex 13.4696 -8.94917 277.744
    endloop
  endfacet
  facet normal -0.0104544 0.997134 -0.0749342
    outer loop
      vertex 0.677191 -16.1573 277.744
      vertex 3.28175e-07 -16.3779 274.903
      vertex 3.2928e-07 -16.1644 277.744
    endloop
  endfacet
  facet normal -0.0103697 0.997133 -0.0749544
    outer loop
      vertex 3.28175e-07 -16.3779 274.903
      vertex 0.677191 -16.1573 277.744
      vertex 0.704753 -16.8149 268.992
    endloop
  endfacet
  facet normal -0.197099 0.977514 -0.074956
    outer loop
      vertex 3.84307 -16.385 268.992
      vertex 2.6969 -15.945 277.744
      vertex 3.69277 -15.7442 277.744
    endloop
  endfacet
  facet normal -0.196927 0.976662 -0.0857383
    outer loop
      vertex 2.6969 -15.945 277.744
      vertex 2.63579 -15.5837 282
      vertex 3.69277 -15.7442 277.744
    endloop
  endfacet
  facet normal -0.0104995 0.997832 -0.064969
    outer loop
      vertex 0.729533 -17.4061 259.908
      vertex 3.23857e-07 -17.212 263.007
      vertex 0.704753 -16.8149 268.992
    endloop
  endfacet
  facet normal -0.0105318 0.997831 -0.0649766
    outer loop
      vertex 3.23857e-07 -17.212 263.007
      vertex 0.729533 -17.4061 259.908
      vertex 3.22813e-07 -17.4138 259.908
    endloop
  endfacet
  facet normal -0.1355 0.989213 -0.0556565
    outer loop
      vertex 2.29924 -17.4758 256.08
      vertex 2.90535 -17.1774 259.908
      vertex 2.94095 -17.3879 256.08
    endloop
  endfacet
  facet normal -0.135565 0.989205 -0.0556456
    outer loop
      vertex 2.90535 -17.1774 259.908
      vertex 2.29924 -17.4758 256.08
      vertex 1.82103 -17.326 259.908
    endloop
  endfacet
  facet normal -0.135239 0.987097 -0.0857305
    outer loop
      vertex 1.69038 -16.0829 277.744
      vertex 2.14774 -15.6506 282
      vertex 2.6969 -15.945 277.744
    endloop
  endfacet
  facet normal -0.376403 0.922481 -0.0857279
    outer loop
      vertex 5.63693 -15.1572 277.744
      vertex 5.5092 -14.8138 282
      vertex 5.96529 -14.6277 282
    endloop
  endfacet
  facet normal -0.31835 0.945744 -0.0649787
    outer loop
      vertex 6.07261 -16.3288 259.908
      vertex 4.86431 -16.1114 268.992
      vertex 5.86635 -15.7741 268.992
    endloop
  endfacet
  facet normal -0.543473 0.836909 -0.0649665
    outer loop
      vertex 9.02476 -14.9016 259.908
      vertex 8.71822 -14.3955 268.992
      vertex 9.60491 -13.8197 268.992
    endloop
  endfacet
  facet normal -0.691076 0.720635 -0.0556604
    outer loop
      vertex 12.2675 -12.657 256.08
      vertex 11.6572 -12.9466 259.908
      vertex 12.4471 -12.1891 259.908
    endloop
  endfacet
  facet normal -0.691057 0.720654 -0.0556559
    outer loop
      vertex 11.6572 -12.9466 259.908
      vertex 12.2675 -12.657 256.08
      vertex 11.8 -13.1053 256.08
    endloop
  endfacet
  facet normal -0.595325 0.801554 -0.0556619
    outer loop
      vertex 10.5845 -14.0947 256.08
      vertex 9.94263 -14.3056 259.908
      vertex 10.8213 -13.653 259.908
    endloop
  endfacet
  facet normal -0.595314 0.801563 -0.0556596
    outer loop
      vertex 9.94263 -14.3056 259.908
      vertex 10.5845 -14.0947 256.08
      vertex 10.0645 -14.4809 256.08
    endloop
  endfacet
  facet normal -0.433635 0.897001 -0.0857318
    outer loop
      vertex 7.49219 -14.3312 277.744
      vertex 6.87892 -14.2209 282
      vertex 7.32242 -14.0065 282
    endloop
  endfacet
  facet normal -0.258475 0.964413 -0.0556619
    outer loop
      vertex 4.02694 -17.169 256.08
      vertex 5.03534 -16.6778 259.908
      vertex 5.09704 -16.8822 256.08
    endloop
  endfacet
  facet normal -0.25845 0.964419 -0.0556693
    outer loop
      vertex 5.03534 -16.6778 259.908
      vertex 4.02694 -17.169 256.08
      vertex 3.97819 -16.9611 259.908
    endloop
  endfacet
  facet normal -0.734045 0.674952 -0.0749547
    outer loop
      vertex 12.74 -10.9968 268.992
      vertex 11.5541 -11.3146 277.744
      vertex 12.2417 -10.5668 277.744
    endloop
  endfacet
  facet normal -0.689547 0.719148 -0.0857408
    outer loop
      vertex 11.5541 -11.3146 277.744
      vertex 10.5756 -11.7454 282
      vertex 11.2923 -11.0582 282
    endloop
  endfacet
  facet normal -0.848585 0.526124 -0.0556521
    outer loop
      vertex 15.0298 -9.20852 256.08
      vertex 14.5107 -9.64086 259.908
      vertex 15.0874 -8.7107 259.908
    endloop
  endfacet
  facet normal -0.848584 0.526126 -0.0556517
    outer loop
      vertex 14.5107 -9.64086 259.908
      vertex 15.0298 -9.20852 256.08
      vertex 14.6885 -9.759 256.08
    endloop
  endfacet
  facet normal -0.643647 0.761643 -0.0749522
    outer loop
      vertex 11.2612 -12.5069 268.992
      vertex 10.4537 -13.1893 268.992
      vertex 10.8208 -12.0178 277.744
    endloop
  endfacet
  facet normal -0.434284 0.89843 -0.0649714
    outer loop
      vertex 8.07127 -15.4389 259.908
      vertex 7.08592 -15.9152 259.908
      vertex 7.79711 -14.9145 268.992
    endloop
  endfacet
  facet normal -0.643089 0.760977 -0.0857412
    outer loop
      vertex 10.0449 -12.6735 277.744
      vertex 10.1994 -12.0634 282
      vertex 10.8208 -12.0178 277.744
    endloop
  endfacet
  facet normal -0.690203 0.719724 -0.0749504
    outer loop
      vertex 12.0243 -11.7751 268.992
      vertex 11.2612 -12.5069 268.992
      vertex 11.5541 -11.3146 277.744
    endloop
  endfacet
  facet normal -0.542628 0.835586 -0.0857396
    outer loop
      vertex 9.02016 -12.9783 282
      vertex 9.22929 -13.2792 277.744
      vertex 8.37727 -13.8325 277.744
    endloop
  endfacet
  facet normal -0.735011 0.675767 -0.055655
    outer loop
      vertex 13.3495 -11.523 256.08
      vertex 13.0381 -11.8617 256.08
      vertex 13.1879 -11.3835 259.908
    endloop
  endfacet
  facet normal -0.774968 0.627539 -0.0749553
    outer loop
      vertex 12.74 -10.9968 268.992
      vertex 12.2417 -10.5668 277.744
      vertex 13.4053 -10.1752 268.992
    endloop
  endfacet
  facet normal -0.775513 0.62798 -0.0649705
    outer loop
      vertex 13.1879 -11.3835 259.908
      vertex 12.74 -10.9968 268.992
      vertex 13.4053 -10.1752 268.992
    endloop
  endfacet
  facet normal -0.135357 0.987957 -0.0749577
    outer loop
      vertex 1.75918 -16.7375 268.992
      vertex 1.69038 -16.0829 277.744
      vertex 2.6969 -15.945 277.744
    endloop
  endfacet
  facet normal -0.135306 0.987087 -0.0857385
    outer loop
      vertex 2.6969 -15.945 277.744
      vertex 2.14774 -15.6506 282
      vertex 2.63579 -15.5837 282
    endloop
  endfacet
  facet normal -0.318119 0.945083 -0.0749557
    outer loop
      vertex 4.86431 -16.1114 268.992
      vertex 4.67408 -15.4813 277.744
      vertex 5.63693 -15.1572 277.744
    endloop
  endfacet
  facet normal -0.317834 0.944263 -0.0857297
    outer loop
      vertex 4.67408 -15.4813 277.744
      vertex 5.03504 -14.9734 282
      vertex 5.5092 -14.8138 282
    endloop
  endfacet
  facet normal -0.317744 0.944292 -0.0857408
    outer loop
      vertex 4.67408 -15.4813 277.744
      vertex 4.56816 -15.1305 282
      vertex 5.03504 -14.9734 282
    endloop
  endfacet
  facet normal -0.0730019 0.994511 -0.0749577
    outer loop
      vertex 1.75918 -16.7375 268.992
      vertex 0.704753 -16.8149 268.992
      vertex 1.69038 -16.0829 277.744
    endloop
  endfacet
  facet normal -0.135346 0.987959 -0.074959
    outer loop
      vertex 2.80666 -16.594 268.992
      vertex 1.75918 -16.7375 268.992
      vertex 2.6969 -15.945 277.744
    endloop
  endfacet
  facet normal -0.010331 0.996264 -0.0857356
    outer loop
      vertex 0.677191 -16.1573 277.744
      vertex 3.29922e-07 -16.0404 279.184
      vertex 0.661847 -15.7912 282
    endloop
  endfacet
  facet normal -0.0104453 0.996259 -0.0857889
    outer loop
      vertex 3.29922e-07 -16.0404 279.184
      vertex 0.677191 -16.1573 277.744
      vertex 3.2928e-07 -16.1644 277.744
    endloop
  endfacet
  facet normal -0.377102 0.92389 -0.0649783
    outer loop
      vertex 6.07261 -16.3288 259.908
      vertex 5.86635 -15.7741 268.992
      vertex 7.08592 -15.9152 259.908
    endloop
  endfacet
  facet normal -0.257828 0.962379 -0.0857405
    outer loop
      vertex 3.69277 -15.7442 277.744
      vertex 4.56816 -15.1305 282
      vertex 4.67408 -15.4813 277.744
    endloop
  endfacet
  facet normal -0.257886 0.962365 -0.0857267
    outer loop
      vertex 4.56816 -15.1305 282
      vertex 3.69277 -15.7442 277.744
      vertex 3.6091 -15.3875 282
    endloop
  endfacet
  facet normal -0.376571 0.92241 -0.0857498
    outer loop
      vertex 6.57754 -14.7734 277.744
      vertex 5.96529 -14.6277 282
      vertex 6.42849 -14.4386 282
    endloop
  endfacet
  facet normal -0.433553 0.897039 -0.0857495
    outer loop
      vertex 6.57754 -14.7734 277.744
      vertex 6.42849 -14.4386 282
      vertex 6.87892 -14.2209 282
    endloop
  endfacet
  facet normal -0.376403 0.922481 -0.085728
    outer loop
      vertex 5.63693 -15.1572 277.744
      vertex 5.96529 -14.6277 282
      vertex 6.57754 -14.7734 277.744
    endloop
  endfacet
  facet normal -0.434349 0.898399 -0.064963
    outer loop
      vertex 7.08592 -15.9152 259.908
      vertex 6.84524 -15.3747 268.992
      vertex 7.79711 -14.9145 268.992
    endloop
  endfacet
  facet normal -0.543442 0.836928 -0.0649708
    outer loop
      vertex 9.94263 -14.3056 259.908
      vertex 9.02476 -14.9016 259.908
      vertex 9.60491 -13.8197 268.992
    endloop
  endfacet
  facet normal -0.690191 0.719735 -0.0749523
    outer loop
      vertex 11.2612 -12.5069 268.992
      vertex 10.8208 -12.0178 277.744
      vertex 11.5541 -11.3146 277.744
    endloop
  endfacet
  facet normal -0.774154 0.627162 -0.0857509
    outer loop
      vertex 12.2417 -10.5668 277.744
      vertex 11.9643 -10.3273 282
      vertex 12.2744 -9.94452 282
    endloop
  endfacet
  facet normal -0.644513 0.762565 -0.055653
    outer loop
      vertex 10.9539 -13.8203 256.08
      vertex 10.8213 -13.653 259.908
      vertex 11.3053 -13.5233 256.08
    endloop
  endfacet
  facet normal -0.595384 0.801512 -0.0556533
    outer loop
      vertex 10.9539 -13.8203 256.08
      vertex 10.5845 -14.0947 256.08
      vertex 10.8213 -13.653 259.908
    endloop
  endfacet
  facet normal -0.59499 0.801103 -0.0649702
    outer loop
      vertex 10.8213 -13.653 259.908
      vertex 9.94263 -14.3056 259.908
      vertex 10.4537 -13.1893 268.992
    endloop
  endfacet
  facet normal -0.644409 0.762653 -0.0556569
    outer loop
      vertex 11.3053 -13.5233 256.08
      vertex 11.6572 -12.9466 259.908
      vertex 11.8 -13.1053 256.08
    endloop
  endfacet
  facet normal -0.644463 0.762608 -0.0556452
    outer loop
      vertex 11.6572 -12.9466 259.908
      vertex 11.3053 -13.5233 256.08
      vertex 10.8213 -13.653 259.908
    endloop
  endfacet
  facet normal -0.689589 0.719106 -0.0857546
    outer loop
      vertex 10.8208 -12.0178 277.744
      vertex 10.5756 -11.7454 282
      vertex 11.5541 -11.3146 277.744
    endloop
  endfacet
  facet normal -0.643182 0.760896 -0.0857557
    outer loop
      vertex 10.8208 -12.0178 277.744
      vertex 10.1994 -12.0634 282
      vertex 10.5756 -11.7454 282
    endloop
  endfacet
  facet normal -0.847515 0.525453 -0.0749529
    outer loop
      vertex 14.0178 -9.31339 268.992
      vertex 13.4696 -8.94917 277.744
      vertex 14.5749 -8.41483 268.992
    endloop
  endfacet
  facet normal -0.812816 0.577679 -0.0749529
    outer loop
      vertex 14.0178 -9.31339 268.992
      vertex 13.4053 -10.1752 268.992
      vertex 13.4696 -8.94917 277.744
    endloop
  endfacet
  facet normal -0.84811 0.525821 -0.0649748
    outer loop
      vertex 15.0874 -8.7107 259.908
      vertex 14.0178 -9.31339 268.992
      vertex 14.5749 -8.41483 268.992
    endloop
  endfacet
  facet normal -0.846782 0.524985 -0.0857392
    outer loop
      vertex 13.4696 -8.94917 277.744
      vertex 13.428 -8.32119 282
      vertex 14.0049 -8.08575 277.744
    endloop
  endfacet
  facet normal -0.846751 0.525036 -0.0857322
    outer loop
      vertex 14.0049 -8.08575 277.744
      vertex 13.428 -8.32119 282
      vertex 13.6876 -7.90252 282
    endloop
  endfacet
  facet normal -0.3184 0.946322 -0.0556477
    outer loop
      vertex 5.71091 -16.6756 256.08
      vertex 5.03534 -16.6778 259.908
      vertex 6.07261 -16.3288 259.908
    endloop
  endfacet
  facet normal -0.318479 0.946294 -0.0556616
    outer loop
      vertex 5.03534 -16.6778 259.908
      vertex 5.71091 -16.6756 256.08
      vertex 5.09704 -16.8822 256.08
    endloop
  endfacet
  facet normal -0.196798 0.976689 -0.0857263
    outer loop
      vertex 3.69277 -15.7442 277.744
      vertex 3.12621 -15.4848 282
      vertex 3.6091 -15.3875 282
    endloop
  endfacet
  facet normal -0.0728881 0.993648 -0.0857324
    outer loop
      vertex 1.69038 -16.0829 277.744
      vertex 1.15313 -15.7551 282
      vertex 1.65208 -15.7185 282
    endloop
  endfacet
  facet normal -0.0730283 0.994509 -0.0749545
    outer loop
      vertex 0.704753 -16.8149 268.992
      vertex 0.677191 -16.1573 277.744
      vertex 1.69038 -16.0829 277.744
    endloop
  endfacet
  facet normal -0.0105378 0.998395 -0.0556415
    outer loop
      vertex 0.278346 -17.6242 256.08
      vertex 3.22813e-07 -17.4138 259.908
      vertex 0.729533 -17.4061 259.908
    endloop
  endfacet
  facet normal -0.010402 0.998397 -0.0556317
    outer loop
      vertex 3.22813e-07 -17.4138 259.908
      vertex 0.278346 -17.6242 256.08
      vertex 3.21708e-07 -17.6271 256.08
    endloop
  endfacet
  facet normal -0.0104152 0.998396 -0.0556559
    outer loop
      vertex 0.738472 -17.6194 256.08
      vertex 0.278346 -17.6242 256.08
      vertex 0.729533 -17.4061 259.908
    endloop
  endfacet
  facet normal -0.0103864 0.996265 -0.0857227
    outer loop
      vertex 3.29922e-07 -16.0404 279.184
      vertex 3.31176e-07 -15.7981 282
      vertex 0.661847 -15.7912 282
    endloop
  endfacet
  facet normal -0.01047 0.997131 -0.0749662
    outer loop
      vertex 0.704753 -16.8149 268.992
      vertex 3.25875e-07 -16.8223 268.992
      vertex 3.28175e-07 -16.3779 274.903
    endloop
  endfacet
  facet normal -0.0729646 0.993642 -0.0857416
    outer loop
      vertex 0.677191 -16.1573 277.744
      vertex 1.15313 -15.7551 282
      vertex 1.69038 -16.0829 277.744
    endloop
  endfacet
  facet normal -0.0730137 0.993639 -0.0857358
    outer loop
      vertex 0.677191 -16.1573 277.744
      vertex 0.661847 -15.7912 282
      vertex 1.15313 -15.7551 282
    endloop
  endfacet
  facet normal -0.0730532 0.99521 -0.0649713
    outer loop
      vertex 1.82103 -17.326 259.908
      vertex 0.704753 -16.8149 268.992
      vertex 1.75918 -16.7375 268.992
    endloop
  endfacet
  facet normal -0.197261 0.978196 -0.0649656
    outer loop
      vertex 2.90535 -17.1774 259.908
      vertex 2.80666 -16.594 268.992
      vertex 3.84307 -16.385 268.992
    endloop
  endfacet
  facet normal -0.135489 0.988647 -0.0649656
    outer loop
      vertex 2.90535 -17.1774 259.908
      vertex 1.82103 -17.326 259.908
      vertex 2.80666 -16.594 268.992
    endloop
  endfacet
  facet normal -0.376731 0.923285 -0.0749568
    outer loop
      vertex 6.84524 -15.3747 268.992
      vertex 5.63693 -15.1572 277.744
      vertex 6.57754 -14.7734 277.744
    endloop
  endfacet
  facet normal -0.434043 0.897768 -0.0749567
    outer loop
      vertex 6.84524 -15.3747 268.992
      vertex 6.57754 -14.7734 277.744
      vertex 7.79711 -14.9145 268.992
    endloop
  endfacet
  facet normal -0.594985 0.801106 -0.0649709
    outer loop
      vertex 9.94263 -14.3056 259.908
      vertex 9.60491 -13.8197 268.992
      vertex 10.4537 -13.1893 268.992
    endloop
  endfacet
  facet normal -0.434599 0.898902 -0.0556719
    outer loop
      vertex 7.17275 -16.1103 256.08
      vertex 7.08592 -15.9152 259.908
      vertex 7.58704 -15.91 256.08
    endloop
  endfacet
  facet normal -0.490188 0.869838 -0.0556537
    outer loop
      vertex 8.57106 -15.4022 256.08
      vertex 9.02476 -14.9016 259.908
      vertex 9.13535 -15.0842 256.08
    endloop
  endfacet
  facet normal -0.490168 0.869849 -0.0556576
    outer loop
      vertex 9.02476 -14.9016 259.908
      vertex 8.57106 -15.4022 256.08
      vertex 8.07127 -15.4389 259.908
    endloop
  endfacet
  facet normal -0.543775 0.837384 -0.0556537
    outer loop
      vertex 9.13535 -15.0842 256.08
      vertex 9.02476 -14.9016 259.908
      vertex 9.52126 -14.8336 256.08
    endloop
  endfacet
  facet normal -0.542652 0.835571 -0.085733
    outer loop
      vertex 8.37727 -13.8325 277.744
      vertex 8.18744 -13.5191 282
      vertex 9.02016 -12.9783 282
    endloop
  endfacet
  facet normal -0.489086 0.868012 -0.0857326
    outer loop
      vertex 8.37727 -13.8325 277.744
      vertex 7.32242 -14.0065 282
      vertex 8.18744 -13.5191 282
    endloop
  endfacet
  facet normal -0.594013 0.799873 -0.0857468
    outer loop
      vertex 10.0449 -12.6735 277.744
      vertex 9.22929 -13.2792 277.744
      vertex 9.81727 -12.3863 282
    endloop
  endfacet
  facet normal -0.594038 0.799855 -0.0857395
    outer loop
      vertex 9.22929 -13.2792 277.744
      vertex 9.02016 -12.9783 282
      vertex 9.81727 -12.3863 282
    endloop
  endfacet
  facet normal -0.774327 0.62695 -0.0857441
    outer loop
      vertex 12.8811 -9.77727 277.744
      vertex 12.2744 -9.94452 282
      vertex 12.5892 -9.55572 282
    endloop
  endfacet
  facet normal -0.848556 0.52617 -0.0556587
    outer loop
      vertex 15.2723 -8.81744 256.08
      vertex 15.0298 -9.20852 256.08
      vertex 15.0874 -8.7107 259.908
    endloop
  endfacet
  facet normal -0.775919 0.628373 -0.0556548
    outer loop
      vertex 13.3495 -11.523 256.08
      vertex 13.1879 -11.3835 259.908
      vertex 13.6391 -11.1654 256.08
    endloop
  endfacet
  facet normal -0.847521 0.525443 -0.0749543
    outer loop
      vertex 14.5749 -8.41483 268.992
      vertex 13.4696 -8.94917 277.744
      vertex 14.0049 -8.08575 277.744
    endloop
  endfacet
  facet normal -0.813386 0.578084 -0.0649739
    outer loop
      vertex 14.5107 -9.64086 259.908
      vertex 13.4053 -10.1752 268.992
      vertex 14.0178 -9.31339 268.992
    endloop
  endfacet
  facet normal -0.846789 0.524974 -0.0857376
    outer loop
      vertex 13.4696 -8.94917 277.744
      vertex 13.1644 -8.74638 282
      vertex 13.428 -8.32119 282
    endloop
  endfacet
  facet normal -0.812111 0.577169 -0.0857379
    outer loop
      vertex 13.4696 -8.94917 277.744
      vertex 12.5892 -9.55572 282
      vertex 13.1644 -8.74638 282
    endloop
  endfacet
  facet normal -0.258304 0.963877 -0.0649623
    outer loop
      vertex 3.97819 -16.9611 259.908
      vertex 4.86431 -16.1114 268.992
      vertex 5.03534 -16.6778 259.908
    endloop
  endfacet
  facet normal -0.258237 0.963895 -0.0649706
    outer loop
      vertex 4.86431 -16.1114 268.992
      vertex 3.97819 -16.9611 259.908
      vertex 3.84307 -16.385 268.992
    endloop
  endfacet
  facet normal -0.377315 0.924412 -0.0556496
    outer loop
      vertex 6.74671 -16.2841 256.08
      vertex 6.07261 -16.3288 259.908
      vertex 7.08592 -15.9152 259.908
    endloop
  endfacet
  facet normal -0.377354 0.924395 -0.0556568
    outer loop
      vertex 6.07261 -16.3288 259.908
      vertex 6.74671 -16.2841 256.08
      vertex 6.14703 -16.5289 256.08
    endloop
  endfacet
  facet normal -0.318327 0.946346 -0.0556567
    outer loop
      vertex 6.14703 -16.5289 256.08
      vertex 5.71091 -16.6756 256.08
      vertex 6.07261 -16.3288 259.908
    endloop
  endfacet
  facet normal -0.073034 0.995211 -0.064969
    outer loop
      vertex 0.729533 -17.4061 259.908
      vertex 0.704753 -16.8149 268.992
      vertex 1.82103 -17.326 259.908
    endloop
  endfacet
  facet normal -0.0730752 0.995772 -0.0556571
    outer loop
      vertex 1.38443 -17.572 256.08
      vertex 0.729533 -17.4061 259.908
      vertex 1.82103 -17.326 259.908
    endloop
  endfacet
  facet normal -0.0730692 0.995773 -0.0556561
    outer loop
      vertex 0.729533 -17.4061 259.908
      vertex 1.38443 -17.572 256.08
      vertex 0.738472 -17.6194 256.08
    endloop
  endfacet
  facet normal -0.0104774 0.997832 -0.0649716
    outer loop
      vertex 3.23857e-07 -17.212 263.007
      vertex 3.25875e-07 -16.8223 268.992
      vertex 0.704753 -16.8149 268.992
    endloop
  endfacet
  facet normal -0.197243 0.978773 -0.0556567
    outer loop
      vertex 2.94095 -17.3879 256.08
      vertex 2.90535 -17.1774 259.908
      vertex 3.39202 -17.297 256.08
    endloop
  endfacet
  facet normal -0.489891 0.869359 -0.0649714
    outer loop
      vertex 8.07127 -15.4389 259.908
      vertex 7.79711 -14.9145 268.992
      vertex 9.02476 -14.9016 259.908
    endloop
  endfacet
  facet normal -0.489853 0.869381 -0.0649662
    outer loop
      vertex 9.02476 -14.9016 259.908
      vertex 7.79711 -14.9145 268.992
      vertex 8.71822 -14.3955 268.992
    endloop
  endfacet
  facet normal -0.489509 0.868771 -0.0749561
    outer loop
      vertex 8.71822 -14.3955 268.992
      vertex 7.79711 -14.9145 268.992
      vertex 8.37727 -13.8325 277.744
    endloop
  endfacet
  facet normal -0.433661 0.896988 -0.0857352
    outer loop
      vertex 6.57754 -14.7734 277.744
      vertex 6.87892 -14.2209 282
      vertex 7.49219 -14.3312 277.744
    endloop
  endfacet
  facet normal -0.594568 0.800544 -0.0749572
    outer loop
      vertex 9.60491 -13.8197 268.992
      vertex 9.22929 -13.2792 277.744
      vertex 10.4537 -13.1893 268.992
    endloop
  endfacet
  facet normal -0.543703 0.83743 -0.055659
    outer loop
      vertex 9.52126 -14.8336 256.08
      vertex 9.94263 -14.3056 259.908
      vertex 10.0645 -14.4809 256.08
    endloop
  endfacet
  facet normal -0.543749 0.837401 -0.05565
    outer loop
      vertex 9.94263 -14.3056 259.908
      vertex 9.52126 -14.8336 256.08
      vertex 9.02476 -14.9016 259.908
    endloop
  endfacet
  facet normal -0.377136 0.924483 -0.0556723
    outer loop
      vertex 7.17275 -16.1103 256.08
      vertex 6.74671 -16.2841 256.08
      vertex 7.08592 -15.9152 259.908
    endloop
  endfacet
  facet normal -0.434039 0.89777 -0.0749562
    outer loop
      vertex 7.79711 -14.9145 268.992
      vertex 6.57754 -14.7734 277.744
      vertex 7.49219 -14.3312 277.744
    endloop
  endfacet
  facet normal -0.48951 0.86877 -0.074956
    outer loop
      vertex 7.79711 -14.9145 268.992
      vertex 7.49219 -14.3312 277.744
      vertex 8.37727 -13.8325 277.744
    endloop
  endfacet
  facet normal -0.489084 0.868013 -0.0857321
    outer loop
      vertex 7.49219 -14.3312 277.744
      vertex 7.32242 -14.0065 282
      vertex 8.37727 -13.8325 277.744
    endloop
  endfacet
  facet normal -0.644099 0.762178 -0.0649706
    outer loop
      vertex 10.8213 -13.653 259.908
      vertex 10.4537 -13.1893 268.992
      vertex 11.6572 -12.9466 259.908
    endloop
  endfacet
  facet normal -0.644099 0.762178 -0.0649706
    outer loop
      vertex 11.6572 -12.9466 259.908
      vertex 10.4537 -13.1893 268.992
      vertex 11.2612 -12.5069 268.992
    endloop
  endfacet
  facet normal -0.543101 0.836315 -0.0749575
    outer loop
      vertex 9.60491 -13.8197 268.992
      vertex 8.37727 -13.8325 277.744
      vertex 9.22929 -13.2792 277.744
    endloop
  endfacet
  facet normal -0.543091 0.836321 -0.0749561
    outer loop
      vertex 8.71822 -14.3955 268.992
      vertex 8.37727 -13.8325 277.744
      vertex 9.60491 -13.8197 268.992
    endloop
  endfacet
  facet normal 0.499998 0.866027 -1.50014e-06
    outer loop
      vertex 14.0049 -8.08575 277.744
      vertex 15.2084 -8.78058 282
      vertex 15.561 -8.98416 277.744
    endloop
  endfacet
  facet normal 0.500011 0.866019 -6.38838e-06
    outer loop
      vertex 15.2084 -8.78058 282
      vertex 14.0049 -8.08575 277.744
      vertex 13.6876 -7.90252 282
    endloop
  endfacet
  facet normal 0.500008 0.866021 -6.58453e-07
    outer loop
      vertex 14.5749 -8.41483 268.992
      vertex 15.561 -8.98416 277.744
      vertex 16.1943 -9.34981 268.992
    endloop
  endfacet
  facet normal 0.499998 0.866027 7.82916e-07
    outer loop
      vertex 15.561 -8.98416 277.744
      vertex 14.5749 -8.41483 268.992
      vertex 14.0049 -8.08575 277.744
    endloop
  endfacet
  facet normal 0.499996 0.866028 4.53645e-06
    outer loop
      vertex 15.0874 -8.7107 259.908
      vertex 16.1943 -9.34981 268.992
      vertex 16.7638 -9.67856 259.908
    endloop
  endfacet
  facet normal 0.500008 0.866021 2.67107e-06
    outer loop
      vertex 16.1943 -9.34981 268.992
      vertex 15.0874 -8.7107 259.908
      vertex 14.5749 -8.41483 268.992
    endloop
  endfacet
  facet normal 0.500005 0.866022 -2.38006e-06
    outer loop
      vertex 15.2723 -8.81744 256.08
      vertex 16.7638 -9.67856 259.908
      vertex 16.9692 -9.79716 256.08
    endloop
  endfacet
  facet normal 0.499996 0.866028 2.48016e-06
    outer loop
      vertex 16.7638 -9.67856 259.908
      vertex 15.2723 -8.81744 256.08
      vertex 15.0874 -8.7107 259.908
    endloop
  endfacet
  facet normal -1 5.17622e-09 -1.80983e-13
    outer loop
      vertex 3.13958e-07 -19.1244 263.007
      vertex 3.23857e-07 -17.212 263.007
      vertex 3.22813e-07 -17.4138 259.908
    endloop
  endfacet
  facet normal -1 5.17615e-09 -6.39168e-14
    outer loop
      vertex 3.21388e-07 -17.6891 280.582
      vertex 3.31176e-07 -15.7981 282
      vertex 3.29922e-07 -16.0404 279.184
    endloop
  endfacet
  facet normal -1 5.1765e-09 7.8879e-14
    outer loop
      vertex 3.19983e-07 -17.9604 277.744
      vertex 3.29922e-07 -16.0404 279.184
      vertex 3.2928e-07 -16.1644 277.744
    endloop
  endfacet
  facet normal -1 5.1765e-09 -6.4577e-14
    outer loop
      vertex 3.19983e-07 -17.9604 277.744
      vertex 3.2928e-07 -16.1644 277.744
      vertex 3.28175e-07 -16.3779 274.903
    endloop
  endfacet
  facet normal -1 5.17679e-09 -9.59935e-14
    outer loop
      vertex 3.17494e-07 -18.4412 271.988
      vertex 3.28175e-07 -16.3779 274.903
      vertex 3.25875e-07 -16.8223 268.992
    endloop
  endfacet
  facet normal -1 5.17622e-09 -5.05517e-14
    outer loop
      vertex 3.16199e-07 -18.6914 268.992
      vertex 3.23857e-07 -17.212 263.007
      vertex 3.13958e-07 -19.1244 263.007
    endloop
  endfacet
  facet normal -1 5.17676e-09 2.0809e-13
    outer loop
      vertex 3.12797e-07 -19.3486 259.908
      vertex 3.22813e-07 -17.4138 259.908
      vertex 3.21708e-07 -17.6271 256.08
    endloop
  endfacet
  facet normal -1 5.17603e-09 9.20794e-14
    outer loop
      vertex 3.31176e-07 -15.7981 282
      vertex 3.21388e-07 -17.6891 280.582
      vertex 3.2209e-07 -17.5535 282
    endloop
  endfacet
  facet normal -1 5.17639e-09 2.27211e-13
    outer loop
      vertex 3.29922e-07 -16.0404 279.184
      vertex 3.19983e-07 -17.9604 277.744
      vertex 3.21388e-07 -17.6891 280.582
    endloop
  endfacet
  facet normal -1 5.17664e-09 1.23057e-14
    outer loop
      vertex 3.28175e-07 -16.3779 274.903
      vertex 3.17494e-07 -18.4412 271.988
      vertex 3.19983e-07 -17.9604 277.744
    endloop
  endfacet
  facet normal -1 5.17682e-09 -8.04847e-14
    outer loop
      vertex 3.25875e-07 -16.8223 268.992
      vertex 3.16199e-07 -18.6914 268.992
      vertex 3.17494e-07 -18.4412 271.988
    endloop
  endfacet
  facet normal -1 5.17682e-09 9.89222e-14
    outer loop
      vertex 3.23857e-07 -17.212 263.007
      vertex 3.16199e-07 -18.6914 268.992
      vertex 3.25875e-07 -16.8223 268.992
    endloop
  endfacet
  facet normal -1 5.17676e-09 1.19347e-13
    outer loop
      vertex 3.22813e-07 -17.4138 259.908
      vertex 3.12797e-07 -19.3486 259.908
      vertex 3.13958e-07 -19.1244 263.007
    endloop
  endfacet
  facet normal -1 5.17615e-09 -6.90362e-14
    outer loop
      vertex 3.12797e-07 -19.3486 259.908
      vertex 3.21708e-07 -17.6271 256.08
      vertex 3.1157e-07 -19.5857 256.08
    endloop
  endfacet
endsolid OpenSCAD_Model
