solid OpenSCAD_Model
  facet normal 0 0 1
    outer loop
      vertex -1.04951 -19.4987 178.32
      vertex 0 -21.7019 178.32
      vertex 0 -19.5317 178.32
    endloop
  endfacet
  facet normal 0 0 1
    outer loop
      vertex -1.04951 -19.4987 178.32
      vertex -1.16612 -21.6652 178.32
      vertex 0 -21.7019 178.32
    endloop
  endfacet
  facet normal 0 0 1
    outer loop
      vertex -1.2264 -19.4931 178.32
      vertex -1.16612 -21.6652 178.32
      vertex -1.04951 -19.4987 178.32
    endloop
  endfacet
  facet normal 0 0 1
    outer loop
      vertex -1.2264 -19.4931 178.32
      vertex -1.36267 -21.6591 178.32
      vertex -1.16612 -21.6652 178.32
    endloop
  endfacet
  facet normal 0 0 1
    outer loop
      vertex -1.55845 -21.6405 178.32
      vertex -1.2264 -19.4931 178.32
      vertex -1.4026 -19.4765 178.32
    endloop
  endfacet
  facet normal 0 0 1
    outer loop
      vertex -1.2264 -19.4931 178.32
      vertex -1.55845 -21.6405 178.32
      vertex -1.36267 -21.6591 178.32
    endloop
  endfacet
  facet normal 0 0 1
    outer loop
      vertex -2.44797 -19.3777 178.32
      vertex -1.55845 -21.6405 178.32
      vertex -1.4026 -19.4765 178.32
    endloop
  endfacet
  facet normal 0 0 1
    outer loop
      vertex -2.44797 -19.3777 178.32
      vertex -2.71997 -21.5308 178.32
      vertex -1.55845 -21.6405 178.32
    endloop
  endfacet
  facet normal 0 0 1
    outer loop
      vertex -3.48507 -19.2134 178.32
      vertex -2.71997 -21.5308 178.32
      vertex -2.44797 -19.3777 178.32
    endloop
  endfacet
  facet normal 0 0 1
    outer loop
      vertex -3.8723 -21.3482 178.32
      vertex -3.48507 -19.2134 178.32
      vertex -3.65987 -19.1857 178.32
    endloop
  endfacet
  facet normal 0 0 1
    outer loop
      vertex -4.25844 -21.2746 178.32
      vertex -3.65987 -19.1857 178.32
      vertex -3.83259 -19.1471 178.32
    endloop
  endfacet
  facet normal 0 0 1
    outer loop
      vertex -3.48507 -19.2134 178.32
      vertex -3.8723 -21.3482 178.32
      vertex -2.71997 -21.5308 178.32
    endloop
  endfacet
  facet normal 0 0 1
    outer loop
      vertex -3.65987 -19.1857 178.32
      vertex -4.06653 -21.3175 178.32
      vertex -3.8723 -21.3482 178.32
    endloop
  endfacet
  facet normal 0 0 1
    outer loop
      vertex -3.65987 -19.1857 178.32
      vertex -4.25844 -21.2746 178.32
      vertex -4.06653 -21.3175 178.32
    endloop
  endfacet
  facet normal 0 0 1
    outer loop
      vertex -4.85733 -18.9181 178.32
      vertex -4.25844 -21.2746 178.32
      vertex -3.83259 -19.1471 178.32
    endloop
  endfacet
  facet normal 0 0 1
    outer loop
      vertex -5.58588 -20.9652 178.32
      vertex -4.85733 -18.9181 178.32
      vertex -5.02729 -18.8687 178.32
    endloop
  endfacet
  facet normal 0 0 1
    outer loop
      vertex -4.85733 -18.9181 178.32
      vertex -5.39704 -21.0201 178.32
      vertex -4.25844 -21.2746 178.32
    endloop
  endfacet
  facet normal 0 0 1
    outer loop
      vertex -4.85733 -18.9181 178.32
      vertex -5.58588 -20.9652 178.32
      vertex -5.39704 -21.0201 178.32
    endloop
  endfacet
  facet normal 0 0 1
    outer loop
      vertex -6.03562 -18.5757 178.32
      vertex -5.58588 -20.9652 178.32
      vertex -5.02729 -18.8687 178.32
    endloop
  endfacet
  facet normal 0 0 1
    outer loop
      vertex -6.70625 -20.6397 178.32
      vertex -6.03562 -18.5757 178.32
      vertex -6.20214 -18.5158 178.32
    endloop
  endfacet
  facet normal 0 0 1
    outer loop
      vertex -6.03562 -18.5757 178.32
      vertex -6.70625 -20.6397 178.32
      vertex -5.58588 -20.9652 178.32
    endloop
  endfacet
  facet normal 0 0 1
    outer loop
      vertex -7.80397 -20.2445 178.32
      vertex -6.20214 -18.5158 178.32
      vertex -7.19009 -18.1601 178.32
    endloop
  endfacet
  facet normal 0 0 1
    outer loop
      vertex -7.98899 -20.1779 178.32
      vertex -7.19009 -18.1601 178.32
      vertex -7.35252 -18.0898 178.32
    endloop
  endfacet
  facet normal 0 0 1
    outer loop
      vertex -6.20214 -18.5158 178.32
      vertex -7.80397 -20.2445 178.32
      vertex -6.70625 -20.6397 178.32
    endloop
  endfacet
  facet normal 0 0 1
    outer loop
      vertex -7.19009 -18.1601 178.32
      vertex -7.98899 -20.1779 178.32
      vertex -7.80397 -20.2445 178.32
    endloop
  endfacet
  facet normal 0 0 1
    outer loop
      vertex -9.05973 -19.7145 178.32
      vertex -7.35252 -18.0898 178.32
      vertex -8.31619 -17.6728 178.32
    endloop
  endfacet
  facet normal 0 0 1
    outer loop
      vertex -7.35252 -18.0898 178.32
      vertex -9.05973 -19.7145 178.32
      vertex -7.98899 -20.1779 178.32
    endloop
  endfacet
  facet normal 0 0 1
    outer loop
      vertex -8.31619 -17.6728 178.32
      vertex -9.24021 -19.6364 178.32
      vertex -9.05973 -19.7145 178.32
    endloop
  endfacet
  facet normal 0 0 1
    outer loop
      vertex -9.41542 -19.5472 178.32
      vertex -8.31619 -17.6728 178.32
      vertex -9.25177 -17.1961 178.32
    endloop
  endfacet
  facet normal 0 0 1
    outer loop
      vertex -10.455 -19.0175 178.32
      vertex -9.25177 -17.1961 178.32
      vertex -9.40946 -17.1157 178.32
    endloop
  endfacet
  facet normal 0 0 1
    outer loop
      vertex -8.31619 -17.6728 178.32
      vertex -9.41542 -19.5472 178.32
      vertex -9.24021 -19.6364 178.32
    endloop
  endfacet
  facet normal 0 0 1
    outer loop
      vertex -10.455 -19.0175 178.32
      vertex -9.40946 -17.1157 178.32
      vertex -10.3133 -16.5812 178.32
    endloop
  endfacet
  facet normal 0 0 1
    outer loop
      vertex -9.25177 -17.1961 178.32
      vertex -10.455 -19.0175 178.32
      vertex -9.41542 -19.5472 178.32
    endloop
  endfacet
  facet normal 0 0 1
    outer loop
      vertex -11.4592 -18.4236 178.32
      vertex -10.3133 -16.5812 178.32
      vertex -10.4656 -16.4911 178.32
    endloop
  endfacet
  facet normal 0 0 1
    outer loop
      vertex -11.7911 -18.213 178.32
      vertex -10.4656 -16.4911 178.32
      vertex -10.612 -16.3917 178.32
    endloop
  endfacet
  facet normal 0 0 1
    outer loop
      vertex -10.3133 -16.5812 178.32
      vertex -11.4592 -18.4236 178.32
      vertex -10.455 -19.0175 178.32
    endloop
  endfacet
  facet normal 0 0 1
    outer loop
      vertex -11.7911 -18.213 178.32
      vertex -10.612 -16.3917 178.32
      vertex -11.4804 -15.8015 178.32
    endloop
  endfacet
  facet normal 0 0 1
    outer loop
      vertex -10.4656 -16.4911 178.32
      vertex -11.6284 -18.3235 178.32
      vertex -11.4592 -18.4236 178.32
    endloop
  endfacet
  facet normal 0 0 1
    outer loop
      vertex -10.4656 -16.4911 178.32
      vertex -11.7911 -18.213 178.32
      vertex -11.6284 -18.3235 178.32
    endloop
  endfacet
  facet normal 0 0 1
    outer loop
      vertex -12.756 -17.5572 178.32
      vertex -11.4804 -15.8015 178.32
      vertex -12.3101 -15.1579 178.32
    endloop
  endfacet
  facet normal 0 0 1
    outer loop
      vertex -13.6779 -16.8421 178.32
      vertex -12.3101 -15.1579 178.32
      vertex -12.45 -15.0494 178.32
    endloop
  endfacet
  facet normal 0 0 1
    outer loop
      vertex -13.9808 -16.5915 178.32
      vertex -12.45 -15.0494 178.32
      vertex -12.5827 -14.9324 178.32
    endloop
  endfacet
  facet normal 0 0 1
    outer loop
      vertex -11.4804 -15.8015 178.32
      vertex -12.756 -17.5572 178.32
      vertex -11.7911 -18.213 178.32
    endloop
  endfacet
  facet normal 0 0 1
    outer loop
      vertex -13.9808 -16.5915 178.32
      vertex -12.5827 -14.9324 178.32
      vertex -13.3704 -14.238 178.32
    endloop
  endfacet
  facet normal 0 0 1
    outer loop
      vertex -12.3101 -15.1579 178.32
      vertex -13.6779 -16.8421 178.32
      vertex -12.756 -17.5572 178.32
    endloop
  endfacet
  facet normal 0 0 1
    outer loop
      vertex -12.45 -15.0494 178.32
      vertex -13.8333 -16.7216 178.32
      vertex -13.6779 -16.8421 178.32
    endloop
  endfacet
  facet normal 0 0 1
    outer loop
      vertex -12.45 -15.0494 178.32
      vertex -13.9808 -16.5915 178.32
      vertex -13.8333 -16.7216 178.32
    endloop
  endfacet
  facet normal 0 0 1
    outer loop
      vertex -14.856 -15.82 178.32
      vertex -13.3704 -14.238 178.32
      vertex -14.238 -13.3704 178.32
    endloop
  endfacet
  facet normal 0 0 1
    outer loop
      vertex -13.3704 -14.238 178.32
      vertex -14.856 -15.82 178.32
      vertex -13.9808 -16.5915 178.32
    endloop
  endfacet
  facet normal 0 0 1
    outer loop
      vertex -15.82 -14.856 178.32
      vertex -14.238 -13.3704 178.32
      vertex -14.9324 -12.5827 178.32
    endloop
  endfacet
  facet normal 0 0 1
    outer loop
      vertex -16.5915 -13.9808 178.32
      vertex -14.9324 -12.5827 178.32
      vertex -15.0494 -12.45 178.32
    endloop
  endfacet
  facet normal 0 0 1
    outer loop
      vertex -16.8421 -13.6779 178.32
      vertex -15.0494 -12.45 178.32
      vertex -15.1579 -12.3101 178.32
    endloop
  endfacet
  facet normal 0 0 1
    outer loop
      vertex -16.8421 -13.6779 178.32
      vertex -15.1579 -12.3101 178.32
      vertex -15.8015 -11.4804 178.32
    endloop
  endfacet
  facet normal 0 0 1
    outer loop
      vertex -14.238 -13.3704 178.32
      vertex -15.82 -14.856 178.32
      vertex -14.856 -15.82 178.32
    endloop
  endfacet
  facet normal 0 0 1
    outer loop
      vertex -17.5572 -12.756 178.32
      vertex -15.8015 -11.4804 178.32
      vertex -16.3917 -10.612 178.32
    endloop
  endfacet
  facet normal 0 0 1
    outer loop
      vertex -18.213 -11.7911 178.32
      vertex -16.3917 -10.612 178.32
      vertex -16.4911 -10.4656 178.32
    endloop
  endfacet
  facet normal 0 0 1
    outer loop
      vertex -18.4236 -11.4592 178.32
      vertex -16.4911 -10.4656 178.32
      vertex -16.5812 -10.3133 178.32
    endloop
  endfacet
  facet normal 0 0 1
    outer loop
      vertex -14.9324 -12.5827 178.32
      vertex -16.5915 -13.9808 178.32
      vertex -15.82 -14.856 178.32
    endloop
  endfacet
  facet normal 0 0 1
    outer loop
      vertex -15.0494 -12.45 178.32
      vertex -16.7216 -13.8333 178.32
      vertex -16.5915 -13.9808 178.32
    endloop
  endfacet
  facet normal 0 0 1
    outer loop
      vertex -15.0494 -12.45 178.32
      vertex -16.8421 -13.6779 178.32
      vertex -16.7216 -13.8333 178.32
    endloop
  endfacet
  facet normal 0 0 1
    outer loop
      vertex -18.7861 -10.8462 178.32
      vertex -16.5812 -10.3133 178.32
      vertex -16.9075 -9.76156 178.32
    endloop
  endfacet
  facet normal 0 0 1
    outer loop
      vertex -15.8015 -11.4804 178.32
      vertex -17.5572 -12.756 178.32
      vertex -16.8421 -13.6779 178.32
    endloop
  endfacet
  facet normal 0 0 1
    outer loop
      vertex -16.3917 -10.612 178.32
      vertex -18.213 -11.7911 178.32
      vertex -17.5572 -12.756 178.32
    endloop
  endfacet
  facet normal 0 0 1
    outer loop
      vertex -16.4911 -10.4656 178.32
      vertex -18.3235 -11.6284 178.32
      vertex -18.213 -11.7911 178.32
    endloop
  endfacet
  facet normal 0 0 1
    outer loop
      vertex -16.4911 -10.4656 178.32
      vertex -18.4236 -11.4592 178.32
      vertex -18.3235 -11.6284 178.32
    endloop
  endfacet
  facet normal 0 0 1
    outer loop
      vertex -16.5812 -10.3133 178.32
      vertex -18.7861 -10.8462 178.32
      vertex -18.4236 -11.4592 178.32
    endloop
  endfacet
  facet normal 0 0 -1
    outer loop
      vertex -0.88756 -21.2591 152.4
      vertex 0 -19.1583 152.4
      vertex 0 -21.287 152.4
    endloop
  endfacet
  facet normal -0 0 -1
    outer loop
      vertex 0 -19.1583 152.4
      vertex -0.88756 -21.2591 152.4
      vertex -0.798804 -19.1332 152.4
    endloop
  endfacet
  facet normal 0 0 -1
    outer loop
      vertex -0.88756 -21.2591 152.4
      vertex -1.20296 -19.1205 152.4
      vertex -0.798804 -19.1332 152.4
    endloop
  endfacet
  facet normal 0 0 -1
    outer loop
      vertex -1.33662 -21.245 152.4
      vertex -1.20296 -19.1205 152.4
      vertex -0.88756 -21.2591 152.4
    endloop
  endfacet
  facet normal 0 0 -1
    outer loop
      vertex -1.78391 -21.2027 152.4
      vertex -1.20296 -19.1205 152.4
      vertex -1.33662 -21.245 152.4
    endloop
  endfacet
  facet normal -0 0 -1
    outer loop
      vertex -1.20296 -19.1205 152.4
      vertex -1.78391 -21.2027 152.4
      vertex -1.60552 -19.0825 152.4
    endloop
  endfacet
  facet normal 0 0 -1
    outer loop
      vertex -1.78391 -21.2027 152.4
      vertex -2.40117 -19.0073 152.4
      vertex -1.60552 -19.0825 152.4
    endloop
  endfacet
  facet normal 0 0 -1
    outer loop
      vertex -2.66797 -21.1192 152.4
      vertex -2.40117 -19.0073 152.4
      vertex -1.78391 -21.2027 152.4
    endloop
  endfacet
  facet normal 0 0 -1
    outer loop
      vertex -3.54504 -20.9803 152.4
      vertex -2.40117 -19.0073 152.4
      vertex -2.66797 -21.1192 152.4
    endloop
  endfacet
  facet normal -0 0 -1
    outer loop
      vertex -2.40117 -19.0073 152.4
      vertex -3.54504 -20.9803 152.4
      vertex -3.19053 -18.8822 152.4
    endloop
  endfacet
  facet normal 0 0 -1
    outer loop
      vertex -3.54504 -20.9803 152.4
      vertex -3.58991 -18.819 152.4
      vertex -3.19053 -18.8822 152.4
    endloop
  endfacet
  facet normal 0 0 -1
    outer loop
      vertex -3.98879 -20.91 152.4
      vertex -3.58991 -18.819 152.4
      vertex -3.54504 -20.9803 152.4
    endloop
  endfacet
  facet normal 0 0 -1
    outer loop
      vertex -4.8554 -20.7163 152.4
      vertex -3.58991 -18.819 152.4
      vertex -3.98879 -20.91 152.4
    endloop
  endfacet
  facet normal -0 0 -1
    outer loop
      vertex -3.58991 -18.819 152.4
      vertex -4.8554 -20.7163 152.4
      vertex -4.36986 -18.6446 152.4
    endloop
  endfacet
  facet normal -0 0 -1
    outer loop
      vertex -4.36986 -18.6446 152.4
      vertex -4.8554 -20.7163 152.4
      vertex -4.76448 -18.5564 152.4
    endloop
  endfacet
  facet normal 0 0 -1
    outer loop
      vertex -5.29387 -20.6183 152.4
      vertex -4.76448 -18.5564 152.4
      vertex -4.8554 -20.7163 152.4
    endloop
  endfacet
  facet normal 0 0 -1
    outer loop
      vertex -5.72531 -20.4929 152.4
      vertex -4.76448 -18.5564 152.4
      vertex -5.29387 -20.6183 152.4
    endloop
  endfacet
  facet normal -0 0 -1
    outer loop
      vertex -4.76448 -18.5564 152.4
      vertex -5.72531 -20.4929 152.4
      vertex -5.15278 -18.4436 152.4
    endloop
  endfacet
  facet normal 0 0 -1
    outer loop
      vertex -5.72531 -20.4929 152.4
      vertex -5.92025 -18.2206 152.4
      vertex -5.15278 -18.4436 152.4
    endloop
  endfacet
  facet normal 0 0 -1
    outer loop
      vertex -6.57805 -20.2452 152.4
      vertex -5.92025 -18.2206 152.4
      vertex -5.72531 -20.4929 152.4
    endloop
  endfacet
  facet normal 0 0 -1
    outer loop
      vertex -7.41355 -19.9444 152.4
      vertex -5.92025 -18.2206 152.4
      vertex -6.57805 -20.2452 152.4
    endloop
  endfacet
  facet normal -0 0 -1
    outer loop
      vertex -5.92025 -18.2206 152.4
      vertex -7.41355 -19.9444 152.4
      vertex -6.6722 -17.9499 152.4
    endloop
  endfacet
  facet normal -0 0 -1
    outer loop
      vertex -6.6722 -17.9499 152.4
      vertex -7.41355 -19.9444 152.4
      vertex -7.05265 -17.813 152.4
    endloop
  endfacet
  facet normal 0 0 -1
    outer loop
      vertex -7.83628 -19.7922 152.4
      vertex -7.05265 -17.813 152.4
      vertex -7.41355 -19.9444 152.4
    endloop
  endfacet
  facet normal 0 0 -1
    outer loop
      vertex -8.24861 -19.6137 152.4
      vertex -7.05265 -17.813 152.4
      vertex -7.83628 -19.7922 152.4
    endloop
  endfacet
  facet normal -0 0 -1
    outer loop
      vertex -7.05265 -17.813 152.4
      vertex -8.24861 -19.6137 152.4
      vertex -7.42375 -17.6524 152.4
    endloop
  endfacet
  facet normal -0 0 -1
    outer loop
      vertex -7.42375 -17.6524 152.4
      vertex -8.24861 -19.6137 152.4
      vertex -8.15722 -17.335 152.4
    endloop
  endfacet
  facet normal 0 0 -1
    outer loop
      vertex -9.06358 -19.2611 152.4
      vertex -8.15722 -17.335 152.4
      vertex -8.24861 -19.6137 152.4
    endloop
  endfacet
  facet normal 0 0 -1
    outer loop
      vertex -9.85479 -18.8579 152.4
      vertex -8.15722 -17.335 152.4
      vertex -9.06358 -19.2611 152.4
    endloop
  endfacet
  facet normal -0 0 -1
    outer loop
      vertex -8.15722 -17.335 152.4
      vertex -9.85479 -18.8579 152.4
      vertex -8.86931 -16.9721 152.4
    endloop
  endfacet
  facet normal -0 0 -1
    outer loop
      vertex -8.86931 -16.9721 152.4
      vertex -9.85479 -18.8579 152.4
      vertex -9.22959 -16.7886 152.4
    endloop
  endfacet
  facet normal 0 0 -1
    outer loop
      vertex -10.2551 -18.654 152.4
      vertex -9.22959 -16.7886 152.4
      vertex -9.85479 -18.8579 152.4
    endloop
  endfacet
  facet normal 0 0 -1
    outer loop
      vertex -10.6418 -18.4253 152.4
      vertex -9.22959 -16.7886 152.4
      vertex -10.2551 -18.654 152.4
    endloop
  endfacet
  facet normal -0 0 -1
    outer loop
      vertex -9.22959 -16.7886 152.4
      vertex -10.6418 -18.4253 152.4
      vertex -9.9175 -16.3817 152.4
    endloop
  endfacet
  facet normal 0 0 -1
    outer loop
      vertex -11.4062 -17.9732 152.4
      vertex -9.9175 -16.3817 152.4
      vertex -10.6418 -18.4253 152.4
    endloop
  endfacet
  facet normal -0 0 -1
    outer loop
      vertex -9.9175 -16.3817 152.4
      vertex -11.4062 -17.9732 152.4
      vertex -10.2655 -16.1759 152.4
    endloop
  endfacet
  facet normal 0 0 -1
    outer loop
      vertex -11.7778 -17.7207 152.4
      vertex -10.2655 -16.1759 152.4
      vertex -11.4062 -17.9732 152.4
    endloop
  endfacet
  facet normal -0 0 -1
    outer loop
      vertex -10.2655 -16.1759 152.4
      vertex -11.7778 -17.7207 152.4
      vertex -10.6 -15.9486 152.4
    endloop
  endfacet
  facet normal -0 0 -1
    outer loop
      vertex -10.6 -15.9486 152.4
      vertex -11.7778 -17.7207 152.4
      vertex -11.261 -15.4994 152.4
    endloop
  endfacet
  facet normal 0 0 -1
    outer loop
      vertex -12.5122 -17.2216 152.4
      vertex -11.261 -15.4994 152.4
      vertex -11.7778 -17.7207 152.4
    endloop
  endfacet
  facet normal 0 0 -1
    outer loop
      vertex -13.2139 -16.6773 152.4
      vertex -11.261 -15.4994 152.4
      vertex -12.5122 -17.2216 152.4
    endloop
  endfacet
  facet normal -0 0 -1
    outer loop
      vertex -11.261 -15.4994 152.4
      vertex -13.2139 -16.6773 152.4
      vertex -11.8925 -15.0096 152.4
    endloop
  endfacet
  facet normal -0 0 -1
    outer loop
      vertex -11.8925 -15.0096 152.4
      vertex -13.2139 -16.6773 152.4
      vertex -12.212 -14.7617 152.4
    endloop
  endfacet
  facet normal 0 0 -1
    outer loop
      vertex -13.5689 -16.4019 152.4
      vertex -12.212 -14.7617 152.4
      vertex -13.2139 -16.6773 152.4
    endloop
  endfacet
  facet normal 0 0 -1
    outer loop
      vertex -13.9059 -16.1048 152.4
      vertex -12.212 -14.7617 152.4
      vertex -13.5689 -16.4019 152.4
    endloop
  endfacet
  facet normal -0 0 -1
    outer loop
      vertex -12.212 -14.7617 152.4
      vertex -13.9059 -16.1048 152.4
      vertex -12.8115 -14.2332 152.4
    endloop
  endfacet
  facet normal 0 0 -1
    outer loop
      vertex -14.572 -15.5176 152.4
      vertex -12.8115 -14.2332 152.4
      vertex -13.9059 -16.1048 152.4
    endloop
  endfacet
  facet normal -0 0 -1
    outer loop
      vertex -12.8115 -14.2332 152.4
      vertex -14.572 -15.5176 152.4
      vertex -13.1148 -13.9658 152.4
    endloop
  endfacet
  facet normal -0 0 -1
    outer loop
      vertex -13.1148 -13.9658 152.4
      vertex -14.572 -15.5176 152.4
      vertex -13.9658 -13.1148 152.4
    endloop
  endfacet
  facet normal 0 0 -1
    outer loop
      vertex -15.5176 -14.572 152.4
      vertex -13.9658 -13.1148 152.4
      vertex -14.572 -15.5176 152.4
    endloop
  endfacet
  facet normal -0 0 -1
    outer loop
      vertex -13.9658 -13.1148 152.4
      vertex -15.5176 -14.572 152.4
      vertex -14.2332 -12.8115 152.4
    endloop
  endfacet
  facet normal 0 0 -1
    outer loop
      vertex -16.1048 -13.9059 152.4
      vertex -14.2332 -12.8115 152.4
      vertex -15.5176 -14.572 152.4
    endloop
  endfacet
  facet normal -0 0 -1
    outer loop
      vertex -14.2332 -12.8115 152.4
      vertex -16.1048 -13.9059 152.4
      vertex -14.7617 -12.212 152.4
    endloop
  endfacet
  facet normal 0 0 -1
    outer loop
      vertex -16.4019 -13.5689 152.4
      vertex -14.7617 -12.212 152.4
      vertex -16.1048 -13.9059 152.4
    endloop
  endfacet
  facet normal 0 0 -1
    outer loop
      vertex -16.6773 -13.2139 152.4
      vertex -14.7617 -12.212 152.4
      vertex -16.4019 -13.5689 152.4
    endloop
  endfacet
  facet normal -0 0 -1
    outer loop
      vertex -14.7617 -12.212 152.4
      vertex -16.6773 -13.2139 152.4
      vertex -15.0096 -11.8925 152.4
    endloop
  endfacet
  facet normal -0 0 -1
    outer loop
      vertex -15.0096 -11.8925 152.4
      vertex -16.6773 -13.2139 152.4
      vertex -15.4994 -11.261 152.4
    endloop
  endfacet
  facet normal 0 0 -1
    outer loop
      vertex -17.2216 -12.5122 152.4
      vertex -15.4994 -11.261 152.4
      vertex -16.6773 -13.2139 152.4
    endloop
  endfacet
  facet normal 0 0 -1
    outer loop
      vertex -17.7207 -11.7778 152.4
      vertex -15.4994 -11.261 152.4
      vertex -17.2216 -12.5122 152.4
    endloop
  endfacet
  facet normal -0 0 -1
    outer loop
      vertex -15.4994 -11.261 152.4
      vertex -17.7207 -11.7778 152.4
      vertex -15.9486 -10.6 152.4
    endloop
  endfacet
  facet normal -0 0 -1
    outer loop
      vertex -15.9486 -10.6 152.4
      vertex -17.7207 -11.7778 152.4
      vertex -16.1759 -10.2655 152.4
    endloop
  endfacet
  facet normal 0 0 -1
    outer loop
      vertex -17.9732 -11.4062 152.4
      vertex -16.1759 -10.2655 152.4
      vertex -17.7207 -11.7778 152.4
    endloop
  endfacet
  facet normal -0 0 -1
    outer loop
      vertex -16.1759 -10.2655 152.4
      vertex -17.9732 -11.4062 152.4
      vertex -16.3817 -9.9175 152.4
    endloop
  endfacet
  facet normal 0 0 -1
    outer loop
      vertex -18.4253 -10.6418 152.4
      vertex -16.3817 -9.9175 152.4
      vertex -17.9732 -11.4062 152.4
    endloop
  endfacet
  facet normal -0 0 -1
    outer loop
      vertex -16.3817 -9.9175 152.4
      vertex -18.4253 -10.6418 152.4
      vertex -16.5843 -9.57496 152.4
    endloop
  endfacet
  facet normal 0 0 -1
    outer loop
      vertex -16.5843 -9.57496 152.4
      vertex -18.4253 -10.6418 152.4
      vertex -18.427 -10.6388 152.4
    endloop
  endfacet
  facet normal -0.0313756 -0.999369 -0.0166209
    outer loop
      vertex -1.34733 -21.4152 159.188
      vertex 0 -21.4575 159.188
      vertex -1.35807 -21.5859 169.472
    endloop
  endfacet
  facet normal -0.278997 -0.960256 -0.00827669
    outer loop
      vertex -5.37881 -20.9491 169.472
      vertex -5.58588 -20.9652 178.32
      vertex -6.6836 -20.57 169.472
    endloop
  endfacet
  facet normal -0.279155 -0.96021 -0.00828028
    outer loop
      vertex -5.58588 -20.9652 178.32
      vertex -5.37881 -20.9491 169.472
      vertex -5.39704 -21.0201 178.32
    endloop
  endfacet
  facet normal -0.561914 -0.826815 -0.0250925
    outer loop
      vertex -11.7778 -17.7207 152.4
      vertex -11.4975 -18.1172 159.188
      vertex -12.6124 -17.3595 159.188
    endloop
  endfacet
  facet normal -0.561847 -0.82686 -0.0250979
    outer loop
      vertex -11.4975 -18.1172 159.188
      vertex -11.7778 -17.7207 152.4
      vertex -11.4062 -17.9732 152.4
    endloop
  endfacet
  facet normal -0.278858 -0.960005 -0.0250898
    outer loop
      vertex -6.57805 -20.2452 152.4
      vertex -5.72531 -20.4929 152.4
      vertex -6.63074 -20.4073 159.188
    endloop
  endfacet
  facet normal -0.860454 -0.50891 -0.0250985
    outer loop
      vertex -18.4253 -10.6418 152.4
      vertex -17.9732 -11.4062 152.4
      vertex -18.1172 -11.4975 159.188
    endloop
  endfacet
  facet normal -0.218063 -0.975612 -0.0251005
    outer loop
      vertex -4.8554 -20.7163 152.4
      vertex -3.98879 -20.91 152.4
      vertex -4.02074 -21.0775 159.188
    endloop
  endfacet
  facet normal -0.0314552 -0.999471 -0.00827997
    outer loop
      vertex -1.16612 -21.6652 178.32
      vertex 0 -21.6286 169.472
      vertex 0 -21.7019 178.32
    endloop
  endfacet
  facet normal -0.15637 -0.98738 -0.0250895
    outer loop
      vertex -3.54504 -20.9803 152.4
      vertex -2.66797 -21.1192 152.4
      vertex -2.68934 -21.2883 159.188
    endloop
  endfacet
  facet normal -0.15636 -0.98756 -0.0166201
    outer loop
      vertex -4.02074 -21.0775 159.188
      vertex -2.68934 -21.2883 159.188
      vertex -4.05279 -21.2455 169.472
    endloop
  endfacet
  facet normal -0.82686 -0.561847 -0.0250979
    outer loop
      vertex -17.7207 -11.7778 152.4
      vertex -18.1172 -11.4975 159.188
      vertex -17.9732 -11.4062 152.4
    endloop
  endfacet
  facet normal -0.826815 -0.561914 -0.0250925
    outer loop
      vertex -18.1172 -11.4975 159.188
      vertex -17.7207 -11.7778 152.4
      vertex -17.3595 -12.6124 159.188
    endloop
  endfacet
  facet normal -0.562013 -0.826961 -0.0166229
    outer loop
      vertex -12.6124 -17.3595 159.188
      vertex -11.4975 -18.1172 159.188
      vertex -11.5892 -18.2616 169.472
    endloop
  endfacet
  facet normal -0.508971 -0.860623 -0.0166226
    outer loop
      vertex -11.4975 -18.1172 159.188
      vertex -10.3372 -18.8034 159.188
      vertex -10.4196 -18.9533 169.472
    endloop
  endfacet
  facet normal -0.749881 -0.661097 -0.0250927
    outer loop
      vertex -16.1048 -13.9059 152.4
      vertex -16.5333 -13.6775 159.188
      vertex -16.4019 -13.5689 152.4
    endloop
  endfacet
  facet normal -0.749909 -0.661065 -0.0250956
    outer loop
      vertex -16.5333 -13.6775 159.188
      vertex -16.1048 -13.9059 152.4
      vertex -15.6419 -14.6887 159.188
    endloop
  endfacet
  facet normal -0.869748 -0.492857 -0.0251054
    outer loop
      vertex -18.4253 -10.6418 152.4
      vertex -18.5746 -10.7241 159.188
      vertex -18.427 -10.6388 152.4
    endloop
  endfacet
  facet normal -0.860465 -0.508891 -0.0250956
    outer loop
      vertex -18.5746 -10.7241 159.188
      vertex -18.4253 -10.6418 152.4
      vertex -18.1172 -11.4975 159.188
    endloop
  endfacet
  facet normal -0.826961 -0.562013 -0.0166229
    outer loop
      vertex -18.1172 -11.4975 159.188
      vertex -17.3595 -12.6124 159.188
      vertex -18.2616 -11.5892 169.472
    endloop
  endfacet
  facet normal -0.0313736 -0.999192 -0.0251029
    outer loop
      vertex -0.88756 -21.2591 152.4
      vertex -1.34733 -21.4152 159.188
      vertex -1.33662 -21.245 152.4
    endloop
  endfacet
  facet normal -0.0313701 -0.999193 -0.0251027
    outer loop
      vertex -1.34733 -21.4152 159.188
      vertex -0.88756 -21.2591 152.4
      vertex 0 -21.4575 159.188
    endloop
  endfacet
  facet normal -0.0941267 -0.995421 -0.0166209
    outer loop
      vertex -2.68934 -21.2883 159.188
      vertex -1.34733 -21.4152 159.188
      vertex -1.35807 -21.5859 169.472
    endloop
  endfacet
  facet normal -0.508971 -0.860623 -0.0166226
    outer loop
      vertex -11.4975 -18.1172 159.188
      vertex -10.4196 -18.9533 169.472
      vertex -11.5892 -18.2616 169.472
    endloop
  endfacet
  facet normal -0.706884 -0.706884 -0.0250971
    outer loop
      vertex -14.572 -15.5176 152.4
      vertex -15.6419 -14.6887 159.188
      vertex -15.5176 -14.572 152.4
    endloop
  endfacet
  facet normal -0.706884 -0.706884 -0.0250971
    outer loop
      vertex -15.6419 -14.6887 159.188
      vertex -14.572 -15.5176 152.4
      vertex -14.6887 -15.6419 159.188
    endloop
  endfacet
  facet normal -0.749901 -0.661074 -0.0250972
    outer loop
      vertex -16.1048 -13.9059 152.4
      vertex -15.5176 -14.572 152.4
      vertex -15.6419 -14.6887 159.188
    endloop
  endfacet
  facet normal -0.218113 -0.975782 -0.0166202
    outer loop
      vertex -5.37881 -20.9491 169.472
      vertex -4.02074 -21.0775 159.188
      vertex -4.05279 -21.2455 169.472
    endloop
  endfacet
  facet normal -0.0940025 -0.995256 -0.0250894
    outer loop
      vertex -2.66797 -21.1192 152.4
      vertex -1.78391 -21.2027 152.4
      vertex -2.68934 -21.2883 159.188
    endloop
  endfacet
  facet normal -0.09411 -0.995245 -0.0251036
    outer loop
      vertex -1.78391 -21.2027 152.4
      vertex -1.34733 -21.4152 159.188
      vertex -2.68934 -21.2883 159.188
    endloop
  endfacet
  facet normal -0.0941198 -0.995244 -0.0251029
    outer loop
      vertex -1.34733 -21.4152 159.188
      vertex -1.78391 -21.2027 152.4
      vertex -1.33662 -21.245 152.4
    endloop
  endfacet
  facet normal -0.0314091 -0.999191 -0.0250975
    outer loop
      vertex -0.88756 -21.2591 152.4
      vertex 0 -21.287 152.4
      vertex 0 -21.4575 159.188
    endloop
  endfacet
  facet normal -0.0941279 -0.995526 -0.00827498
    outer loop
      vertex -1.35807 -21.5859 169.472
      vertex -1.55845 -21.6405 178.32
      vertex -2.71078 -21.458 169.472
    endloop
  endfacet
  facet normal -0.0945755 -0.995483 -0.00828486
    outer loop
      vertex -1.55845 -21.6405 178.32
      vertex -1.35807 -21.5859 169.472
      vertex -1.36267 -21.6591 178.32
    endloop
  endfacet
  facet normal -0.0941181 -0.995422 -0.016622
    outer loop
      vertex -2.68934 -21.2883 159.188
      vertex -1.35807 -21.5859 169.472
      vertex -2.71078 -21.458 169.472
    endloop
  endfacet
  facet normal -0.66127 -0.750102 -0.00827432
    outer loop
      vertex -13.7866 -16.6651 169.472
      vertex -13.9808 -16.5915 178.32
      vertex -14.8058 -15.7666 169.472
    endloop
  endfacet
  facet normal -0.661464 -0.749931 -0.00828
    outer loop
      vertex -13.9808 -16.5915 178.32
      vertex -13.7866 -16.6651 169.472
      vertex -13.8333 -16.7216 178.32
    endloop
  endfacet
  facet normal -0.612757 -0.790228 -0.00828025
    outer loop
      vertex -13.7866 -16.6651 169.472
      vertex -13.6779 -16.8421 178.32
      vertex -13.8333 -16.7216 178.32
    endloop
  endfacet
  facet normal -0.6129 -0.790117 -0.00827628
    outer loop
      vertex -13.6779 -16.8421 178.32
      vertex -13.7866 -16.6651 169.472
      vertex -12.713 -17.4979 169.472
    endloop
  endfacet
  facet normal -0.612887 -0.790128 -0.00827404
    outer loop
      vertex -13.6779 -16.8421 178.32
      vertex -12.713 -17.4979 169.472
      vertex -12.756 -17.5572 178.32
    endloop
  endfacet
  facet normal -0.789903 -0.612718 -0.0250916
    outer loop
      vertex -17.2216 -12.5122 152.4
      vertex -16.6773 -13.2139 152.4
      vertex -17.3595 -12.6124 159.188
    endloop
  endfacet
  facet normal -0.338724 -0.940849 -0.00827863
    outer loop
      vertex -7.80397 -20.2445 178.32
      vertex -6.6836 -20.57 169.472
      vertex -6.70625 -20.6397 178.32
    endloop
  endfacet
  facet normal -0.707083 -0.707083 -0.00827913
    outer loop
      vertex -14.8058 -15.7666 169.472
      vertex -15.82 -14.856 178.32
      vertex -15.7666 -14.8058 169.472
    endloop
  endfacet
  facet normal -0.707083 -0.707083 -0.00827913
    outer loop
      vertex -15.82 -14.856 178.32
      vertex -14.8058 -15.7666 169.472
      vertex -14.856 -15.82 178.32
    endloop
  endfacet
  facet normal -0.453957 -0.890985 -0.0082846
    outer loop
      vertex -9.209 -19.5701 169.472
      vertex -9.41542 -19.5472 178.32
      vertex -10.4196 -18.9533 169.472
    endloop
  endfacet
  facet normal -0.453676 -0.891128 -0.00827769
    outer loop
      vertex -9.41542 -19.5472 178.32
      vertex -9.209 -19.5701 169.472
      vertex -9.24021 -19.6364 178.32
    endloop
  endfacet
  facet normal -0.453727 -0.890787 -0.0250935
    outer loop
      vertex -9.85479 -18.8579 152.4
      vertex -10.3372 -18.8034 159.188
      vertex -10.2551 -18.654 152.4
    endloop
  endfacet
  facet normal -0.453874 -0.890712 -0.0251045
    outer loop
      vertex -10.3372 -18.8034 159.188
      vertex -9.85479 -18.8579 152.4
      vertex -9.13617 -19.4154 159.188
    endloop
  endfacet
  facet normal -0.790037 -0.612833 -0.016627
    outer loop
      vertex -17.3595 -12.6124 159.188
      vertex -16.5333 -13.6775 159.188
      vertex -17.4979 -12.713 169.472
    endloop
  endfacet
  facet normal -0.156503 -0.987643 -0.00828873
    outer loop
      vertex -3.8723 -21.3482 178.32
      vertex -2.71078 -21.458 169.472
      vertex -2.71997 -21.5308 178.32
    endloop
  endfacet
  facet normal -0.0940236 -0.995535 -0.00828877
    outer loop
      vertex -2.71078 -21.458 169.472
      vertex -1.55845 -21.6405 178.32
      vertex -2.71997 -21.5308 178.32
    endloop
  endfacet
  facet normal -0.156374 -0.987558 -0.0166221
    outer loop
      vertex -4.05279 -21.2455 169.472
      vertex -2.68934 -21.2883 159.188
      vertex -2.71078 -21.458 169.472
    endloop
  endfacet
  facet normal -0.156422 -0.987371 -0.0251005
    outer loop
      vertex -3.54504 -20.9803 152.4
      vertex -4.02074 -21.0775 159.188
      vertex -3.98879 -20.91 152.4
    endloop
  endfacet
  facet normal -0.156332 -0.987386 -0.0250945
    outer loop
      vertex -4.02074 -21.0775 159.188
      vertex -3.54504 -20.9803 152.4
      vertex -2.68934 -21.2883 159.188
    endloop
  endfacet
  facet normal -0.0314218 -0.999368 -0.016627
    outer loop
      vertex -1.35807 -21.5859 169.472
      vertex 0 -21.4575 159.188
      vertex 0 -21.6286 169.472
    endloop
  endfacet
  facet normal -0.0310194 -0.999484 -0.00828492
    outer loop
      vertex -1.35807 -21.5859 169.472
      vertex -1.16612 -21.6652 178.32
      vertex -1.36267 -21.6591 178.32
    endloop
  endfacet
  facet normal -0.0314251 -0.999472 -0.008276
    outer loop
      vertex -1.16612 -21.6652 178.32
      vertex -1.35807 -21.5859 169.472
      vertex 0 -21.6286 169.472
    endloop
  endfacet
  facet normal -0.707009 -0.707009 -0.0166234
    outer loop
      vertex -14.6887 -15.6419 159.188
      vertex -15.7666 -14.8058 169.472
      vertex -15.6419 -14.6887 159.188
    endloop
  endfacet
  facet normal -0.707009 -0.707009 -0.0166234
    outer loop
      vertex -15.7666 -14.8058 169.472
      vertex -14.6887 -15.6419 159.188
      vertex -14.8058 -15.7666 169.472
    endloop
  endfacet
  facet normal -0.397131 -0.917724 -0.00827753
    outer loop
      vertex -9.209 -19.5701 169.472
      vertex -9.05973 -19.7145 178.32
      vertex -9.24021 -19.6364 178.32
    endloop
  endfacet
  facet normal -0.397121 -0.917729 -0.00827777
    outer loop
      vertex -9.05973 -19.7145 178.32
      vertex -9.209 -19.5701 169.472
      vertex -7.96201 -20.1097 169.472
    endloop
  endfacet
  facet normal -0.826819 -0.561908 -0.0250916
    outer loop
      vertex -17.7207 -11.7778 152.4
      vertex -17.2216 -12.5122 152.4
      vertex -17.3595 -12.6124 159.188
    endloop
  endfacet
  facet normal -0.78987 -0.612761 -0.0250935
    outer loop
      vertex -16.5333 -13.6775 159.188
      vertex -16.6773 -13.2139 152.4
      vertex -16.4019 -13.5689 152.4
    endloop
  endfacet
  facet normal -0.789898 -0.612725 -0.0250905
    outer loop
      vertex -16.6773 -13.2139 152.4
      vertex -16.5333 -13.6775 159.188
      vertex -17.3595 -12.6124 159.188
    endloop
  endfacet
  facet normal -0.612836 -0.790035 -0.0166265
    outer loop
      vertex -13.6775 -16.5333 159.188
      vertex -12.713 -17.4979 169.472
      vertex -13.7866 -16.6651 169.472
    endloop
  endfacet
  facet normal -0.561989 -0.826978 -0.0166268
    outer loop
      vertex -12.6124 -17.3595 159.188
      vertex -11.5892 -18.2616 169.472
      vertex -12.713 -17.4979 169.472
    endloop
  endfacet
  facet normal -0.561908 -0.826819 -0.0250916
    outer loop
      vertex -12.5122 -17.2216 152.4
      vertex -11.7778 -17.7207 152.4
      vertex -12.6124 -17.3595 159.188
    endloop
  endfacet
  facet normal -0.612833 -0.790037 -0.016627
    outer loop
      vertex -13.6775 -16.5333 159.188
      vertex -12.6124 -17.3595 159.188
      vertex -12.713 -17.4979 169.472
    endloop
  endfacet
  facet normal -0.453909 -0.890893 -0.016616
    outer loop
      vertex -10.4196 -18.9533 169.472
      vertex -9.13617 -19.4154 159.188
      vertex -9.209 -19.5701 169.472
    endloop
  endfacet
  facet normal -0.39708 -0.917633 -0.0166158
    outer loop
      vertex -9.13617 -19.4154 159.188
      vertex -7.96201 -20.1097 169.472
      vertex -9.209 -19.5701 169.472
    endloop
  endfacet
  facet normal -0.612718 -0.789903 -0.0250916
    outer loop
      vertex -13.2139 -16.6773 152.4
      vertex -12.5122 -17.2216 152.4
      vertex -12.6124 -17.3595 159.188
    endloop
  endfacet
  facet normal -0.790128 -0.612887 -0.00827404
    outer loop
      vertex -17.4979 -12.713 169.472
      vertex -16.8421 -13.6779 178.32
      vertex -17.5572 -12.756 178.32
    endloop
  endfacet
  facet normal -0.661182 -0.750042 -0.0166234
    outer loop
      vertex -14.6887 -15.6419 159.188
      vertex -13.6775 -16.5333 159.188
      vertex -14.8058 -15.7666 169.472
    endloop
  endfacet
  facet normal -0.661202 -0.750024 -0.0166268
    outer loop
      vertex -14.8058 -15.7666 169.472
      vertex -13.6775 -16.5333 159.188
      vertex -13.7866 -16.6651 169.472
    endloop
  endfacet
  facet normal -0.749931 -0.661464 -0.00828
    outer loop
      vertex -16.6651 -13.7866 169.472
      vertex -16.5915 -13.9808 178.32
      vertex -16.7216 -13.8333 178.32
    endloop
  endfacet
  facet normal -0.750102 -0.66127 -0.00827432
    outer loop
      vertex -16.5915 -13.9808 178.32
      vertex -16.6651 -13.7866 169.472
      vertex -15.7666 -14.8058 169.472
    endloop
  endfacet
  facet normal -0.661245 -0.750125 -0.00827884
    outer loop
      vertex -14.8058 -15.7666 169.472
      vertex -13.9808 -16.5915 178.32
      vertex -14.856 -15.82 178.32
    endloop
  endfacet
  facet normal -0.509157 -0.860634 -0.00827669
    outer loop
      vertex -11.5892 -18.2616 169.472
      vertex -11.4592 -18.4236 178.32
      vertex -11.6284 -18.3235 178.32
    endloop
  endfacet
  facet normal -0.509024 -0.860712 -0.00828009
    outer loop
      vertex -11.4592 -18.4236 178.32
      vertex -11.5892 -18.2616 169.472
      vertex -10.4196 -18.9533 169.472
    endloop
  endfacet
  facet normal -0.509035 -0.860706 -0.00828178
    outer loop
      vertex -11.4592 -18.4236 178.32
      vertex -10.4196 -18.9533 169.472
      vertex -10.455 -19.0175 178.32
    endloop
  endfacet
  facet normal -0.790117 -0.6129 -0.00827628
    outer loop
      vertex -16.6651 -13.7866 169.472
      vertex -16.8421 -13.6779 178.32
      vertex -17.4979 -12.713 169.472
    endloop
  endfacet
  facet normal -0.790228 -0.612757 -0.00828025
    outer loop
      vertex -16.8421 -13.6779 178.32
      vertex -16.6651 -13.7866 169.472
      vertex -16.7216 -13.8333 178.32
    endloop
  endfacet
  facet normal -0.82703 -0.562096 -0.00827453
    outer loop
      vertex -18.213 -11.7911 178.32
      vertex -17.4979 -12.713 169.472
      vertex -17.5572 -12.756 178.32
    endloop
  endfacet
  facet normal -0.338647 -0.940579 -0.0250936
    outer loop
      vertex -7.41355 -19.9444 152.4
      vertex -7.89904 -19.9507 159.188
      vertex -7.83628 -19.7922 152.4
    endloop
  endfacet
  facet normal -0.338621 -0.940588 -0.0250917
    outer loop
      vertex -7.89904 -19.9507 159.188
      vertex -7.41355 -19.9444 152.4
      vertex -6.63074 -20.4073 159.188
    endloop
  endfacet
  facet normal -0.338633 -0.940584 -0.02509
    outer loop
      vertex -7.41355 -19.9444 152.4
      vertex -6.57805 -20.2452 152.4
      vertex -6.63074 -20.4073 159.188
    endloop
  endfacet
  facet normal -0.612761 -0.78987 -0.0250935
    outer loop
      vertex -13.2139 -16.6773 152.4
      vertex -13.6775 -16.5333 159.188
      vertex -13.5689 -16.4019 152.4
    endloop
  endfacet
  facet normal -0.612725 -0.789898 -0.0250905
    outer loop
      vertex -13.6775 -16.5333 159.188
      vertex -13.2139 -16.6773 152.4
      vertex -12.6124 -17.3595 159.188
    endloop
  endfacet
  facet normal -0.278983 -0.96026 -0.00827861
    outer loop
      vertex -6.6836 -20.57 169.472
      vertex -5.58588 -20.9652 178.32
      vertex -6.70625 -20.6397 178.32
    endloop
  endfacet
  facet normal -0.21813 -0.975885 -0.00828033
    outer loop
      vertex -5.37881 -20.9491 169.472
      vertex -4.25844 -21.2746 178.32
      vertex -5.39704 -21.0201 178.32
    endloop
  endfacet
  facet normal -0.4539 -0.890699 -0.0251007
    outer loop
      vertex -9.85479 -18.8579 152.4
      vertex -9.06358 -19.2611 152.4
      vertex -9.13617 -19.4154 159.188
    endloop
  endfacet
  facet normal -0.453954 -0.89087 -0.0166226
    outer loop
      vertex -10.3372 -18.8034 159.188
      vertex -9.13617 -19.4154 159.188
      vertex -10.4196 -18.9533 169.472
    endloop
  endfacet
  facet normal -0.750125 -0.661245 -0.00827884
    outer loop
      vertex -16.5915 -13.9808 178.32
      vertex -15.7666 -14.8058 169.472
      vertex -15.82 -14.856 178.32
    endloop
  endfacet
  facet normal -0.860617 -0.508981 -0.0166249
    outer loop
      vertex -18.5746 -10.7241 159.188
      vertex -18.1172 -11.4975 159.188
      vertex -18.6731 -10.7809 166.026
    endloop
  endfacet
  facet normal -0.860608 -0.508996 -0.0166226
    outer loop
      vertex -18.2616 -11.5892 169.472
      vertex -18.6731 -10.7809 166.026
      vertex -18.1172 -11.4975 159.188
    endloop
  endfacet
  facet normal -0.86063 -0.50896 -0.0166116
    outer loop
      vertex -18.6731 -10.7809 166.026
      vertex -18.2616 -11.5892 169.472
      vertex -18.7227 -10.8095 169.472
    endloop
  endfacet
  facet normal -0.156117 -0.987704 -0.00827981
    outer loop
      vertex -4.05279 -21.2455 169.472
      vertex -3.8723 -21.3482 178.32
      vertex -4.06653 -21.3175 178.32
    endloop
  endfacet
  facet normal -0.156391 -0.987661 -0.00827371
    outer loop
      vertex -3.8723 -21.3482 178.32
      vertex -4.05279 -21.2455 169.472
      vertex -2.71078 -21.458 169.472
    endloop
  endfacet
  facet normal -0.218135 -0.975883 -0.00827958
    outer loop
      vertex -4.05279 -21.2455 169.472
      vertex -4.25844 -21.2746 178.32
      vertex -5.37881 -20.9491 169.472
    endloop
  endfacet
  facet normal -0.21815 -0.97588 -0.00827992
    outer loop
      vertex -4.25844 -21.2746 178.32
      vertex -4.05279 -21.2455 169.472
      vertex -4.06653 -21.3175 178.32
    endloop
  endfacet
  facet normal -0.661065 -0.749909 -0.0250956
    outer loop
      vertex -13.9059 -16.1048 152.4
      vertex -13.6775 -16.5333 159.188
      vertex -14.6887 -15.6419 159.188
    endloop
  endfacet
  facet normal -0.661097 -0.749881 -0.0250927
    outer loop
      vertex -13.6775 -16.5333 159.188
      vertex -13.9059 -16.1048 152.4
      vertex -13.5689 -16.4019 152.4
    endloop
  endfacet
  facet normal -0.661074 -0.749901 -0.0250972
    outer loop
      vertex -14.572 -15.5176 152.4
      vertex -13.9059 -16.1048 152.4
      vertex -14.6887 -15.6419 159.188
    endloop
  endfacet
  facet normal -0.750024 -0.661202 -0.0166268
    outer loop
      vertex -16.5333 -13.6775 159.188
      vertex -15.7666 -14.8058 169.472
      vertex -16.6651 -13.7866 169.472
    endloop
  endfacet
  facet normal -0.750042 -0.661182 -0.0166234
    outer loop
      vertex -16.5333 -13.6775 159.188
      vertex -15.6419 -14.6887 159.188
      vertex -15.7666 -14.8058 169.472
    endloop
  endfacet
  facet normal -0.45398 -0.890973 -0.00828112
    outer loop
      vertex -10.4196 -18.9533 169.472
      vertex -9.41542 -19.5472 178.32
      vertex -10.455 -19.0175 178.32
    endloop
  endfacet
  facet normal -0.562096 -0.82703 -0.00827453
    outer loop
      vertex -12.713 -17.4979 169.472
      vertex -11.7911 -18.213 178.32
      vertex -12.756 -17.5572 178.32
    endloop
  endfacet
  facet normal -0.562047 -0.827064 -0.00828233
    outer loop
      vertex -11.5892 -18.2616 169.472
      vertex -11.7911 -18.213 178.32
      vertex -12.713 -17.4979 169.472
    endloop
  endfacet
  facet normal -0.561818 -0.82722 -0.00827624
    outer loop
      vertex -11.7911 -18.213 178.32
      vertex -11.5892 -18.2616 169.472
      vertex -11.6284 -18.3235 178.32
    endloop
  endfacet
  facet normal -0.218054 -0.975614 -0.0250912
    outer loop
      vertex -4.8554 -20.7163 152.4
      vertex -5.33627 -20.7834 159.188
      vertex -5.29387 -20.6183 152.4
    endloop
  endfacet
  facet normal -0.218106 -0.975602 -0.0250948
    outer loop
      vertex -5.33627 -20.7834 159.188
      vertex -4.8554 -20.7163 152.4
      vertex -4.02074 -21.0775 159.188
    endloop
  endfacet
  facet normal -0.218144 -0.975775 -0.0166244
    outer loop
      vertex -5.33627 -20.7834 159.188
      vertex -4.02074 -21.0775 159.188
      vertex -5.37881 -20.9491 169.472
    endloop
  endfacet
  facet normal -0.278968 -0.960156 -0.0166242
    outer loop
      vertex -6.63074 -20.4073 159.188
      vertex -5.37881 -20.9491 169.472
      vertex -6.6836 -20.57 169.472
    endloop
  endfacet
  facet normal -0.338681 -0.940755 -0.0166242
    outer loop
      vertex -7.89904 -19.9507 159.188
      vertex -6.63074 -20.4073 159.188
      vertex -6.6836 -20.57 169.472
    endloop
  endfacet
  facet normal -0.396989 -0.91748 -0.0251054
    outer loop
      vertex -8.24861 -19.6137 152.4
      vertex -7.89904 -19.9507 159.188
      vertex -9.13617 -19.4154 159.188
    endloop
  endfacet
  facet normal -0.397152 -0.91741 -0.0250935
    outer loop
      vertex -7.89904 -19.9507 159.188
      vertex -8.24861 -19.6137 152.4
      vertex -7.83628 -19.7922 152.4
    endloop
  endfacet
  facet normal -0.396957 -0.917494 -0.0251008
    outer loop
      vertex -9.06358 -19.2611 152.4
      vertex -8.24861 -19.6137 152.4
      vertex -9.13617 -19.4154 159.188
    endloop
  endfacet
  facet normal -0.397059 -0.917642 -0.0166188
    outer loop
      vertex -9.13617 -19.4154 159.188
      vertex -7.89904 -19.9507 159.188
      vertex -7.96201 -20.1097 169.472
    endloop
  endfacet
  facet normal -0.33872 -0.94074 -0.0166187
    outer loop
      vertex -7.89904 -19.9507 159.188
      vertex -6.6836 -20.57 169.472
      vertex -7.96201 -20.1097 169.472
    endloop
  endfacet
  facet normal -0.860729 -0.508996 -0.0082677
    outer loop
      vertex -18.7474 -10.8238 172.912
      vertex -18.4236 -11.4592 178.32
      vertex -18.7861 -10.8462 178.32
    endloop
  endfacet
  facet normal -0.860719 -0.509013 -0.00829612
    outer loop
      vertex -18.2616 -11.5892 169.472
      vertex -18.7474 -10.8238 172.912
      vertex -18.7227 -10.8095 169.472
    endloop
  endfacet
  facet normal -0.860681 -0.509077 -0.00827667
    outer loop
      vertex -18.3235 -11.6284 178.32
      vertex -18.7474 -10.8238 172.912
      vertex -18.2616 -11.5892 169.472
    endloop
  endfacet
  facet normal -0.860634 -0.509157 -0.00829242
    outer loop
      vertex -18.7474 -10.8238 172.912
      vertex -18.3235 -11.6284 178.32
      vertex -18.4236 -11.4592 178.32
    endloop
  endfacet
  facet normal -0.278918 -0.959987 -0.0250981
    outer loop
      vertex -5.72531 -20.4929 152.4
      vertex -5.33627 -20.7834 159.188
      vertex -6.63074 -20.4073 159.188
    endloop
  endfacet
  facet normal -0.279016 -0.959959 -0.0250913
    outer loop
      vertex -5.33627 -20.7834 159.188
      vertex -5.72531 -20.4929 152.4
      vertex -5.29387 -20.6183 152.4
    endloop
  endfacet
  facet normal -0.278967 -0.960157 -0.0166244
    outer loop
      vertex -6.63074 -20.4073 159.188
      vertex -5.33627 -20.7834 159.188
      vertex -5.37881 -20.9491 169.472
    endloop
  endfacet
  facet normal -0.508881 -0.860471 -0.0250941
    outer loop
      vertex -10.6418 -18.4253 152.4
      vertex -10.3372 -18.8034 159.188
      vertex -11.4975 -18.1172 159.188
    endloop
  endfacet
  facet normal -0.508891 -0.860465 -0.0250933
    outer loop
      vertex -10.3372 -18.8034 159.188
      vertex -10.6418 -18.4253 152.4
      vertex -10.2551 -18.654 152.4
    endloop
  endfacet
  facet normal -0.50891 -0.860454 -0.0250985
    outer loop
      vertex -11.4062 -17.9732 152.4
      vertex -10.6418 -18.4253 152.4
      vertex -11.4975 -18.1172 159.188
    endloop
  endfacet
  facet normal -0.338675 -0.940867 -0.00828488
    outer loop
      vertex -7.96201 -20.1097 169.472
      vertex -7.80397 -20.2445 178.32
      vertex -7.98899 -20.1779 178.32
    endloop
  endfacet
  facet normal -0.338755 -0.940838 -0.00828302
    outer loop
      vertex -7.80397 -20.2445 178.32
      vertex -7.96201 -20.1097 169.472
      vertex -6.6836 -20.57 169.472
    endloop
  endfacet
  facet normal -0.39717 -0.917708 -0.00828473
    outer loop
      vertex -9.05973 -19.7145 178.32
      vertex -7.96201 -20.1097 169.472
      vertex -7.98899 -20.1779 178.32
    endloop
  endfacet
  facet normal -0.790035 -0.612836 -0.0166265
    outer loop
      vertex -17.4979 -12.713 169.472
      vertex -16.5333 -13.6775 159.188
      vertex -16.6651 -13.7866 169.472
    endloop
  endfacet
  facet normal -0.82722 -0.561818 -0.00827624
    outer loop
      vertex -18.2616 -11.5892 169.472
      vertex -18.213 -11.7911 178.32
      vertex -18.3235 -11.6284 178.32
    endloop
  endfacet
  facet normal -0.827064 -0.562047 -0.00828233
    outer loop
      vertex -18.213 -11.7911 178.32
      vertex -18.2616 -11.5892 169.472
      vertex -17.4979 -12.713 169.472
    endloop
  endfacet
  facet normal -0.826978 -0.561989 -0.0166268
    outer loop
      vertex -18.2616 -11.5892 169.472
      vertex -17.3595 -12.6124 159.188
      vertex -17.4979 -12.713 169.472
    endloop
  endfacet
  facet normal 0.0314011 0.999395 0.0149563
    outer loop
      vertex -1.2126 -19.2737 159.188
      vertex -1.22226 -19.4273 169.472
      vertex 0 -19.3118 159.188
    endloop
  endfacet
  facet normal 0.661156 0.749909 0.0225897
    outer loop
      vertex -12.8115 -14.2332 152.4
      vertex -13.2198 -14.0777 159.188
      vertex -12.3098 -14.88 159.188
    endloop
  endfacet
  facet normal 0.66115 0.749913 0.0225893
    outer loop
      vertex -13.2198 -14.0777 159.188
      vertex -12.8115 -14.2332 152.4
      vertex -13.1148 -13.9658 152.4
    endloop
  endfacet
  facet normal 0.0313982 0.999395 0.0149559
    outer loop
      vertex -1.22226 -19.4273 169.472
      vertex 0 -19.4657 169.472
      vertex 0 -19.3118 159.188
    endloop
  endfacet
  facet normal 0.790053 0.612856 0.0149577
    outer loop
      vertex -15.6236 -11.3512 159.188
      vertex -15.7481 -11.4417 169.472
      vertex -14.88 -12.3098 159.188
    endloop
  endfacet
  facet normal 0.860498 0.508953 0.022592
    outer loop
      vertex -16.5843 -9.57496 152.4
      vertex -16.6502 -9.613 155.767
      vertex -16.3817 -9.9175 152.4
    endloop
  endfacet
  facet normal 0.790124 0.612901 0.00744936
    outer loop
      vertex -15.7481 -11.4417 169.472
      vertex -15.8015 -11.4804 178.32
      vertex -15.1579 -12.3101 178.32
    endloop
  endfacet
  facet normal 0.707087 0.707087 0.00745606
    outer loop
      vertex -14.238 -13.3704 178.32
      vertex -13.3252 -14.1899 169.472
      vertex -14.1899 -13.3252 169.472
    endloop
  endfacet
  facet normal 0.707087 0.707087 0.00745606
    outer loop
      vertex -13.3252 -14.1899 169.472
      vertex -14.238 -13.3704 178.32
      vertex -13.3704 -14.238 178.32
    endloop
  endfacet
  facet normal 0.0937932 0.995564 0.0074476
    outer loop
      vertex -1.22226 -19.4273 169.472
      vertex -1.4026 -19.4765 178.32
      vertex -1.2264 -19.4931 178.32
    endloop
  endfacet
  facet normal 0.0941203 0.995533 0.0074541
    outer loop
      vertex -1.4026 -19.4765 178.32
      vertex -1.22226 -19.4273 169.472
      vertex -2.4397 -19.3122 169.472
    endloop
  endfacet
  facet normal 0.0313985 0.999251 0.0225965
    outer loop
      vertex -0.798804 -19.1332 152.4
      vertex 0 -19.3118 159.188
      vertex 0 -19.1583 152.4
    endloop
  endfacet
  facet normal 0.0313966 0.999252 0.0225967
    outer loop
      vertex -0.798804 -19.1332 152.4
      vertex -1.2126 -19.2737 159.188
      vertex 0 -19.3118 159.188
    endloop
  endfacet
  facet normal 0.0314 0.999251 0.0225969
    outer loop
      vertex -1.2126 -19.2737 159.188
      vertex -0.798804 -19.1332 152.4
      vertex -1.20296 -19.1205 152.4
    endloop
  endfacet
  facet normal 0.706926 0.706926 0.0225887
    outer loop
      vertex -14.0777 -13.2198 159.188
      vertex -13.1148 -13.9658 152.4
      vertex -13.9658 -13.1148 152.4
    endloop
  endfacet
  facet normal 0.706926 0.706926 0.0225887
    outer loop
      vertex -13.1148 -13.9658 152.4
      vertex -14.0777 -13.2198 159.188
      vertex -13.2198 -14.0777 159.188
    endloop
  endfacet
  facet normal 0.508913 0.860688 0.0149599
    outer loop
      vertex -10.4303 -16.4355 169.472
      vertex -9.37768 -17.0579 169.472
      vertex -9.30352 -16.923 159.188
    endloop
  endfacet
  facet normal 0.562091 0.827042 0.00744993
    outer loop
      vertex -11.4417 -15.7481 169.472
      vertex -11.4804 -15.8015 178.32
      vertex -10.612 -16.3917 178.32
    endloop
  endfacet
  facet normal 0.453887 0.890773 0.0225906
    outer loop
      vertex -8.86931 -16.9721 152.4
      vertex -9.30352 -16.923 159.188
      vertex -8.22255 -17.4738 159.188
    endloop
  endfacet
  facet normal 0.453734 0.890851 0.0225803
    outer loop
      vertex -9.30352 -16.923 159.188
      vertex -8.86931 -16.9721 152.4
      vertex -9.22959 -16.7886 152.4
    endloop
  endfacet
  facet normal 0.860694 0.508902 0.0149652
    outer loop
      vertex -16.7613 -9.67717 162.599
      vertex -16.8504 -9.72859 169.472
      vertex -16.4355 -10.4303 169.472
    endloop
  endfacet
  facet normal 0.790118 0.61291 0.00745063
    outer loop
      vertex -15.1579 -12.3101 178.32
      vertex -14.9986 -12.4079 169.472
      vertex -15.7481 -11.4417 169.472
    endloop
  endfacet
  facet normal 0.790181 0.612828 0.00745267
    outer loop
      vertex -14.9986 -12.4079 169.472
      vertex -15.1579 -12.3101 178.32
      vertex -15.0494 -12.45 178.32
    endloop
  endfacet
  facet normal 0.397046 0.917521 0.0225826
    outer loop
      vertex -8.15722 -17.335 152.4
      vertex -8.22255 -17.4738 159.188
      vertex -7.42375 -17.6524 152.4
    endloop
  endfacet
  facet normal 0.0941209 0.995448 0.0149563
    outer loop
      vertex -2.42041 -19.1595 159.188
      vertex -1.22226 -19.4273 169.472
      vertex -1.2126 -19.2737 159.188
    endloop
  endfacet
  facet normal 0.156489 0.987421 0.0225834
    outer loop
      vertex -3.19053 -18.8822 152.4
      vertex -2.42041 -19.1595 159.188
      vertex -2.40117 -19.0073 152.4
    endloop
  endfacet
  facet normal 0.661266 0.750114 0.00745589
    outer loop
      vertex -13.3252 -14.1899 169.472
      vertex -13.3704 -14.238 178.32
      vertex -12.5827 -14.9324 178.32
    endloop
  endfacet
  facet normal 0.612768 0.78994 0.0225887
    outer loop
      vertex -11.8925 -15.0096 152.4
      vertex -12.3098 -14.88 159.188
      vertex -11.3512 -15.6236 159.188
    endloop
  endfacet
  facet normal 0.612859 0.789869 0.0225956
    outer loop
      vertex -12.3098 -14.88 159.188
      vertex -11.8925 -15.0096 152.4
      vertex -12.212 -14.7617 152.4
    endloop
  endfacet
  facet normal 0.661234 0.750031 0.0149573
    outer loop
      vertex -13.3252 -14.1899 169.472
      vertex -12.4079 -14.9986 169.472
      vertex -12.3098 -14.88 159.188
    endloop
  endfacet
  facet normal 0.508978 0.860484 0.0225807
    outer loop
      vertex -9.9175 -16.3817 152.4
      vertex -9.30352 -16.923 159.188
      vertex -9.22959 -16.7886 152.4
    endloop
  endfacet
  facet normal 0.78994 0.612768 0.0225887
    outer loop
      vertex -14.88 -12.3098 159.188
      vertex -15.0096 -11.8925 152.4
      vertex -15.6236 -11.3512 159.188
    endloop
  endfacet
  facet normal 0.789869 0.612859 0.0225956
    outer loop
      vertex -15.0096 -11.8925 152.4
      vertex -14.88 -12.3098 159.188
      vertex -14.7617 -12.212 152.4
    endloop
  endfacet
  facet normal 0.661323 0.750064 0.00745309
    outer loop
      vertex -12.4079 -14.9986 169.472
      vertex -12.5827 -14.9324 178.32
      vertex -12.45 -15.0494 178.32
    endloop
  endfacet
  facet normal 0.661289 0.750094 0.00745221
    outer loop
      vertex -12.5827 -14.9324 178.32
      vertex -12.4079 -14.9986 169.472
      vertex -13.3252 -14.1899 169.472
    endloop
  endfacet
  facet normal 0.860647 0.508983 0.0149351
    outer loop
      vertex -16.7613 -9.67717 162.599
      vertex -16.3055 -10.3478 159.188
      vertex -16.7172 -9.65165 159.188
    endloop
  endfacet
  facet normal 0.860705 0.508883 0.0149625
    outer loop
      vertex -16.3055 -10.3478 159.188
      vertex -16.7613 -9.67717 162.599
      vertex -16.4355 -10.4303 169.472
    endloop
  endfacet
  facet normal 0.826968 0.56205 0.0149575
    outer loop
      vertex -16.4355 -10.4303 169.472
      vertex -15.7481 -11.4417 169.472
      vertex -15.6236 -11.3512 159.188
    endloop
  endfacet
  facet normal 0.338631 0.940648 0.0225976
    outer loop
      vertex -6.6722 -17.9499 152.4
      vertex -5.96767 -18.3666 159.188
      vertex -5.92025 -18.2206 152.4
    endloop
  endfacet
  facet normal 0.21816 0.975652 0.0225844
    outer loop
      vertex -4.36986 -18.6446 152.4
      vertex -3.61866 -18.9697 159.188
      vertex -3.58991 -18.819 152.4
    endloop
  endfacet
  facet normal 0.0314008 0.999479 0.00745234
    outer loop
      vertex -1.22226 -19.4273 169.472
      vertex -1.04951 -19.4987 178.32
      vertex 0 -19.4657 169.472
    endloop
  endfacet
  facet normal 0.0316414 0.999472 0.00744758
    outer loop
      vertex -1.04951 -19.4987 178.32
      vertex -1.22226 -19.4273 169.472
      vertex -1.2264 -19.4931 178.32
    endloop
  endfacet
  facet normal 0.0314268 0.999478 0.00745542
    outer loop
      vertex -1.04951 -19.4987 178.32
      vertex 0 -19.5317 178.32
      vertex 0 -19.4657 169.472
    endloop
  endfacet
  facet normal 0.508956 0.86076 0.00744405
    outer loop
      vertex -10.4303 -16.4355 169.472
      vertex -10.3133 -16.5812 178.32
      vertex -9.37768 -17.0579 169.472
    endloop
  endfacet
  facet normal 0.509153 0.860644 0.00743952
    outer loop
      vertex -10.3133 -16.5812 178.32
      vertex -10.4303 -16.4355 169.472
      vertex -10.4656 -16.4911 178.32
    endloop
  endfacet
  facet normal 0.561707 0.827303 0.00743968
    outer loop
      vertex -10.4303 -16.4355 169.472
      vertex -10.612 -16.3917 178.32
      vertex -10.4656 -16.4911 178.32
    endloop
  endfacet
  facet normal 0.562098 0.827037 0.00744902
    outer loop
      vertex -10.612 -16.3917 178.32
      vertex -10.4303 -16.4355 169.472
      vertex -11.4417 -15.7481 169.472
    endloop
  endfacet
  facet normal 0.218079 0.975816 0.0149596
    outer loop
      vertex -4.80264 -18.7051 159.188
      vertex -4.84093 -18.8542 169.472
      vertex -3.61866 -18.9697 159.188
    endloop
  endfacet
  facet normal 0.61291 0.790118 0.00745063
    outer loop
      vertex -12.4079 -14.9986 169.472
      vertex -12.3101 -15.1579 178.32
      vertex -11.4417 -15.7481 169.472
    endloop
  endfacet
  facet normal 0.612828 0.790181 0.00745267
    outer loop
      vertex -12.3101 -15.1579 178.32
      vertex -12.4079 -14.9986 169.472
      vertex -12.45 -15.0494 178.32
    endloop
  endfacet
  facet normal 0.612858 0.790051 0.0149574
    outer loop
      vertex -12.3098 -14.88 159.188
      vertex -12.4079 -14.9986 169.472
      vertex -11.4417 -15.7481 169.472
    endloop
  endfacet
  facet normal 0.66125 0.750016 0.0149599
    outer loop
      vertex -13.2198 -14.0777 159.188
      vertex -13.3252 -14.1899 169.472
      vertex -12.3098 -14.88 159.188
    endloop
  endfacet
  facet normal 0.749938 0.661122 0.0225951
    outer loop
      vertex -14.7617 -12.212 152.4
      vertex -14.88 -12.3098 159.188
      vertex -14.2332 -12.8115 152.4
    endloop
  endfacet
  facet normal 0.826878 0.561927 0.0225964
    outer loop
      vertex -15.9486 -10.6 152.4
      vertex -15.6236 -11.3512 159.188
      vertex -15.4994 -11.261 152.4
    endloop
  endfacet
  facet normal 0.860523 0.50891 0.0226029
    outer loop
      vertex -16.3055 -10.3478 159.188
      vertex -16.6502 -9.613 155.767
      vertex -16.7172 -9.65165 159.188
    endloop
  endfacet
  facet normal 0.86053 0.508898 0.0225997
    outer loop
      vertex -16.1759 -10.2655 152.4
      vertex -16.6502 -9.613 155.767
      vertex -16.3055 -10.3478 159.188
    endloop
  endfacet
  facet normal 0.860529 0.508899 0.0225994
    outer loop
      vertex -16.6502 -9.613 155.767
      vertex -16.1759 -10.2655 152.4
      vertex -16.3817 -9.9175 152.4
    endloop
  endfacet
  facet normal 0.789978 0.612718 0.0225961
    outer loop
      vertex -15.4994 -11.261 152.4
      vertex -15.6236 -11.3512 159.188
      vertex -15.0096 -11.8925 152.4
    endloop
  endfacet
  facet normal 0.750064 0.661323 0.00745309
    outer loop
      vertex -14.9324 -12.5827 178.32
      vertex -14.9986 -12.4079 169.472
      vertex -15.0494 -12.45 178.32
    endloop
  endfacet
  facet normal 0.750094 0.661289 0.00745221
    outer loop
      vertex -14.9986 -12.4079 169.472
      vertex -14.9324 -12.5827 178.32
      vertex -14.1899 -13.3252 169.472
    endloop
  endfacet
  facet normal 0.218086 0.975901 0.00745216
    outer loop
      vertex -4.84093 -18.8542 169.472
      vertex -4.85733 -18.9181 178.32
      vertex -3.83259 -19.1471 178.32
    endloop
  endfacet
  facet normal 0.453946 0.890743 0.0225827
    outer loop
      vertex -8.86931 -16.9721 152.4
      vertex -8.22255 -17.4738 159.188
      vertex -8.15722 -17.335 152.4
    endloop
  endfacet
  facet normal 0.15643 0.987576 0.0149586
    outer loop
      vertex -3.61866 -18.9697 159.188
      vertex -3.64751 -19.1209 169.472
      vertex -2.42041 -19.1595 159.188
    endloop
  endfacet
  facet normal 0.453998 0.890971 0.00745585
    outer loop
      vertex -9.37768 -17.0579 169.472
      vertex -9.25177 -17.1961 178.32
      vertex -8.2881 -17.6131 169.472
    endloop
  endfacet
  facet normal 0.454215 0.890861 0.00745103
    outer loop
      vertex -9.25177 -17.1961 178.32
      vertex -9.37768 -17.0579 169.472
      vertex -9.40946 -17.1157 178.32
    endloop
  endfacet
  facet normal 0.612901 0.790124 0.00744936
    outer loop
      vertex -12.3101 -15.1579 178.32
      vertex -11.4804 -15.8015 178.32
      vertex -11.4417 -15.7481 169.472
    endloop
  endfacet
  facet normal 0.661122 0.749938 0.0225951
    outer loop
      vertex -12.8115 -14.2332 152.4
      vertex -12.3098 -14.88 159.188
      vertex -12.212 -14.7617 152.4
    endloop
  endfacet
  facet normal 0.612856 0.790053 0.0149577
    outer loop
      vertex -12.3098 -14.88 159.188
      vertex -11.4417 -15.7481 169.472
      vertex -11.3512 -15.6236 159.188
    endloop
  endfacet
  facet normal 0.56205 0.826968 0.0149575
    outer loop
      vertex -11.3512 -15.6236 159.188
      vertex -11.4417 -15.7481 169.472
      vertex -10.4303 -16.4355 169.472
    endloop
  endfacet
  facet normal 0.707028 0.707028 0.0149601
    outer loop
      vertex -14.1899 -13.3252 169.472
      vertex -13.2198 -14.0777 159.188
      vertex -14.0777 -13.2198 159.188
    endloop
  endfacet
  facet normal 0.707028 0.707028 0.0149601
    outer loop
      vertex -13.2198 -14.0777 159.188
      vertex -14.1899 -13.3252 169.472
      vertex -13.3252 -14.1899 169.472
    endloop
  endfacet
  facet normal 0.749909 0.661156 0.0225897
    outer loop
      vertex -14.0777 -13.2198 159.188
      vertex -14.2332 -12.8115 152.4
      vertex -14.88 -12.3098 159.188
    endloop
  endfacet
  facet normal 0.749913 0.66115 0.0225893
    outer loop
      vertex -14.2332 -12.8115 152.4
      vertex -14.0777 -13.2198 159.188
      vertex -13.9658 -13.1148 152.4
    endloop
  endfacet
  facet normal 0.750016 0.66125 0.0149599
    outer loop
      vertex -14.88 -12.3098 159.188
      vertex -14.1899 -13.3252 169.472
      vertex -14.0777 -13.2198 159.188
    endloop
  endfacet
  facet normal 0.826899 0.561896 0.0226002
    outer loop
      vertex -16.3055 -10.3478 159.188
      vertex -15.9486 -10.6 152.4
      vertex -16.1759 -10.2655 152.4
    endloop
  endfacet
  facet normal 0.826873 0.561934 0.0225974
    outer loop
      vertex -15.9486 -10.6 152.4
      vertex -16.3055 -10.3478 159.188
      vertex -15.6236 -11.3512 159.188
    endloop
  endfacet
  facet normal 0.826992 0.562015 0.0149626
    outer loop
      vertex -16.3055 -10.3478 159.188
      vertex -16.4355 -10.4303 169.472
      vertex -15.6236 -11.3512 159.188
    endloop
  endfacet
  facet normal 0.750114 0.661266 0.00745589
    outer loop
      vertex -14.9324 -12.5827 178.32
      vertex -14.238 -13.3704 178.32
      vertex -14.1899 -13.3252 169.472
    endloop
  endfacet
  facet normal 0.790051 0.612858 0.0149574
    outer loop
      vertex -15.7481 -11.4417 169.472
      vertex -14.9986 -12.4079 169.472
      vertex -14.88 -12.3098 159.188
    endloop
  endfacet
  facet normal 0.750031 0.661234 0.0149573
    outer loop
      vertex -14.88 -12.3098 159.188
      vertex -14.9986 -12.4079 169.472
      vertex -14.1899 -13.3252 169.472
    endloop
  endfacet
  facet normal 0.827042 0.562091 0.00744993
    outer loop
      vertex -16.3917 -10.612 178.32
      vertex -15.8015 -11.4804 178.32
      vertex -15.7481 -11.4417 169.472
    endloop
  endfacet
  facet normal 0.860717 0.509029 0.00745118
    outer loop
      vertex -16.8726 -9.74141 172.912
      vertex -16.9075 -9.76156 178.32
      vertex -16.5812 -10.3133 178.32
    endloop
  endfacet
  facet normal 0.218048 0.975676 0.022598
    outer loop
      vertex -4.36986 -18.6446 152.4
      vertex -4.80264 -18.7051 159.188
      vertex -3.61866 -18.9697 159.188
    endloop
  endfacet
  facet normal 0.218069 0.975672 0.0225993
    outer loop
      vertex -4.80264 -18.7051 159.188
      vertex -4.36986 -18.6446 152.4
      vertex -4.76448 -18.5564 152.4
    endloop
  endfacet
  facet normal 0.156407 0.987434 0.0225933
    outer loop
      vertex -3.19053 -18.8822 152.4
      vertex -3.61866 -18.9697 159.188
      vertex -2.42041 -19.1595 159.188
    endloop
  endfacet
  facet normal 0.156261 0.987458 0.0225843
    outer loop
      vertex -3.61866 -18.9697 159.188
      vertex -3.19053 -18.8822 152.4
      vertex -3.58991 -18.819 152.4
    endloop
  endfacet
  facet normal 0.0941124 0.995449 0.0149573
    outer loop
      vertex -2.42041 -19.1595 159.188
      vertex -2.4397 -19.3122 169.472
      vertex -1.22226 -19.4273 169.472
    endloop
  endfacet
  facet normal 0.338678 0.940783 0.0149593
    outer loop
      vertex -7.16581 -18.0988 169.472
      vertex -6.01524 -18.513 169.472
      vertex -5.96767 -18.3666 159.188
    endloop
  endfacet
  facet normal 0.156467 0.987655 0.00745766
    outer loop
      vertex -3.48507 -19.2134 178.32
      vertex -2.44797 -19.3777 178.32
      vertex -2.4397 -19.3122 169.472
    endloop
  endfacet
  facet normal 0.453952 0.890901 0.0149599
    outer loop
      vertex -9.30352 -16.923 159.188
      vertex -9.37768 -17.0579 169.472
      vertex -8.22255 -17.4738 159.188
    endloop
  endfacet
  facet normal 0.397093 0.917657 0.0149661
    outer loop
      vertex -8.22255 -17.4738 159.188
      vertex -7.16581 -18.0988 169.472
      vertex -7.10914 -17.9556 159.188
    endloop
  endfacet
  facet normal 0.397069 0.917511 0.0225792
    outer loop
      vertex -7.42375 -17.6524 152.4
      vertex -7.10914 -17.9556 159.188
      vertex -7.05265 -17.813 152.4
    endloop
  endfacet
  facet normal 0.397036 0.917525 0.0225814
    outer loop
      vertex -7.10914 -17.9556 159.188
      vertex -7.42375 -17.6524 152.4
      vertex -8.22255 -17.4738 159.188
    endloop
  endfacet
  facet normal 0.509006 0.86073 0.007451
    outer loop
      vertex -10.3133 -16.5812 178.32
      vertex -9.40946 -17.1157 178.32
      vertex -9.37768 -17.0579 169.472
    endloop
  endfacet
  facet normal 0.612718 0.789978 0.0225961
    outer loop
      vertex -11.8925 -15.0096 152.4
      vertex -11.3512 -15.6236 159.188
      vertex -11.261 -15.4994 152.4
    endloop
  endfacet
  facet normal 0.561927 0.826878 0.0225964
    outer loop
      vertex -11.261 -15.4994 152.4
      vertex -11.3512 -15.6236 159.188
      vertex -10.6 -15.9486 152.4
    endloop
  endfacet
  facet normal 0.0940706 0.995309 0.0225834
    outer loop
      vertex -2.40117 -19.0073 152.4
      vertex -2.42041 -19.1595 159.188
      vertex -1.60552 -19.0825 152.4
    endloop
  endfacet
  facet normal 0.0939541 0.99532 0.022597
    outer loop
      vertex -1.60552 -19.0825 152.4
      vertex -1.2126 -19.2737 159.188
      vertex -1.20296 -19.1205 152.4
    endloop
  endfacet
  facet normal 0.0941075 0.995306 0.0225878
    outer loop
      vertex -1.2126 -19.2737 159.188
      vertex -1.60552 -19.0825 152.4
      vertex -2.42041 -19.1595 159.188
    endloop
  endfacet
  facet normal 0.156418 0.987578 0.0149573
    outer loop
      vertex -3.64751 -19.1209 169.472
      vertex -2.4397 -19.3122 169.472
      vertex -2.42041 -19.1595 159.188
    endloop
  endfacet
  facet normal 0.156431 0.987661 0.00745342
    outer loop
      vertex -3.64751 -19.1209 169.472
      vertex -3.48507 -19.2134 178.32
      vertex -2.4397 -19.3122 169.472
    endloop
  endfacet
  facet normal 0.156509 0.987648 0.00745186
    outer loop
      vertex -3.48507 -19.2134 178.32
      vertex -3.64751 -19.1209 169.472
      vertex -3.65987 -19.1857 178.32
    endloop
  endfacet
  facet normal 0.0940901 0.995536 0.0074577
    outer loop
      vertex -2.4397 -19.3122 169.472
      vertex -2.44797 -19.3777 178.32
      vertex -1.4026 -19.4765 178.32
    endloop
  endfacet
  facet normal 0.508859 0.860553 0.0225969
    outer loop
      vertex -9.9175 -16.3817 152.4
      vertex -10.3478 -16.3055 159.188
      vertex -9.30352 -16.923 159.188
    endloop
  endfacet
  facet normal 0.508899 0.860529 0.0225997
    outer loop
      vertex -10.3478 -16.3055 159.188
      vertex -9.9175 -16.3817 152.4
      vertex -10.2655 -16.1759 152.4
    endloop
  endfacet
  facet normal 0.508932 0.860677 0.0149625
    outer loop
      vertex -10.3478 -16.3055 159.188
      vertex -10.4303 -16.4355 169.472
      vertex -9.30352 -16.923 159.188
    endloop
  endfacet
  facet normal 0.45396 0.890896 0.014961
    outer loop
      vertex -9.37768 -17.0579 169.472
      vertex -8.2881 -17.6131 169.472
      vertex -8.22255 -17.4738 159.188
    endloop
  endfacet
  facet normal 0.397132 0.917639 0.014961
    outer loop
      vertex -8.22255 -17.4738 159.188
      vertex -8.2881 -17.6131 169.472
      vertex -7.16581 -18.0988 169.472
    endloop
  endfacet
  facet normal 0.860644 0.509153 0.00746818
    outer loop
      vertex -16.4911 -10.4656 178.32
      vertex -16.8726 -9.74141 172.912
      vertex -16.5812 -10.3133 178.32
    endloop
  endfacet
  facet normal 0.860767 0.508945 0.00745166
    outer loop
      vertex -16.8726 -9.74141 172.912
      vertex -16.4355 -10.4303 169.472
      vertex -16.8504 -9.72859 169.472
    endloop
  endfacet
  facet normal 0.860741 0.50899 0.00743948
    outer loop
      vertex -16.8726 -9.74141 172.912
      vertex -16.4911 -10.4656 178.32
      vertex -16.4355 -10.4303 169.472
    endloop
  endfacet
  facet normal 0.827303 0.561707 0.00743968
    outer loop
      vertex -16.3917 -10.612 178.32
      vertex -16.4355 -10.4303 169.472
      vertex -16.4911 -10.4656 178.32
    endloop
  endfacet
  facet normal 0.827037 0.562098 0.00744902
    outer loop
      vertex -16.4355 -10.4303 169.472
      vertex -16.3917 -10.612 178.32
      vertex -15.7481 -11.4417 169.472
    endloop
  endfacet
  facet normal 0.278954 0.960039 0.0225978
    outer loop
      vertex -5.92025 -18.2206 152.4
      vertex -5.96767 -18.3666 159.188
      vertex -5.15278 -18.4436 152.4
    endloop
  endfacet
  facet normal 0.279098 0.960234 0.0074521
    outer loop
      vertex -4.84093 -18.8542 169.472
      vertex -5.02729 -18.8687 178.32
      vertex -4.85733 -18.9181 178.32
    endloop
  endfacet
  facet normal 0.279007 0.96026 0.00745022
    outer loop
      vertex -5.02729 -18.8687 178.32
      vertex -4.84093 -18.8542 169.472
      vertex -6.01524 -18.513 169.472
    endloop
  endfacet
  facet normal 0.338733 0.940763 0.0149663
    outer loop
      vertex -7.10914 -17.9556 159.188
      vertex -7.16581 -18.0988 169.472
      vertex -5.96767 -18.3666 159.188
    endloop
  endfacet
  facet normal 0.338685 0.940629 0.0225908
    outer loop
      vertex -6.6722 -17.9499 152.4
      vertex -7.10914 -17.9556 159.188
      vertex -5.96767 -18.3666 159.188
    endloop
  endfacet
  facet normal 0.338497 0.940696 0.0225788
    outer loop
      vertex -7.10914 -17.9556 159.188
      vertex -6.6722 -17.9499 152.4
      vertex -7.05265 -17.813 152.4
    endloop
  endfacet
  facet normal 0.562015 0.826992 0.0149626
    outer loop
      vertex -11.3512 -15.6236 159.188
      vertex -10.4303 -16.4355 169.472
      vertex -10.3478 -16.3055 159.188
    endloop
  endfacet
  facet normal 0.561896 0.826899 0.0226002
    outer loop
      vertex -10.6 -15.9486 152.4
      vertex -10.3478 -16.3055 159.188
      vertex -10.2655 -16.1759 152.4
    endloop
  endfacet
  facet normal 0.561934 0.826873 0.0225974
    outer loop
      vertex -10.3478 -16.3055 159.188
      vertex -10.6 -15.9486 152.4
      vertex -11.3512 -15.6236 159.188
    endloop
  endfacet
  facet normal 0.278981 0.96018 0.0149596
    outer loop
      vertex -5.96767 -18.3666 159.188
      vertex -4.84093 -18.8542 169.472
      vertex -4.80264 -18.7051 159.188
    endloop
  endfacet
  facet normal 0.278984 0.960179 0.0149593
    outer loop
      vertex -5.96767 -18.3666 159.188
      vertex -6.01524 -18.513 169.472
      vertex -4.84093 -18.8542 169.472
    endloop
  endfacet
  facet normal 0.278893 0.960056 0.0225991
    outer loop
      vertex -5.15278 -18.4436 152.4
      vertex -4.80264 -18.7051 159.188
      vertex -4.76448 -18.5564 152.4
    endloop
  endfacet
  facet normal 0.278941 0.960042 0.0225962
    outer loop
      vertex -4.80264 -18.7051 159.188
      vertex -5.15278 -18.4436 152.4
      vertex -5.96767 -18.3666 159.188
    endloop
  endfacet
  facet normal 0.338742 0.94085 0.00744787
    outer loop
      vertex -7.16581 -18.0988 169.472
      vertex -7.19009 -18.1601 178.32
      vertex -6.20214 -18.5158 178.32
    endloop
  endfacet
  facet normal 0.218071 0.975818 0.0149587
    outer loop
      vertex -4.84093 -18.8542 169.472
      vertex -3.64751 -19.1209 169.472
      vertex -3.61866 -18.9697 159.188
    endloop
  endfacet
  facet normal 0.218097 0.975899 0.00745184
    outer loop
      vertex -3.64751 -19.1209 169.472
      vertex -3.83259 -19.1471 178.32
      vertex -3.65987 -19.1857 178.32
    endloop
  endfacet
  facet normal 0.21809 0.9759 0.0074517
    outer loop
      vertex -3.83259 -19.1471 178.32
      vertex -3.64751 -19.1209 169.472
      vertex -4.84093 -18.8542 169.472
    endloop
  endfacet
  facet normal 0.453977 0.890982 0.00745297
    outer loop
      vertex -9.25177 -17.1961 178.32
      vertex -8.31619 -17.6728 178.32
      vertex -8.2881 -17.6131 169.472
    endloop
  endfacet
  facet normal 0.27903 0.960254 0.00744739
    outer loop
      vertex -6.01524 -18.513 169.472
      vertex -6.03562 -18.5757 178.32
      vertex -5.02729 -18.8687 178.32
    endloop
  endfacet
  facet normal 0.338474 0.940946 0.00744749
    outer loop
      vertex -6.01524 -18.513 169.472
      vertex -6.20214 -18.5158 178.32
      vertex -6.03562 -18.5757 178.32
    endloop
  endfacet
  facet normal 0.338706 0.940863 0.00745238
    outer loop
      vertex -6.20214 -18.5158 178.32
      vertex -6.01524 -18.513 169.472
      vertex -7.16581 -18.0988 169.472
    endloop
  endfacet
  facet normal 0.397123 0.917735 0.00745298
    outer loop
      vertex -8.2881 -17.6131 169.472
      vertex -8.31619 -17.6728 178.32
      vertex -7.35252 -18.0898 178.32
    endloop
  endfacet
  facet normal 0.397186 0.917708 0.00744792
    outer loop
      vertex -7.16581 -18.0988 169.472
      vertex -7.35252 -18.0898 178.32
      vertex -7.19009 -18.1601 178.32
    endloop
  endfacet
  facet normal 0.397166 0.917717 0.00744748
    outer loop
      vertex -7.35252 -18.0898 178.32
      vertex -7.16581 -18.0988 169.472
      vertex -8.2881 -17.6131 169.472
    endloop
  endfacet
  facet normal 1 0 0
    outer loop
      vertex 0 -19.3118 159.188
      vertex 0 -21.287 152.4
      vertex 0 -19.1583 152.4
    endloop
  endfacet
  facet normal 1 0 0
    outer loop
      vertex 0 -21.4575 159.188
      vertex 0 -19.3118 159.188
      vertex 0 -19.4657 169.472
    endloop
  endfacet
  facet normal 1 0 0
    outer loop
      vertex 0 -21.6286 169.472
      vertex 0 -19.4657 169.472
      vertex 0 -19.5317 178.32
    endloop
  endfacet
  facet normal 1 0 0
    outer loop
      vertex 0 -19.3118 159.188
      vertex 0 -21.4575 159.188
      vertex 0 -21.287 152.4
    endloop
  endfacet
  facet normal 1 0 0
    outer loop
      vertex 0 -19.4657 169.472
      vertex 0 -21.6286 169.472
      vertex 0 -21.4575 159.188
    endloop
  endfacet
  facet normal 1 0 -0
    outer loop
      vertex 0 -21.6286 169.472
      vertex 0 -19.5317 178.32
      vertex 0 -21.7019 178.32
    endloop
  endfacet
  facet normal -0.499991 0.866031 1.54518e-07
    outer loop
      vertex -18.7474 -10.8238 172.912
      vertex -16.9075 -9.76156 178.32
      vertex -16.8726 -9.74141 172.912
    endloop
  endfacet
  facet normal -0.50001 0.866019 8.95661e-06
    outer loop
      vertex -16.9075 -9.76156 178.32
      vertex -18.7474 -10.8238 172.912
      vertex -18.7861 -10.8462 178.32
    endloop
  endfacet
  facet normal -0.499978 0.866038 8.98751e-07
    outer loop
      vertex -18.7227 -10.8095 169.472
      vertex -16.8726 -9.74141 172.912
      vertex -16.8504 -9.72859 169.472
    endloop
  endfacet
  facet normal -0.499991 0.866031 1.00184e-05
    outer loop
      vertex -16.8726 -9.74141 172.912
      vertex -18.7227 -10.8095 169.472
      vertex -18.7474 -10.8238 172.912
    endloop
  endfacet
  facet normal -0.499978 0.866038 -8.77267e-06
    outer loop
      vertex -16.8504 -9.72859 169.472
      vertex -18.6731 -10.7809 166.026
      vertex -18.7227 -10.8095 169.472
    endloop
  endfacet
  facet normal -0.499987 0.866033 -2.53626e-06
    outer loop
      vertex -16.7613 -9.67717 162.599
      vertex -18.6731 -10.7809 166.026
      vertex -16.8504 -9.72859 169.472
    endloop
  endfacet
  facet normal -0.500028 0.866009 1.44622e-05
    outer loop
      vertex -18.5746 -10.7241 159.188
      vertex -16.7613 -9.67717 162.599
      vertex -16.7172 -9.65165 159.188
    endloop
  endfacet
  facet normal -0.499995 0.866028 -8.64748e-06
    outer loop
      vertex -16.7613 -9.67717 162.599
      vertex -18.5746 -10.7241 159.188
      vertex -18.6731 -10.7809 166.026
    endloop
  endfacet
  facet normal -0.500028 0.866009 -8.94608e-06
    outer loop
      vertex -16.6502 -9.613 155.767
      vertex -18.5746 -10.7241 159.188
      vertex -16.7172 -9.65165 159.188
    endloop
  endfacet
  facet normal -0.499985 0.866034 -1.50025e-06
    outer loop
      vertex -18.427 -10.6388 152.4
      vertex -16.6502 -9.613 155.767
      vertex -16.5843 -9.57496 152.4
    endloop
  endfacet
  facet normal -0.500002 0.866024 1.05485e-05
    outer loop
      vertex -16.6502 -9.613 155.767
      vertex -18.427 -10.6388 152.4
      vertex -18.5746 -10.7241 159.188
    endloop
  endfacet
endsolid OpenSCAD_Model
