solid OpenSCAD_Model
  facet normal 0 0 1
    outer loop
      vertex -3.1157e-07 19.5857 256.08
      vertex -0.278346 17.6242 256.08
      vertex -3.21708e-07 17.6271 256.08
    endloop
  endfacet
  facet normal -0 0 1
    outer loop
      vertex -0.309274 19.5825 256.08
      vertex -0.278346 17.6242 256.08
      vertex -3.1157e-07 19.5857 256.08
    endloop
  endfacet
  facet normal 0 0 1
    outer loop
      vertex -0.309274 19.5825 256.08
      vertex -0.738472 17.6194 256.08
      vertex -0.278346 17.6242 256.08
    endloop
  endfacet
  facet normal -0 0 1
    outer loop
      vertex -0.820525 19.5771 256.08
      vertex -0.738472 17.6194 256.08
      vertex -0.309274 19.5825 256.08
    endloop
  endfacet
  facet normal -0 0 1
    outer loop
      vertex -1.33043 19.5397 256.08
      vertex -0.738472 17.6194 256.08
      vertex -0.820525 19.5771 256.08
    endloop
  endfacet
  facet normal 0 0 1
    outer loop
      vertex -1.33043 19.5397 256.08
      vertex -1.38443 17.572 256.08
      vertex -0.738472 17.6194 256.08
    endloop
  endfacet
  facet normal -0 0 1
    outer loop
      vertex -2.04816 19.487 256.08
      vertex -1.38443 17.572 256.08
      vertex -1.33043 19.5397 256.08
    endloop
  endfacet
  facet normal 0 0 1
    outer loop
      vertex -1.38443 17.572 256.08
      vertex -2.04816 19.487 256.08
      vertex -1.84335 17.5383 256.08
    endloop
  endfacet
  facet normal -0 0 1
    outer loop
      vertex -2.55471 19.4176 256.08
      vertex -1.84335 17.5383 256.08
      vertex -2.04816 19.487 256.08
    endloop
  endfacet
  facet normal 0 0 1
    outer loop
      vertex -1.84335 17.5383 256.08
      vertex -2.55471 19.4176 256.08
      vertex -2.29924 17.4758 256.08
    endloop
  endfacet
  facet normal 0 0 1
    outer loop
      vertex -2.55471 19.4176 256.08
      vertex -2.94095 17.3879 256.08
      vertex -2.29924 17.4758 256.08
    endloop
  endfacet
  facet normal -0 0 1
    outer loop
      vertex -3.26772 19.3199 256.08
      vertex -2.94095 17.3879 256.08
      vertex -2.55471 19.4176 256.08
    endloop
  endfacet
  facet normal -0 0 1
    outer loop
      vertex -3.76891 19.2189 256.08
      vertex -2.94095 17.3879 256.08
      vertex -3.26772 19.3199 256.08
    endloop
  endfacet
  facet normal 0 0 1
    outer loop
      vertex -2.94095 17.3879 256.08
      vertex -3.76891 19.2189 256.08
      vertex -3.39202 17.297 256.08
    endloop
  endfacet
  facet normal 0 0 1
    outer loop
      vertex -3.76891 19.2189 256.08
      vertex -4.02694 17.169 256.08
      vertex -3.39202 17.297 256.08
    endloop
  endfacet
  facet normal -0 0 1
    outer loop
      vertex -4.47438 19.0766 256.08
      vertex -4.02694 17.169 256.08
      vertex -3.76891 19.2189 256.08
    endloop
  endfacet
  facet normal 0 0 1
    outer loop
      vertex -4.47438 19.0766 256.08
      vertex -5.09704 16.8822 256.08
      vertex -4.02694 17.169 256.08
    endloop
  endfacet
  facet normal -0 0 1
    outer loop
      vertex -5.66338 18.758 256.08
      vertex -5.09704 16.8822 256.08
      vertex -4.47438 19.0766 256.08
    endloop
  endfacet
  facet normal -0 0 1
    outer loop
      vertex -6.34546 18.5285 256.08
      vertex -5.09704 16.8822 256.08
      vertex -5.66338 18.758 256.08
    endloop
  endfacet
  facet normal 0 0 1
    outer loop
      vertex -5.09704 16.8822 256.08
      vertex -6.34546 18.5285 256.08
      vertex -5.71091 16.6756 256.08
    endloop
  endfacet
  facet normal 0 0 1
    outer loop
      vertex -5.71091 16.6756 256.08
      vertex -6.34546 18.5285 256.08
      vertex -6.14703 16.5289 256.08
    endloop
  endfacet
  facet normal -0 0 1
    outer loop
      vertex -6.83003 18.3654 256.08
      vertex -6.14703 16.5289 256.08
      vertex -6.34546 18.5285 256.08
    endloop
  endfacet
  facet normal -0 0 1
    outer loop
      vertex -7.49635 18.0935 256.08
      vertex -6.14703 16.5289 256.08
      vertex -6.83003 18.3654 256.08
    endloop
  endfacet
  facet normal 0 0 1
    outer loop
      vertex -6.14703 16.5289 256.08
      vertex -7.49635 18.0935 256.08
      vertex -6.74671 16.2841 256.08
    endloop
  endfacet
  facet normal 0 0 1
    outer loop
      vertex -6.74671 16.2841 256.08
      vertex -7.49635 18.0935 256.08
      vertex -7.17275 16.1103 256.08
    endloop
  endfacet
  facet normal -0 0 1
    outer loop
      vertex -7.96973 17.9003 256.08
      vertex -7.17275 16.1103 256.08
      vertex -7.49635 18.0935 256.08
    endloop
  endfacet
  facet normal 0 0 1
    outer loop
      vertex -7.17275 16.1103 256.08
      vertex -7.96973 17.9003 256.08
      vertex -7.58704 15.91 256.08
    endloop
  endfacet
  facet normal -0 0 1
    outer loop
      vertex -8.61766 17.5871 256.08
      vertex -7.58704 15.91 256.08
      vertex -7.96973 17.9003 256.08
    endloop
  endfacet
  facet normal 0 0 1
    outer loop
      vertex -7.58704 15.91 256.08
      vertex -8.61766 17.5871 256.08
      vertex -8.17017 15.6281 256.08
    endloop
  endfacet
  facet normal -0 0 1
    outer loop
      vertex -9.07797 17.3646 256.08
      vertex -8.17017 15.6281 256.08
      vertex -8.61766 17.5871 256.08
    endloop
  endfacet
  facet normal -0 0 1
    outer loop
      vertex -9.5234 17.1136 256.08
      vertex -8.17017 15.6281 256.08
      vertex -9.07797 17.3646 256.08
    endloop
  endfacet
  facet normal 0 0 1
    outer loop
      vertex -8.17017 15.6281 256.08
      vertex -9.5234 17.1136 256.08
      vertex -8.57106 15.4022 256.08
    endloop
  endfacet
  facet normal 0 0 1
    outer loop
      vertex -8.57106 15.4022 256.08
      vertex -9.5234 17.1136 256.08
      vertex -9.13535 15.0842 256.08
    endloop
  endfacet
  facet normal -0 0 1
    outer loop
      vertex -10.1504 16.7603 256.08
      vertex -9.13535 15.0842 256.08
      vertex -9.5234 17.1136 256.08
    endloop
  endfacet
  facet normal -0 0 1
    outer loop
      vertex -10.5792 16.4818 256.08
      vertex -9.13535 15.0842 256.08
      vertex -10.1504 16.7603 256.08
    endloop
  endfacet
  facet normal 0 0 1
    outer loop
      vertex -9.13535 15.0842 256.08
      vertex -10.5792 16.4818 256.08
      vertex -9.52126 14.8336 256.08
    endloop
  endfacet
  facet normal 0 0 1
    outer loop
      vertex -9.52126 14.8336 256.08
      vertex -10.5792 16.4818 256.08
      vertex -10.0645 14.4809 256.08
    endloop
  endfacet
  facet normal -0 0 1
    outer loop
      vertex -11.1827 16.0899 256.08
      vertex -10.0645 14.4809 256.08
      vertex -10.5792 16.4818 256.08
    endloop
  endfacet
  facet normal -0 0 1
    outer loop
      vertex -11.7605 15.6608 256.08
      vertex -10.0645 14.4809 256.08
      vertex -11.1827 16.0899 256.08
    endloop
  endfacet
  facet normal 0 0 1
    outer loop
      vertex -10.0645 14.4809 256.08
      vertex -11.7605 15.6608 256.08
      vertex -10.5845 14.0947 256.08
    endloop
  endfacet
  facet normal 0 0 1
    outer loop
      vertex -10.5845 14.0947 256.08
      vertex -11.7605 15.6608 256.08
      vertex -10.9539 13.8203 256.08
    endloop
  endfacet
  facet normal -0 0 1
    outer loop
      vertex -12.171 15.3559 256.08
      vertex -10.9539 13.8203 256.08
      vertex -11.7605 15.6608 256.08
    endloop
  endfacet
  facet normal 0 0 1
    outer loop
      vertex -10.9539 13.8203 256.08
      vertex -12.171 15.3559 256.08
      vertex -11.3053 13.5233 256.08
    endloop
  endfacet
  facet normal -0 0 1
    outer loop
      vertex -12.7206 14.8914 256.08
      vertex -11.3053 13.5233 256.08
      vertex -12.171 15.3559 256.08
    endloop
  endfacet
  facet normal 0 0 1
    outer loop
      vertex -11.3053 13.5233 256.08
      vertex -12.7206 14.8914 256.08
      vertex -11.8 13.1053 256.08
    endloop
  endfacet
  facet normal -0 0 1
    outer loop
      vertex -13.1112 14.5614 256.08
      vertex -11.8 13.1053 256.08
      vertex -12.7206 14.8914 256.08
    endloop
  endfacet
  facet normal -0 0 1
    outer loop
      vertex -13.4802 14.2075 256.08
      vertex -11.8 13.1053 256.08
      vertex -13.1112 14.5614 256.08
    endloop
  endfacet
  facet normal 0 0 1
    outer loop
      vertex -11.8 13.1053 256.08
      vertex -13.4802 14.2075 256.08
      vertex -12.2675 12.657 256.08
    endloop
  endfacet
  facet normal -0 0 1
    outer loop
      vertex -13.9996 13.7094 256.08
      vertex -12.2675 12.657 256.08
      vertex -13.4802 14.2075 256.08
    endloop
  endfacet
  facet normal 0 0 1
    outer loop
      vertex -12.2675 12.657 256.08
      vertex -13.9996 13.7094 256.08
      vertex -12.5996 12.3385 256.08
    endloop
  endfacet
  facet normal -0 0 1
    outer loop
      vertex -14.4867 13.1797 256.08
      vertex -12.5996 12.3385 256.08
      vertex -13.9996 13.7094 256.08
    endloop
  endfacet
  facet normal 0 0 1
    outer loop
      vertex -12.5996 12.3385 256.08
      vertex -14.4867 13.1797 256.08
      vertex -13.0381 11.8617 256.08
    endloop
  endfacet
  facet normal 0 0 1
    outer loop
      vertex -13.0381 11.8617 256.08
      vertex -14.4867 13.1797 256.08
      vertex -13.3495 11.523 256.08
    endloop
  endfacet
  facet normal -0 0 1
    outer loop
      vertex -14.8328 12.8033 256.08
      vertex -13.3495 11.523 256.08
      vertex -14.4867 13.1797 256.08
    endloop
  endfacet
  facet normal -0 0 1
    outer loop
      vertex -15.1546 12.406 256.08
      vertex -13.3495 11.523 256.08
      vertex -14.8328 12.8033 256.08
    endloop
  endfacet
  facet normal 0 0 1
    outer loop
      vertex -13.3495 11.523 256.08
      vertex -15.1546 12.406 256.08
      vertex -13.6391 11.1654 256.08
    endloop
  endfacet
  facet normal 0 0 1
    outer loop
      vertex -13.6391 11.1654 256.08
      vertex -15.1546 12.406 256.08
      vertex -14.0467 10.662 256.08
    endloop
  endfacet
  facet normal -0 0 1
    outer loop
      vertex -15.6075 11.8467 256.08
      vertex -14.0467 10.662 256.08
      vertex -15.1546 12.406 256.08
    endloop
  endfacet
  facet normal -0 0 1
    outer loop
      vertex -16.0243 11.2601 256.08
      vertex -14.0467 10.662 256.08
      vertex -15.6075 11.8467 256.08
    endloop
  endfacet
  facet normal 0 0 1
    outer loop
      vertex -14.0467 10.662 256.08
      vertex -16.0243 11.2601 256.08
      vertex -14.4219 10.1341 256.08
    endloop
  endfacet
  facet normal 0 0 1
    outer loop
      vertex -14.4219 10.1341 256.08
      vertex -16.0243 11.2601 256.08
      vertex -14.6885 9.759 256.08
    endloop
  endfacet
  facet normal -0 0 1
    outer loop
      vertex -16.3205 10.8433 256.08
      vertex -14.6885 9.759 256.08
      vertex -16.0243 11.2601 256.08
    endloop
  endfacet
  facet normal -0 0 1
    outer loop
      vertex -16.6998 10.2317 256.08
      vertex -14.6885 9.759 256.08
      vertex -16.3205 10.8433 256.08
    endloop
  endfacet
  facet normal 0 0 1
    outer loop
      vertex -14.6885 9.759 256.08
      vertex -16.6998 10.2317 256.08
      vertex -15.0298 9.20852 256.08
    endloop
  endfacet
  facet normal 0 0 1
    outer loop
      vertex -15.0298 9.20852 256.08
      vertex -16.6998 10.2317 256.08
      vertex -15.2723 8.81744 256.08
    endloop
  endfacet
  facet normal 0 0 1
    outer loop
      vertex -15.2723 8.81744 256.08
      vertex -16.6998 10.2317 256.08
      vertex -16.9692 9.79716 256.08
    endloop
  endfacet
  facet normal 0 0 -1
    outer loop
      vertex -0.683085 18.7873 230.16
      vertex -3.04856e-07 20.8827 230.16
      vertex -3.15666e-07 18.7945 230.16
    endloop
  endfacet
  facet normal 0 0 -1
    outer loop
      vertex -0.683085 18.7873 230.16
      vertex -0.758983 20.8748 230.16
      vertex -3.04856e-07 20.8827 230.16
    endloop
  endfacet
  facet normal 0 0 -1
    outer loop
      vertex -0.787376 18.7862 230.16
      vertex -0.758983 20.8748 230.16
      vertex -0.683085 18.7873 230.16
    endloop
  endfacet
  facet normal 0 0 -1
    outer loop
      vertex -0.787376 18.7862 230.16
      vertex -0.874863 20.8736 230.16
      vertex -0.758983 20.8748 230.16
    endloop
  endfacet
  facet normal 0 0 -1
    outer loop
      vertex -0.787376 18.7862 230.16
      vertex -0.990437 20.8651 230.16
      vertex -0.874863 20.8736 230.16
    endloop
  endfacet
  facet normal 0 0 -1
    outer loop
      vertex -1.8614 18.7074 230.16
      vertex -0.990437 20.8651 230.16
      vertex -0.787376 18.7862 230.16
    endloop
  endfacet
  facet normal 0 0 -1
    outer loop
      vertex -2.1838 20.7775 230.16
      vertex -1.8614 18.7074 230.16
      vertex -1.96542 18.6997 230.16
    endloop
  endfacet
  facet normal 0 0 -1
    outer loop
      vertex -1.8614 18.7074 230.16
      vertex -2.1838 20.7775 230.16
      vertex -0.990437 20.8651 230.16
    endloop
  endfacet
  facet normal 0 0 -1
    outer loop
      vertex -1.96542 18.6997 230.16
      vertex -2.29861 20.7617 230.16
      vertex -2.1838 20.7775 230.16
    endloop
  endfacet
  facet normal 0 0 -1
    outer loop
      vertex -3.03237 18.5536 230.16
      vertex -2.29861 20.7617 230.16
      vertex -1.96542 18.6997 230.16
    endloop
  endfacet
  facet normal 0 0 -1
    outer loop
      vertex -3.48412 20.5993 230.16
      vertex -3.03237 18.5536 230.16
      vertex -3.13571 18.5394 230.16
    endloop
  endfacet
  facet normal 0 0 -1
    outer loop
      vertex -3.48412 20.5993 230.16
      vertex -3.13571 18.5394 230.16
      vertex -3.23795 18.5188 230.16
    endloop
  endfacet
  facet normal 0 0 -1
    outer loop
      vertex -3.03237 18.5536 230.16
      vertex -3.48412 20.5993 230.16
      vertex -2.29861 20.7617 230.16
    endloop
  endfacet
  facet normal 0 0 -1
    outer loop
      vertex -4.65709 20.3628 230.16
      vertex -3.23795 18.5188 230.16
      vertex -4.29362 18.3059 230.16
    endloop
  endfacet
  facet normal 0 0 -1
    outer loop
      vertex -3.23795 18.5188 230.16
      vertex -4.65709 20.3628 230.16
      vertex -3.48412 20.5993 230.16
    endloop
  endfacet
  facet normal 0 0 -1
    outer loop
      vertex -4.29362 18.3059 230.16
      vertex -4.77069 20.3399 230.16
      vertex -4.65709 20.3628 230.16
    endloop
  endfacet
  facet normal 0 0 -1
    outer loop
      vertex -5.43458 18.0002 230.16
      vertex -4.77069 20.3399 230.16
      vertex -4.29362 18.3059 230.16
    endloop
  endfacet
  facet normal 0 0 -1
    outer loop
      vertex -5.43458 18.0002 230.16
      vertex -6.03843 20.0002 230.16
      vertex -4.77069 20.3399 230.16
    endloop
  endfacet
  facet normal 0 0 -1
    outer loop
      vertex -5.43458 18.0002 230.16
      vertex -6.14826 19.9633 230.16
      vertex -6.03843 20.0002 230.16
    endloop
  endfacet
  facet normal 0 0 -1
    outer loop
      vertex -6.45525 17.6567 230.16
      vertex -6.14826 19.9633 230.16
      vertex -5.43458 18.0002 230.16
    endloop
  endfacet
  facet normal 0 0 -1
    outer loop
      vertex -7.28234 19.5816 230.16
      vertex -6.45525 17.6567 230.16
      vertex -6.5541 17.6234 230.16
    endloop
  endfacet
  facet normal 0 0 -1
    outer loop
      vertex -7.28234 19.5816 230.16
      vertex -6.5541 17.6234 230.16
      vertex -6.65067 17.584 230.16
    endloop
  endfacet
  facet normal 0 0 -1
    outer loop
      vertex -6.45525 17.6567 230.16
      vertex -7.28234 19.5816 230.16
      vertex -6.14826 19.9633 230.16
    endloop
  endfacet
  facet normal 0 0 -1
    outer loop
      vertex -8.39021 19.1295 230.16
      vertex -6.65067 17.584 230.16
      vertex -7.64775 17.1771 230.16
    endloop
  endfacet
  facet normal 0 0 -1
    outer loop
      vertex -8.49751 19.0857 230.16
      vertex -7.64775 17.1771 230.16
      vertex -7.74166 17.1317 230.16
    endloop
  endfacet
  facet normal 0 0 -1
    outer loop
      vertex -6.65067 17.584 230.16
      vertex -8.39021 19.1295 230.16
      vertex -7.28234 19.5816 230.16
    endloop
  endfacet
  facet normal 0 0 -1
    outer loop
      vertex -7.64775 17.1771 230.16
      vertex -8.49751 19.0857 230.16
      vertex -8.39021 19.1295 230.16
    endloop
  endfacet
  facet normal 0 0 -1
    outer loop
      vertex -9.57481 18.5649 230.16
      vertex -7.74166 17.1317 230.16
      vertex -8.71122 16.663 230.16
    endloop
  endfacet
  facet normal 0 0 -1
    outer loop
      vertex -9.7801 18.4576 230.16
      vertex -8.71122 16.663 230.16
      vertex -8.80209 16.6118 230.16
    endloop
  endfacet
  facet normal 0 0 -1
    outer loop
      vertex -7.74166 17.1317 230.16
      vertex -9.57481 18.5649 230.16
      vertex -8.49751 19.0857 230.16
    endloop
  endfacet
  facet normal 0 0 -1
    outer loop
      vertex -8.71122 16.663 230.16
      vertex -9.67914 18.5145 230.16
      vertex -9.57481 18.5649 230.16
    endloop
  endfacet
  facet normal 0 0 -1
    outer loop
      vertex -9.7801 18.4576 230.16
      vertex -8.80209 16.6118 230.16
      vertex -9.74032 16.0832 230.16
    endloop
  endfacet
  facet normal 0 0 -1
    outer loop
      vertex -8.71122 16.663 230.16
      vertex -9.7801 18.4576 230.16
      vertex -9.67914 18.5145 230.16
    endloop
  endfacet
  facet normal 0 0 -1
    outer loop
      vertex -10.9198 17.8071 230.16
      vertex -9.74032 16.0832 230.16
      vertex -10.6435 15.4966 230.16
    endloop
  endfacet
  facet normal 0 0 -1
    outer loop
      vertex -11.9233 17.1554 230.16
      vertex -10.6435 15.4966 230.16
      vertex -10.731 15.4398 230.16
    endloop
  endfacet
  facet normal 0 0 -1
    outer loop
      vertex -9.74032 16.0832 230.16
      vertex -10.8226 17.8702 230.16
      vertex -9.7801 18.4576 230.16
    endloop
  endfacet
  facet normal 0 0 -1
    outer loop
      vertex -9.74032 16.0832 230.16
      vertex -10.9198 17.8071 230.16
      vertex -10.8226 17.8702 230.16
    endloop
  endfacet
  facet normal 0 0 -1
    outer loop
      vertex -11.9233 17.1554 230.16
      vertex -10.731 15.4398 230.16
      vertex -11.5955 14.7978 230.16
    endloop
  endfacet
  facet normal 0 0 -1
    outer loop
      vertex -12.8839 16.4419 230.16
      vertex -11.5955 14.7978 230.16
      vertex -11.6793 14.7356 230.16
    endloop
  endfacet
  facet normal 0 0 -1
    outer loop
      vertex -13.0655 16.2981 230.16
      vertex -11.6793 14.7356 230.16
      vertex -11.7589 14.6682 230.16
    endloop
  endfacet
  facet normal 0 0 -1
    outer loop
      vertex -10.6435 15.4966 230.16
      vertex -11.9233 17.1554 230.16
      vertex -10.9198 17.8071 230.16
    endloop
  endfacet
  facet normal 0 0 -1
    outer loop
      vertex -13.0655 16.2981 230.16
      vertex -11.7589 14.6682 230.16
      vertex -12.5815 13.9731 230.16
    endloop
  endfacet
  facet normal 0 0 -1
    outer loop
      vertex -11.5955 14.7978 230.16
      vertex -12.8839 16.4419 230.16
      vertex -11.9233 17.1554 230.16
    endloop
  endfacet
  facet normal 0 0 -1
    outer loop
      vertex -11.6793 14.7356 230.16
      vertex -12.977 16.3729 230.16
      vertex -12.8839 16.4419 230.16
    endloop
  endfacet
  facet normal 0 0 -1
    outer loop
      vertex -11.6793 14.7356 230.16
      vertex -13.0655 16.2981 230.16
      vertex -12.977 16.3729 230.16
    endloop
  endfacet
  facet normal 0 0 -1
    outer loop
      vertex -13.9794 15.5257 230.16
      vertex -12.5815 13.9731 230.16
      vertex -13.3588 13.2278 230.16
    endloop
  endfacet
  facet normal 0 0 -1
    outer loop
      vertex -14.8431 14.6975 230.16
      vertex -13.3588 13.2278 230.16
      vertex -13.434 13.1556 230.16
    endloop
  endfacet
  facet normal 0 0 -1
    outer loop
      vertex -12.5815 13.9731 230.16
      vertex -13.9794 15.5257 230.16
      vertex -13.0655 16.2981 230.16
    endloop
  endfacet
  facet normal 0 0 -1
    outer loop
      vertex -15.0051 14.532 230.16
      vertex -13.434 13.1556 230.16
      vertex -14.163 12.3629 230.16
    endloop
  endfacet
  facet normal 0 0 -1
    outer loop
      vertex -15.8151 13.6512 230.16
      vertex -14.163 12.3629 230.16
      vertex -14.2336 12.2861 230.16
    endloop
  endfacet
  facet normal 0 0 -1
    outer loop
      vertex -15.8151 13.6512 230.16
      vertex -14.2336 12.2861 230.16
      vertex -14.2992 12.205 230.16
    endloop
  endfacet
  facet normal 0 0 -1
    outer loop
      vertex -13.3588 13.2278 230.16
      vertex -14.8431 14.6975 230.16
      vertex -13.9794 15.5257 230.16
    endloop
  endfacet
  facet normal 0 0 -1
    outer loop
      vertex -13.434 13.1556 230.16
      vertex -14.9267 14.6173 230.16
      vertex -14.8431 14.6975 230.16
    endloop
  endfacet
  facet normal 0 0 -1
    outer loop
      vertex -16.5681 12.7213 230.16
      vertex -14.2992 12.205 230.16
      vertex -14.9769 11.3681 230.16
    endloop
  endfacet
  facet normal 0 0 -1
    outer loop
      vertex -13.434 13.1556 230.16
      vertex -15.0051 14.532 230.16
      vertex -14.9267 14.6173 230.16
    endloop
  endfacet
  facet normal 0 0 -1
    outer loop
      vertex -16.641 12.6312 230.16
      vertex -14.9769 11.3681 230.16
      vertex -15.0373 11.2831 230.16
    endloop
  endfacet
  facet normal 0 0 -1
    outer loop
      vertex -17.3342 11.6559 230.16
      vertex -15.0373 11.2831 230.16
      vertex -15.6612 10.4053 230.16
    endloop
  endfacet
  facet normal 0 0 -1
    outer loop
      vertex -14.163 12.3629 230.16
      vertex -15.8151 13.6512 230.16
      vertex -15.0051 14.532 230.16
    endloop
  endfacet
  facet normal 0 0 -1
    outer loop
      vertex -17.4013 11.5614 230.16
      vertex -15.6612 10.4053 230.16
      vertex -16.2287 9.49 230.16
    endloop
  endfacet
  facet normal 0 0 -1
    outer loop
      vertex -18.0319 10.5444 230.16
      vertex -16.2287 9.49 230.16
      vertex -16.2836 9.40136 230.16
    endloop
  endfacet
  facet normal 0 0 -1
    outer loop
      vertex -14.2992 12.205 230.16
      vertex -16.5681 12.7213 230.16
      vertex -15.8151 13.6512 230.16
    endloop
  endfacet
  facet normal 0 0 -1
    outer loop
      vertex -14.9769 11.3681 230.16
      vertex -16.641 12.6312 230.16
      vertex -16.5681 12.7213 230.16
    endloop
  endfacet
  facet normal 0 0 -1
    outer loop
      vertex -15.0373 11.2831 230.16
      vertex -17.3342 11.6559 230.16
      vertex -16.641 12.6312 230.16
    endloop
  endfacet
  facet normal 0 0 -1
    outer loop
      vertex -15.6612 10.4053 230.16
      vertex -17.4013 11.5614 230.16
      vertex -17.3342 11.6559 230.16
    endloop
  endfacet
  facet normal 0 0 -1
    outer loop
      vertex -16.2287 9.49 230.16
      vertex -18.0319 10.5444 230.16
      vertex -17.4013 11.5614 230.16
    endloop
  endfacet
  facet normal 0 -0 -1
    outer loop
      vertex -18.0319 10.5444 230.16
      vertex -16.2836 9.40136 230.16
      vertex -18.0929 10.446 230.16
    endloop
  endfacet
  facet normal -0.0731818 0.996403 0.0427183
    outer loop
      vertex -2.18071 20.7481 231.034
      vertex -2.13663 20.3287 240.892
      vertex -0.873626 20.8441 231.034
    endloop
  endfacet
  facet normal -0.135552 0.989403 0.0520415
    outer loop
      vertex -2.13663 20.3287 240.892
      vertex -3.40886 20.1544 240.892
      vertex -2.08411 19.829 250.529
    endloop
  endfacet
  facet normal -0.776423 0.628762 0.0427187
    outer loop
      vertex -15.7927 13.6319 231.034
      vertex -16.6175 12.6134 231.034
      vertex -15.4735 13.3563 240.892
    endloop
  endfacet
  facet normal -0.814042 0.57847 0.052041
    outer loop
      vertex -16.2816 12.3584 240.892
      vertex -17.0254 11.3117 240.892
      vertex -15.8814 12.0546 250.529
    endloop
  endfacet
  facet normal -0.318518 0.946488 0.0520369
    outer loop
      vertex -7.12503 19.1586 240.892
      vertex -6.94991 18.6877 250.529
      vertex -5.76278 19.0872 250.529
    endloop
  endfacet
  facet normal -0.776709 0.628952 0.0337953
    outer loop
      vertex -16.5681 12.7213 230.16
      vertex -15.7927 13.6319 231.034
      vertex -15.8151 13.6512 230.16
    endloop
  endfacet
  facet normal -0.77669 0.628978 0.0337508
    outer loop
      vertex -15.7927 13.6319 231.034
      vertex -16.5681 12.7213 230.16
      vertex -16.6175 12.6134 231.034
    endloop
  endfacet
  facet normal -0.0732069 0.996746 0.0337335
    outer loop
      vertex -0.990437 20.8651 230.16
      vertex -2.18071 20.7481 231.034
      vertex -0.873626 20.8441 231.034
    endloop
  endfacet
  facet normal -0.0731672 0.996747 0.0337877
    outer loop
      vertex -2.18071 20.7481 231.034
      vertex -0.990437 20.8651 230.16
      vertex -2.1838 20.7775 230.16
    endloop
  endfacet
  facet normal -0.814899 0.578621 0.0337277
    outer loop
      vertex -17.4013 11.5614 230.16
      vertex -17.3767 11.5451 231.034
      vertex -17.3342 11.6559 230.16
    endloop
  endfacet
  facet normal -0.434431 0.898583 0.0618004
    outer loop
      vertex -9.2373 17.6693 250.529
      vertex -8.61766 17.5871 256.08
      vertex -8.1096 18.2145 250.529
    endloop
  endfacet
  facet normal -0.434364 0.898615 0.0617934
    outer loop
      vertex -8.61766 17.5871 256.08
      vertex -9.2373 17.6693 250.529
      vertex -9.07797 17.3646 256.08
    endloop
  endfacet
  facet normal -0.258665 0.965379 0.0336984
    outer loop
      vertex -4.77069 20.3399 230.16
      vertex -6.02989 19.972 231.034
      vertex -4.76394 20.3112 231.034
    endloop
  endfacet
  facet normal -0.258679 0.965376 0.0336759
    outer loop
      vertex -6.02989 19.972 231.034
      vertex -4.77069 20.3399 230.16
      vertex -6.03843 20.0002 230.16
    endloop
  endfacet
  facet normal -0.776964 0.628642 0.0336939
    outer loop
      vertex -16.641 12.6312 230.16
      vertex -16.6175 12.6134 231.034
      vertex -16.5681 12.7213 230.16
    endloop
  endfacet
  facet normal -0.595935 0.80232 0.0338303
    outer loop
      vertex -12.8839 16.4419 230.16
      vertex -11.9064 17.1311 231.034
      vertex -11.9233 17.1554 230.16
    endloop
  endfacet
  facet normal -0.59587 0.802373 0.0337155
    outer loop
      vertex -11.9064 17.1311 231.034
      vertex -12.8839 16.4419 230.16
      vertex -12.9586 16.3497 231.034
    endloop
  endfacet
  facet normal -0.434991 0.899801 0.0337794
    outer loop
      vertex -9.57481 18.5649 230.16
      vertex -8.48549 19.0587 231.034
      vertex -8.49751 19.0857 230.16
    endloop
  endfacet
  facet normal -0.434971 0.899812 0.0337477
    outer loop
      vertex -8.48549 19.0587 231.034
      vertex -9.57481 18.5649 230.16
      vertex -9.66546 18.4883 231.034
    endloop
  endfacet
  facet normal -0.258618 0.965034 0.0427215
    outer loop
      vertex -4.76394 20.3112 231.034
      vertex -5.90799 19.5682 240.892
      vertex -4.66764 19.9006 240.892
    endloop
  endfacet
  facet normal -0.258575 0.965046 0.0427273
    outer loop
      vertex -5.90799 19.5682 240.892
      vertex -4.76394 20.3112 231.034
      vertex -6.02989 19.972 231.034
    endloop
  endfacet
  facet normal -0.377712 0.925307 0.0337796
    outer loop
      vertex -8.49751 19.0857 230.16
      vertex -8.48549 19.0587 231.034
      vertex -8.39021 19.1295 230.16
    endloop
  endfacet
  facet normal -0.0730888 0.995409 0.061801
    outer loop
      vertex -2.08411 19.829 250.529
      vertex -2.04816 19.487 256.08
      vertex -1.33043 19.5397 256.08
    endloop
  endfacet
  facet normal -0.197379 0.978945 0.0520437
    outer loop
      vertex -4.66764 19.9006 240.892
      vertex -4.55291 19.4114 250.529
      vertex -3.40886 20.1544 240.892
    endloop
  endfacet
  facet normal -0.434737 0.899923 0.0337817
    outer loop
      vertex -9.67914 18.5145 230.16
      vertex -9.66546 18.4883 231.034
      vertex -9.57481 18.5649 230.16
    endloop
  endfacet
  facet normal -0.84874 0.526244 0.0520363
    outer loop
      vertex -17.7021 10.2203 240.892
      vertex -17.267 9.96911 250.529
      vertex -17.0254 11.3117 240.892
    endloop
  endfacet
  facet normal -0.735838 0.676315 0.0337825
    outer loop
      vertex -14.9267 14.6173 230.16
      vertex -15.0051 14.532 230.16
      vertex -14.9056 14.5966 231.034
    endloop
  endfacet
  facet normal -0.813619 0.578105 0.0617976
    outer loop
      vertex -15.8814 12.0546 250.529
      vertex -16.0243 11.2601 256.08
      vertex -15.6075 11.8467 256.08
    endloop
  endfacet
  facet normal -0.691725 0.721375 0.0336672
    outer loop
      vertex -14.8431 14.6975 230.16
      vertex -13.9597 15.5038 231.034
      vertex -13.9794 15.5257 230.16
    endloop
  endfacet
  facet normal -0.691793 0.721304 0.0338015
    outer loop
      vertex -13.9597 15.5038 231.034
      vertex -14.8431 14.6975 230.16
      vertex -14.9056 14.5966 231.034
    endloop
  endfacet
  facet normal -0.0733061 0.996738 0.0337465
    outer loop
      vertex -0.874863 20.8736 230.16
      vertex -0.990437 20.8651 230.16
      vertex -0.873626 20.8441 231.034
    endloop
  endfacet
  facet normal -0.776071 0.628495 0.0520444
    outer loop
      vertex -15.4735 13.3563 240.892
      vertex -15.8814 12.0546 250.529
      vertex -15.0931 13.028 250.529
    endloop
  endfacet
  facet normal -0.735108 0.675949 0.052046
    outer loop
      vertex -14.6043 14.3016 240.892
      vertex -15.0931 13.028 250.529
      vertex -14.2453 13.95 250.529
    endloop
  endfacet
  facet normal -0.595093 0.802944 0.0338421
    outer loop
      vertex -12.977 16.3729 230.16
      vertex -12.9586 16.3497 231.034
      vertex -12.8839 16.4419 230.16
    endloop
  endfacet
  facet normal -0.644565 0.762776 0.0520414
    outer loop
      vertex -13.6775 15.1904 240.892
      vertex -13.3413 14.817 250.529
      vertex -12.6967 16.0192 240.892
    endloop
  endfacet
  facet normal -0.43478 0.899523 0.0427169
    outer loop
      vertex -9.66546 18.4883 231.034
      vertex -9.47007 18.1146 240.892
      vertex -8.31396 18.6734 240.892
    endloop
  endfacet
  facet normal -0.490263 0.870019 0.052043
    outer loop
      vertex -9.47007 18.1146 240.892
      vertex -10.3285 17.0544 250.529
      vertex -9.2373 17.6693 250.529
    endloop
  endfacet
  facet normal -0.197497 0.979724 0.033697
    outer loop
      vertex -4.77069 20.3399 230.16
      vertex -4.76394 20.3112 231.034
      vertex -4.65709 20.3628 230.16
    endloop
  endfacet
  facet normal -0.197466 0.979378 0.0427215
    outer loop
      vertex -4.76394 20.3112 231.034
      vertex -4.66764 19.9006 240.892
      vertex -3.40886 20.1544 240.892
    endloop
  endfacet
  facet normal -0.490255 0.870024 0.0520442
    outer loop
      vertex -10.5888 17.4842 240.892
      vertex -10.3285 17.0544 250.529
      vertex -9.47007 18.1146 240.892
    endloop
  endfacet
  facet normal -0.73542 0.676263 0.042719
    outer loop
      vertex -15.7927 13.6319 231.034
      vertex -15.4735 13.3563 240.892
      vertex -14.9056 14.5966 231.034
    endloop
  endfacet
  facet normal -0.544171 0.837886 0.0427193
    outer loop
      vertex -10.8073 17.8449 231.034
      vertex -11.6657 16.7848 240.892
      vertex -10.5888 17.4842 240.892
    endloop
  endfacet
  facet normal -0.814629 0.579002 0.0336957
    outer loop
      vertex -17.3342 11.6559 230.16
      vertex -16.6175 12.6134 231.034
      vertex -16.641 12.6312 230.16
    endloop
  endfacet
  facet normal -0.814663 0.57895 0.0337809
    outer loop
      vertex -16.6175 12.6134 231.034
      vertex -17.3342 11.6559 230.16
      vertex -17.3767 11.5451 231.034
    endloop
  endfacet
  facet normal -0.776087 0.628475 0.0520412
    outer loop
      vertex -16.2816 12.3584 240.892
      vertex -15.8814 12.0546 250.529
      vertex -15.4735 13.3563 240.892
    endloop
  endfacet
  facet normal -0.849451 0.52659 0.0337008
    outer loop
      vertex -18.0929 10.446 230.16
      vertex -18.0674 10.4312 231.034
      vertex -18.0319 10.5444 230.16
    endloop
  endfacet
  facet normal -0.77643 0.628754 0.0427201
    outer loop
      vertex -16.6175 12.6134 231.034
      vertex -16.2816 12.3584 240.892
      vertex -15.4735 13.3563 240.892
    endloop
  endfacet
  facet normal -0.814384 0.578752 0.0427241
    outer loop
      vertex -17.3767 11.5451 231.034
      vertex -17.0254 11.3117 240.892
      vertex -16.6175 12.6134 231.034
    endloop
  endfacet
  facet normal -0.0104063 0.999033 0.0427086
    outer loop
      vertex -0.873626 20.8441 231.034
      vertex -3.05746e-07 20.7108 234.365
      vertex -3.05009e-07 20.8532 231.034
    endloop
  endfacet
  facet normal -0.0104667 0.999032 0.0427244
    outer loop
      vertex -3.05746e-07 20.7108 234.365
      vertex -0.873626 20.8441 231.034
      vertex -0.855965 20.4227 240.892
    endloop
  endfacet
  facet normal -0.0105043 0.999032 0.0427194
    outer loop
      vertex -3.05746e-07 20.7108 234.365
      vertex -0.855965 20.4227 240.892
      vertex -3.07191e-07 20.4317 240.892
    endloop
  endfacet
  facet normal -0.010525 0.998591 0.0520152
    outer loop
      vertex -3.08938e-07 20.0941 247.369
      vertex -0.834926 19.9207 250.529
      vertex -3.09791e-07 19.9295 250.529
    endloop
  endfacet
  facet normal -0.0104302 0.998591 0.0520402
    outer loop
      vertex -0.834926 19.9207 250.529
      vertex -3.08938e-07 20.0941 247.369
      vertex -0.855965 20.4227 240.892
    endloop
  endfacet
  facet normal -0.544347 0.838178 0.0338168
    outer loop
      vertex -10.9198 17.8071 230.16
      vertex -11.9064 17.1311 231.034
      vertex -10.8073 17.8449 231.034
    endloop
  endfacet
  facet normal -0.544339 0.838183 0.0338297
    outer loop
      vertex -11.9064 17.1311 231.034
      vertex -10.9198 17.8071 230.16
      vertex -11.9233 17.1554 230.16
    endloop
  endfacet
  facet normal -0.318542 0.946479 0.0520403
    outer loop
      vertex -5.90799 19.5682 240.892
      vertex -7.12503 19.1586 240.892
      vertex -5.76278 19.0872 250.529
    endloop
  endfacet
  facet normal -0.490627 0.870715 0.0337695
    outer loop
      vertex -9.7801 18.4576 230.16
      vertex -10.8073 17.8449 231.034
      vertex -9.66546 18.4883 231.034
    endloop
  endfacet
  facet normal -0.490612 0.870723 0.0337936
    outer loop
      vertex -10.8073 17.8449 231.034
      vertex -9.7801 18.4576 230.16
      vertex -10.8226 17.8702 230.16
    endloop
  endfacet
  facet normal -0.434588 0.899125 0.0520308
    outer loop
      vertex -8.31396 18.6734 240.892
      vertex -9.47007 18.1146 240.892
      vertex -8.1096 18.2145 250.529
    endloop
  endfacet
  facet normal -0.31834 0.94596 0.0617938
    outer loop
      vertex -6.94991 18.6877 250.529
      vertex -6.34546 18.5285 256.08
      vertex -5.76278 19.0872 250.529
    endloop
  endfacet
  facet normal -0.318392 0.945943 0.061799
    outer loop
      vertex -6.34546 18.5285 256.08
      vertex -6.94991 18.6877 250.529
      vertex -6.83003 18.3654 256.08
    endloop
  endfacet
  facet normal -0.25848 0.964614 0.0520436
    outer loop
      vertex -4.66764 19.9006 240.892
      vertex -5.76278 19.0872 250.529
      vertex -4.55291 19.4114 250.529
    endloop
  endfacet
  facet normal -0.258504 0.964607 0.0520404
    outer loop
      vertex -5.76278 19.0872 250.529
      vertex -4.66764 19.9006 240.892
      vertex -5.90799 19.5682 240.892
    endloop
  endfacet
  facet normal -0.135497 0.988848 0.0618067
    outer loop
      vertex -3.32507 19.659 250.529
      vertex -3.26772 19.3199 256.08
      vertex -2.55471 19.4176 256.08
    endloop
  endfacet
  facet normal -0.258331 0.964078 0.0618015
    outer loop
      vertex -4.55291 19.4114 250.529
      vertex -5.66338 18.758 256.08
      vertex -4.47438 19.0766 256.08
    endloop
  endfacet
  facet normal -0.258336 0.964076 0.0618001
    outer loop
      vertex -5.66338 18.758 256.08
      vertex -4.55291 19.4114 250.529
      vertex -5.76278 19.0872 250.529
    endloop
  endfacet
  facet normal -0.775591 0.628203 0.0617985
    outer loop
      vertex -15.0931 13.028 250.529
      vertex -15.1546 12.406 256.08
      vertex -14.8328 12.8033 256.08
    endloop
  endfacet
  facet normal -0.775639 0.628145 0.0617914
    outer loop
      vertex -15.1546 12.406 256.08
      vertex -15.0931 13.028 250.529
      vertex -15.8814 12.0546 250.529
    endloop
  endfacet
  facet normal -0.645046 0.763395 0.0338264
    outer loop
      vertex -13.0655 16.2981 230.16
      vertex -13.9597 15.5038 231.034
      vertex -12.9586 16.3497 231.034
    endloop
  endfacet
  facet normal -0.645138 0.763324 0.0336682
    outer loop
      vertex -13.9597 15.5038 231.034
      vertex -13.0655 16.2981 230.16
      vertex -13.9794 15.5257 230.16
    endloop
  endfacet
  facet normal -0.645147 0.763309 0.0338438
    outer loop
      vertex -12.977 16.3729 230.16
      vertex -13.0655 16.2981 230.16
      vertex -12.9586 16.3497 231.034
    endloop
  endfacet
  facet normal -0.735444 0.676238 0.0427145
    outer loop
      vertex -14.9056 14.5966 231.034
      vertex -15.4735 13.3563 240.892
      vertex -14.6043 14.3016 240.892
    endloop
  endfacet
  facet normal -0.377616 0.925346 0.0337775
    outer loop
      vertex -8.39021 19.1295 230.16
      vertex -7.27204 19.5539 231.034
      vertex -7.28234 19.5816 230.16
    endloop
  endfacet
  facet normal -0.377625 0.925342 0.0337918
    outer loop
      vertex -7.27204 19.5539 231.034
      vertex -8.39021 19.1295 230.16
      vertex -8.48549 19.0587 231.034
    endloop
  endfacet
  facet normal -0.849397 0.526676 0.03373
    outer loop
      vertex -18.0319 10.5444 230.16
      vertex -17.3767 11.5451 231.034
      vertex -17.4013 11.5614 230.16
    endloop
  endfacet
  facet normal -0.849391 0.526685 0.0337155
    outer loop
      vertex -17.3767 11.5451 231.034
      vertex -18.0319 10.5444 230.16
      vertex -18.0674 10.4312 231.034
    endloop
  endfacet
  facet normal -0.814402 0.578726 0.0427199
    outer loop
      vertex -16.6175 12.6134 231.034
      vertex -17.0254 11.3117 240.892
      vertex -16.2816 12.3584 240.892
    endloop
  endfacet
  facet normal -0.135614 0.98984 0.0427179
    outer loop
      vertex -3.47919 20.5702 231.034
      vertex -3.40886 20.1544 240.892
      vertex -2.18071 20.7481 231.034
    endloop
  endfacet
  facet normal -0.135661 0.990182 0.0337082
    outer loop
      vertex -2.29861 20.7617 230.16
      vertex -3.47919 20.5702 231.034
      vertex -2.18071 20.7481 231.034
    endloop
  endfacet
  facet normal -0.135643 0.990183 0.0337335
    outer loop
      vertex -3.47919 20.5702 231.034
      vertex -2.29861 20.7617 230.16
      vertex -3.48412 20.5993 230.16
    endloop
  endfacet
  facet normal -0.595072 0.801292 0.0618085
    outer loop
      vertex -12.3846 15.6255 250.529
      vertex -11.7605 15.6608 256.08
      vertex -11.379 16.3723 250.529
    endloop
  endfacet
  facet normal -0.59513 0.801249 0.0618152
    outer loop
      vertex -11.7605 15.6608 256.08
      vertex -12.3846 15.6255 250.529
      vertex -12.171 15.3559 256.08
    endloop
  endfacet
  facet normal -0.489985 0.869538 0.0617938
    outer loop
      vertex -9.2373 17.6693 250.529
      vertex -9.5234 17.1136 256.08
      vertex -9.07797 17.3646 256.08
    endloop
  endfacet
  facet normal -0.48999 0.869535 0.0617933
    outer loop
      vertex -9.5234 17.1136 256.08
      vertex -9.2373 17.6693 250.529
      vertex -10.3285 17.0544 250.529
    endloop
  endfacet
  facet normal -0.377333 0.924615 0.0520305
    outer loop
      vertex -8.31396 18.6734 240.892
      vertex -8.1096 18.2145 250.529
      vertex -7.12503 19.1586 240.892
    endloop
  endfacet
  facet normal -0.377077 0.924118 0.0618016
    outer loop
      vertex -8.1096 18.2145 250.529
      vertex -7.49635 18.0935 256.08
      vertex -6.94991 18.6877 250.529
    endloop
  endfacet
  facet normal -0.377147 0.924089 0.0618087
    outer loop
      vertex -7.49635 18.0935 256.08
      vertex -8.1096 18.2145 250.529
      vertex -7.96973 17.9003 256.08
    endloop
  endfacet
  facet normal -0.434375 0.898609 0.0618085
    outer loop
      vertex -8.1096 18.2145 250.529
      vertex -8.61766 17.5871 256.08
      vertex -7.96973 17.9003 256.08
    endloop
  endfacet
  facet normal -0.318716 0.946887 0.0427225
    outer loop
      vertex -7.27204 19.5539 231.034
      vertex -7.12503 19.1586 240.892
      vertex -6.02989 19.972 231.034
    endloop
  endfacet
  facet normal -0.318683 0.946898 0.0427272
    outer loop
      vertex -6.02989 19.972 231.034
      vertex -7.12503 19.1586 240.892
      vertex -5.90799 19.5682 240.892
    endloop
  endfacet
  facet normal -0.0103265 0.998034 0.0618173
    outer loop
      vertex -3.10813e-07 19.732 253.718
      vertex -0.309274 19.5825 256.08
      vertex -3.1157e-07 19.5857 256.08
    endloop
  endfacet
  facet normal -0.197349 0.978383 0.0618016
    outer loop
      vertex -4.55291 19.4114 250.529
      vertex -4.47438 19.0766 256.08
      vertex -3.76891 19.2189 256.08
    endloop
  endfacet
  facet normal -0.377496 0.925025 0.0427225
    outer loop
      vertex -7.27204 19.5539 231.034
      vertex -8.48549 19.0587 231.034
      vertex -7.12503 19.1586 240.892
    endloop
  endfacet
  facet normal -0.197408 0.978939 0.0520398
    outer loop
      vertex -3.40886 20.1544 240.892
      vertex -4.55291 19.4114 250.529
      vertex -3.32507 19.659 250.529
    endloop
  endfacet
  facet normal -0.197171 0.978419 0.0618068
    outer loop
      vertex -3.32507 19.659 250.529
      vertex -3.76891 19.2189 256.08
      vertex -3.26772 19.3199 256.08
    endloop
  endfacet
  facet normal -0.197298 0.978394 0.0617947
    outer loop
      vertex -3.76891 19.2189 256.08
      vertex -3.32507 19.659 250.529
      vertex -4.55291 19.4114 250.529
    endloop
  endfacet
  facet normal -0.595405 0.801739 0.052036
    outer loop
      vertex -12.6967 16.0192 240.892
      vertex -12.3846 15.6255 250.529
      vertex -11.379 16.3723 250.529
    endloop
  endfacet
  facet normal -0.735118 0.675938 0.0520442
    outer loop
      vertex -15.4735 13.3563 240.892
      vertex -15.0931 13.028 250.529
      vertex -14.6043 14.3016 240.892
    endloop
  endfacet
  facet normal -0.73565 0.676518 0.0337933
    outer loop
      vertex -15.7927 13.6319 231.034
      vertex -15.0051 14.532 230.16
      vertex -15.8151 13.6512 230.16
    endloop
  endfacet
  facet normal -0.735673 0.676496 0.0337504
    outer loop
      vertex -15.0051 14.532 230.16
      vertex -15.7927 13.6319 231.034
      vertex -14.9056 14.5966 231.034
    endloop
  endfacet
  facet normal -0.543581 0.837078 0.0618079
    outer loop
      vertex -11.379 16.3723 250.529
      vertex -11.1827 16.0899 256.08
      vertex -10.5792 16.4818 256.08
    endloop
  endfacet
  facet normal -0.775669 0.628107 0.0617977
    outer loop
      vertex -15.8814 12.0546 250.529
      vertex -15.6075 11.8467 256.08
      vertex -15.1546 12.406 256.08
    endloop
  endfacet
  facet normal -0.848273 0.525942 0.0617966
    outer loop
      vertex -17.267 9.96911 250.529
      vertex -16.6998 10.2317 256.08
      vertex -16.607 11.0336 250.529
    endloop
  endfacet
  facet normal -0.848291 0.525912 0.0618
    outer loop
      vertex -16.6998 10.2317 256.08
      vertex -17.267 9.96911 250.529
      vertex -16.9692 9.79716 256.08
    endloop
  endfacet
  facet normal -0.849099 0.526504 0.0427241
    outer loop
      vertex -17.3767 11.5451 231.034
      vertex -18.0674 10.4312 231.034
      vertex -17.0254 11.3117 240.892
    endloop
  endfacet
  facet normal -0.849115 0.526476 0.0427283
    outer loop
      vertex -18.0674 10.4312 231.034
      vertex -17.7021 10.2203 240.892
      vertex -17.0254 11.3117 240.892
    endloop
  endfacet
  facet normal -0.0731032 0.995966 0.0520414
    outer loop
      vertex -2.13663 20.3287 240.892
      vertex -2.08411 19.829 250.529
      vertex -0.855965 20.4227 240.892
    endloop
  endfacet
  facet normal -0.135612 0.989841 0.0427183
    outer loop
      vertex -2.18071 20.7481 231.034
      vertex -3.40886 20.1544 240.892
      vertex -2.13663 20.3287 240.892
    endloop
  endfacet
  facet normal -0.136256 0.990097 0.0337871
    outer loop
      vertex -2.1838 20.7775 230.16
      vertex -2.29861 20.7617 230.16
      vertex -2.18071 20.7481 231.034
    endloop
  endfacet
  facet normal -0.0731356 0.996406 0.0427244
    outer loop
      vertex -0.873626 20.8441 231.034
      vertex -2.13663 20.3287 240.892
      vertex -0.855965 20.4227 240.892
    endloop
  endfacet
  facet normal -0.197535 0.979715 0.0337341
    outer loop
      vertex -4.65709 20.3628 230.16
      vertex -3.47919 20.5702 231.034
      vertex -3.48412 20.5993 230.16
    endloop
  endfacet
  facet normal -0.197508 0.979722 0.0336956
    outer loop
      vertex -3.47919 20.5702 231.034
      vertex -4.65709 20.3628 230.16
      vertex -4.76394 20.3112 231.034
    endloop
  endfacet
  facet normal -0.19744 0.979384 0.042718
    outer loop
      vertex -3.47919 20.5702 231.034
      vertex -4.76394 20.3112 231.034
      vertex -3.40886 20.1544 240.892
    endloop
  endfacet
  facet normal -0.318293 0.945976 0.0618003
    outer loop
      vertex -5.76278 19.0872 250.529
      vertex -6.34546 18.5285 256.08
      vertex -5.66338 18.758 256.08
    endloop
  endfacet
  facet normal -0.595636 0.802117 0.0427209
    outer loop
      vertex -11.9064 17.1311 231.034
      vertex -12.6967 16.0192 240.892
      vertex -11.6657 16.7848 240.892
    endloop
  endfacet
  facet normal -0.691245 0.720744 0.0520463
    outer loop
      vertex -14.6043 14.3016 240.892
      vertex -14.2453 13.95 250.529
      vertex -13.3413 14.817 250.529
    endloop
  endfacet
  facet normal -0.434673 0.899084 0.0520432
    outer loop
      vertex -9.47007 18.1146 240.892
      vertex -9.2373 17.6693 250.529
      vertex -8.1096 18.2145 250.529
    endloop
  endfacet
  facet normal -0.377287 0.924633 0.052037
    outer loop
      vertex -7.12503 19.1586 240.892
      vertex -8.1096 18.2145 250.529
      vertex -6.94991 18.6877 250.529
    endloop
  endfacet
  facet normal -0.490459 0.870417 0.0427171
    outer loop
      vertex -9.66546 18.4883 231.034
      vertex -10.8073 17.8449 231.034
      vertex -9.47007 18.1146 240.892
    endloop
  endfacet
  facet normal -0.490472 0.870409 0.0427191
    outer loop
      vertex -10.8073 17.8449 231.034
      vertex -10.5888 17.4842 240.892
      vertex -9.47007 18.1146 240.892
    endloop
  endfacet
  facet normal -0.377095 0.924111 0.0617991
    outer loop
      vertex -6.94991 18.6877 250.529
      vertex -7.49635 18.0935 256.08
      vertex -6.83003 18.3654 256.08
    endloop
  endfacet
  facet normal -0.135478 0.988851 0.061801
    outer loop
      vertex -2.08411 19.829 250.529
      vertex -2.55471 19.4176 256.08
      vertex -2.04816 19.487 256.08
    endloop
  endfacet
  facet normal -0.135464 0.988853 0.0618024
    outer loop
      vertex -2.55471 19.4176 256.08
      vertex -2.08411 19.829 250.529
      vertex -3.32507 19.659 250.529
    endloop
  endfacet
  facet normal -0.135539 0.989404 0.0520398
    outer loop
      vertex -3.40886 20.1544 240.892
      vertex -3.32507 19.659 250.529
      vertex -2.08411 19.829 250.529
    endloop
  endfacet
  facet normal -0.595074 0.801291 0.0618082
    outer loop
      vertex -11.379 16.3723 250.529
      vertex -11.7605 15.6608 256.08
      vertex -11.1827 16.0899 256.08
    endloop
  endfacet
  facet normal -0.734699 0.675573 0.0617974
    outer loop
      vertex -15.0931 13.028 250.529
      vertex -14.4867 13.1797 256.08
      vertex -14.2453 13.95 250.529
    endloop
  endfacet
  facet normal -0.734707 0.675564 0.0617985
    outer loop
      vertex -14.4867 13.1797 256.08
      vertex -15.0931 13.028 250.529
      vertex -14.8328 12.8033 256.08
    endloop
  endfacet
  facet normal -0.69083 0.720371 0.0618012
    outer loop
      vertex -14.2453 13.95 250.529
      vertex -13.9996 13.7094 256.08
      vertex -13.4802 14.2075 256.08
    endloop
  endfacet
  facet normal -0.691885 0.721217 0.0337849
    outer loop
      vertex -14.9267 14.6173 230.16
      vertex -14.9056 14.5966 231.034
      vertex -14.8431 14.6975 230.16
    endloop
  endfacet
  facet normal -0.691524 0.72109 0.0427143
    outer loop
      vertex -14.9056 14.5966 231.034
      vertex -14.6043 14.3016 240.892
      vertex -13.6775 15.1904 240.892
    endloop
  endfacet
  facet normal -0.595665 0.802097 0.0427163
    outer loop
      vertex -12.9586 16.3497 231.034
      vertex -12.6967 16.0192 240.892
      vertex -11.9064 17.1311 231.034
    endloop
  endfacet
  facet normal -0.544161 0.837892 0.0427208
    outer loop
      vertex -11.9064 17.1311 231.034
      vertex -11.6657 16.7848 240.892
      vertex -10.8073 17.8449 231.034
    endloop
  endfacet
  facet normal -0.691218 0.72077 0.0520414
    outer loop
      vertex -13.6775 15.1904 240.892
      vertex -14.6043 14.3016 240.892
      vertex -13.3413 14.817 250.529
    endloop
  endfacet
  facet normal -0.644826 0.763135 0.0427162
    outer loop
      vertex -12.9586 16.3497 231.034
      vertex -13.9597 15.5038 231.034
      vertex -12.6967 16.0192 240.892
    endloop
  endfacet
  facet normal -0.544192 0.83828 0.0337925
    outer loop
      vertex -10.8226 17.8702 230.16
      vertex -10.9198 17.8071 230.16
      vertex -10.8073 17.8449 231.034
    endloop
  endfacet
  facet normal -0.490702 0.870672 0.0337808
    outer loop
      vertex -9.67914 18.5145 230.16
      vertex -9.7801 18.4576 230.16
      vertex -9.66546 18.4883 231.034
    endloop
  endfacet
  facet normal -0.814019 0.578503 0.0520356
    outer loop
      vertex -17.0254 11.3117 240.892
      vertex -16.607 11.0336 250.529
      vertex -15.8814 12.0546 250.529
    endloop
  endfacet
  facet normal -0.848746 0.526235 0.052035
    outer loop
      vertex -17.0254 11.3117 240.892
      vertex -17.267 9.96911 250.529
      vertex -16.607 11.0336 250.529
    endloop
  endfacet
  facet normal -0.0105416 0.998034 0.0617891
    outer loop
      vertex -3.10813e-07 19.732 253.718
      vertex -0.820525 19.5771 256.08
      vertex -0.309274 19.5825 256.08
    endloop
  endfacet
  facet normal -0.0105191 0.998033 0.0618098
    outer loop
      vertex -0.834926 19.9207 250.529
      vertex -3.10813e-07 19.732 253.718
      vertex -3.09791e-07 19.9295 250.529
    endloop
  endfacet
  facet normal -0.0104978 0.998033 0.0618042
    outer loop
      vertex -3.10813e-07 19.732 253.718
      vertex -0.834926 19.9207 250.529
      vertex -0.820525 19.5771 256.08
    endloop
  endfacet
  facet normal -0.0104996 0.998589 0.0520494
    outer loop
      vertex -3.07191e-07 20.4317 240.892
      vertex -0.855965 20.4227 240.892
      vertex -3.08938e-07 20.0941 247.369
    endloop
  endfacet
  facet normal -0.734679 0.675594 0.0618012
    outer loop
      vertex -14.2453 13.95 250.529
      vertex -14.4867 13.1797 256.08
      vertex -13.9996 13.7094 256.08
    endloop
  endfacet
  facet normal -0.48997 0.869547 0.0617902
    outer loop
      vertex -10.3285 17.0544 250.529
      vertex -10.1504 16.7603 256.08
      vertex -9.5234 17.1136 256.08
    endloop
  endfacet
  facet normal -0.543645 0.837038 0.0617899
    outer loop
      vertex -10.3285 17.0544 250.529
      vertex -10.5792 16.4818 256.08
      vertex -10.1504 16.7603 256.08
    endloop
  endfacet
  facet normal -0.54354 0.837105 0.0618016
    outer loop
      vertex -10.5792 16.4818 256.08
      vertex -10.3285 17.0544 250.529
      vertex -11.379 16.3723 250.529
    endloop
  endfacet
  facet normal -0.543843 0.837571 0.0520443
    outer loop
      vertex -10.5888 17.4842 240.892
      vertex -11.379 16.3723 250.529
      vertex -10.3285 17.0544 250.529
    endloop
  endfacet
  facet normal -0.3775 0.925023 0.0427231
    outer loop
      vertex -8.48549 19.0587 231.034
      vertex -8.31396 18.6734 240.892
      vertex -7.12503 19.1586 240.892
    endloop
  endfacet
  facet normal -0.434821 0.899503 0.042723
    outer loop
      vertex -8.48549 19.0587 231.034
      vertex -9.66546 18.4883 231.034
      vertex -8.31396 18.6734 240.892
    endloop
  endfacet
  facet normal -0.318299 0.947392 0.0336782
    outer loop
      vertex -6.03843 20.0002 230.16
      vertex -6.14826 19.9633 230.16
      vertex -6.02989 19.972 231.034
    endloop
  endfacet
  facet normal -0.318826 0.947212 0.0337513
    outer loop
      vertex -6.14826 19.9633 230.16
      vertex -7.27204 19.5539 231.034
      vertex -6.02989 19.972 231.034
    endloop
  endfacet
  facet normal -0.318807 0.947218 0.0337776
    outer loop
      vertex -7.27204 19.5539 231.034
      vertex -6.14826 19.9633 230.16
      vertex -7.28234 19.5816 230.16
    endloop
  endfacet
  facet normal -0.690862 0.72034 0.0618062
    outer loop
      vertex -13.3413 14.817 250.529
      vertex -13.4802 14.2075 256.08
      vertex -13.1112 14.5614 256.08
    endloop
  endfacet
  facet normal -0.690859 0.720342 0.0618066
    outer loop
      vertex -13.4802 14.2075 256.08
      vertex -13.3413 14.817 250.529
      vertex -14.2453 13.95 250.529
    endloop
  endfacet
  facet normal -0.644595 0.762751 0.0520362
    outer loop
      vertex -12.6967 16.0192 240.892
      vertex -13.3413 14.817 250.529
      vertex -12.3846 15.6255 250.529
    endloop
  endfacet
  facet normal -0.595373 0.801763 0.0520308
    outer loop
      vertex -11.6657 16.7848 240.892
      vertex -12.6967 16.0192 240.892
      vertex -11.379 16.3723 250.529
    endloop
  endfacet
  facet normal -0.54393 0.837516 0.0520307
    outer loop
      vertex -11.6657 16.7848 240.892
      vertex -11.379 16.3723 250.529
      vertex -10.5888 17.4842 240.892
    endloop
  endfacet
  facet normal -0.64485 0.763114 0.0427203
    outer loop
      vertex -13.9597 15.5038 231.034
      vertex -13.6775 15.1904 240.892
      vertex -12.6967 16.0192 240.892
    endloop
  endfacet
  facet normal -0.691557 0.721058 0.0427203
    outer loop
      vertex -13.9597 15.5038 231.034
      vertex -14.9056 14.5966 231.034
      vertex -13.6775 15.1904 240.892
    endloop
  endfacet
  facet normal -0.813564 0.57818 0.0618098
    outer loop
      vertex -16.607 11.0336 250.529
      vertex -16.0243 11.2601 256.08
      vertex -15.8814 12.0546 250.529
    endloop
  endfacet
  facet normal -0.813573 0.578168 0.0618112
    outer loop
      vertex -16.0243 11.2601 256.08
      vertex -16.607 11.0336 250.529
      vertex -16.3205 10.8433 256.08
    endloop
  endfacet
  facet normal -0.84821 0.52604 0.0618119
    outer loop
      vertex -16.607 11.0336 250.529
      vertex -16.6998 10.2317 256.08
      vertex -16.3205 10.8433 256.08
    endloop
  endfacet
  facet normal -0.0104022 0.999377 0.0337318
    outer loop
      vertex -0.758983 20.8748 230.16
      vertex -3.05009e-07 20.8532 231.034
      vertex -3.04856e-07 20.8827 230.16
    endloop
  endfacet
  facet normal -0.0104099 0.999376 0.0337385
    outer loop
      vertex -3.05009e-07 20.8532 231.034
      vertex -0.758983 20.8748 230.16
      vertex -0.873626 20.8441 231.034
    endloop
  endfacet
  facet normal -0.0103491 0.999377 0.0337465
    outer loop
      vertex -0.874863 20.8736 230.16
      vertex -0.873626 20.8441 231.034
      vertex -0.758983 20.8748 230.16
    endloop
  endfacet
  facet normal -0.0731117 0.995965 0.0520403
    outer loop
      vertex -0.855965 20.4227 240.892
      vertex -2.08411 19.829 250.529
      vertex -0.834926 19.9207 250.529
    endloop
  endfacet
  facet normal -0.0730107 0.995414 0.0618043
    outer loop
      vertex -0.834926 19.9207 250.529
      vertex -1.33043 19.5397 256.08
      vertex -0.820525 19.5771 256.08
    endloop
  endfacet
  facet normal -0.073071 0.99541 0.0617987
    outer loop
      vertex -1.33043 19.5397 256.08
      vertex -0.834926 19.9207 250.529
      vertex -2.08411 19.829 250.529
    endloop
  endfacet
  facet normal -0.644235 0.762325 0.0618195
    outer loop
      vertex -13.3413 14.817 250.529
      vertex -12.7206 14.8914 256.08
      vertex -12.3846 15.6255 250.529
    endloop
  endfacet
  facet normal -0.64413 0.762415 0.0618064
    outer loop
      vertex -12.7206 14.8914 256.08
      vertex -13.3413 14.817 250.529
      vertex -13.1112 14.5614 256.08
    endloop
  endfacet
  facet normal -0.644265 0.7623 0.0618143
    outer loop
      vertex -12.3846 15.6255 250.529
      vertex -12.7206 14.8914 256.08
      vertex -12.171 15.3559 256.08
    endloop
  endfacet
  facet normal 0.544221 -0.838061 -0.0384505
    outer loop
      vertex -9.72655 16.0604 231.034
      vertex -9.52992 15.7358 240.892
      vertex -10.7158 15.418 231.034
    endloop
  endfacet
  facet normal 0.197602 -0.979814 -0.0302959
    outer loop
      vertex -3.23795 18.5188 230.16
      vertex -4.28755 18.2801 231.034
      vertex -4.29362 18.3059 230.16
    endloop
  endfacet
  facet normal 0.197528 -0.979826 -0.0303882
    outer loop
      vertex -4.28755 18.2801 231.034
      vertex -3.23795 18.5188 230.16
      vertex -3.13127 18.5132 231.034
    endloop
  endfacet
  facet normal 0.258447 -0.964421 -0.0556438
    outer loop
      vertex -4.09762 17.4703 250.529
      vertex -5.09704 16.8822 256.08
      vertex -5.1865 17.1785 250.529
    endloop
  endfacet
  facet normal 0.258475 -0.964414 -0.0556381
    outer loop
      vertex -5.09704 16.8822 256.08
      vertex -4.09762 17.4703 250.529
      vertex -4.02694 17.169 256.08
    endloop
  endfacet
  facet normal 0.691379 -0.720972 -0.0468435
    outer loop
      vertex -13.1438 12.8714 240.892
      vertex -12.0071 13.3353 250.529
      vertex -12.8208 12.555 250.529
    endloop
  endfacet
  facet normal 0.544372 -0.838294 -0.0303568
    outer loop
      vertex -10.6435 15.4966 230.16
      vertex -9.72655 16.0604 231.034
      vertex -10.7158 15.418 231.034
    endloop
  endfacet
  facet normal 0.544431 -0.838253 -0.0304451
    outer loop
      vertex -9.72655 16.0604 231.034
      vertex -10.6435 15.4966 230.16
      vertex -9.74032 16.0832 230.16
    endloop
  endfacet
  facet normal 0.595782 -0.802225 -0.0384527
    outer loop
      vertex -11.6628 14.7147 231.034
      vertex -10.7158 15.418 231.034
      vertex -11.427 14.4173 240.892
    endloop
  endfacet
  facet normal 0.776542 -0.628891 -0.0384555
    outer loop
      vertex -14.9558 11.352 231.034
      vertex -14.2134 12.2687 231.034
      vertex -14.6534 11.1226 240.892
    endloop
  endfacet
  facet normal 0.490517 -0.870583 -0.0384582
    outer loop
      vertex -8.69891 16.6395 231.034
      vertex -8.52306 16.3031 240.892
      vertex -9.52992 15.7358 240.892
    endloop
  endfacet
  facet normal 0.814537 -0.578835 -0.0384562
    outer loop
      vertex -14.9558 11.352 231.034
      vertex -14.6534 11.1226 240.892
      vertex -15.639 10.3906 231.034
    endloop
  endfacet
  facet normal 0.434925 -0.899645 -0.0384583
    outer loop
      vertex -8.69891 16.6395 231.034
      vertex -7.63694 17.1529 231.034
      vertex -8.52306 16.3031 240.892
    endloop
  endfacet
  facet normal 0.813841 -0.578418 -0.0556449
    outer loop
      vertex -14.4219 10.1341 256.08
      vertex -14.9463 9.93028 250.529
      vertex -14.2932 10.8492 250.529
    endloop
  endfacet
  facet normal 0.813834 -0.578427 -0.0556439
    outer loop
      vertex -14.9463 9.93028 250.529
      vertex -14.4219 10.1341 256.08
      vertex -14.6885 9.759 256.08
    endloop
  endfacet
  facet normal 0.734911 -0.675877 -0.0556458
    outer loop
      vertex -12.8208 12.555 250.529
      vertex -12.5996 12.3385 256.08
      vertex -13.0381 11.8617 256.08
    endloop
  endfacet
  facet normal 0.776757 -0.629066 -0.0304054
    outer loop
      vertex -14.9558 11.352 231.034
      vertex -14.2992 12.205 230.16
      vertex -14.2134 12.2687 231.034
    endloop
  endfacet
  facet normal 0.776792 -0.629026 -0.0303405
    outer loop
      vertex -14.2992 12.205 230.16
      vertex -14.9558 11.352 231.034
      vertex -14.9769 11.3681 230.16
    endloop
  endfacet
  facet normal 0.377476 -0.924834 -0.046848
    outer loop
      vertex -7.48256 16.8061 240.892
      vertex -6.25492 16.819 250.529
      vertex -7.29864 16.393 250.529
    endloop
  endfacet
  facet normal 0.434727 -0.899343 -0.0468442
    outer loop
      vertex -8.52306 16.3031 240.892
      vertex -7.29864 16.393 250.529
      vertex -8.31357 15.9024 250.529
    endloop
  endfacet
  facet normal 0.59573 -0.802608 -0.0304394
    outer loop
      vertex -11.6793 14.7356 230.16
      vertex -11.5955 14.7978 230.16
      vertex -11.6628 14.7147 231.034
    endloop
  endfacet
  facet normal 0.0730692 -0.995773 -0.0556548
    outer loop
      vertex -0.751434 17.9287 250.529
      vertex -0.738472 17.6194 256.08
      vertex -1.38443 17.572 256.08
    endloop
  endfacet
  facet normal 0.434562 -0.898921 -0.0556459
    outer loop
      vertex -8.31357 15.9024 250.529
      vertex -7.58704 15.91 256.08
      vertex -8.17017 15.6281 256.08
    endloop
  endfacet
  facet normal 0.258637 -0.965209 -0.0384593
    outer loop
      vertex -4.28755 18.2801 231.034
      vertex -5.31719 17.6114 240.892
      vertex -5.4269 17.9748 231.034
    endloop
  endfacet
  facet normal 0.258614 -0.965215 -0.0384622
    outer loop
      vertex -5.31719 17.6114 240.892
      vertex -4.28755 18.2801 231.034
      vertex -4.20087 17.9105 240.892
    endloop
  endfacet
  facet normal 0.814765 -0.578997 -0.0303324
    outer loop
      vertex -15.639 10.3906 231.034
      vertex -15.0373 11.2831 230.16
      vertex -14.9558 11.352 231.034
    endloop
  endfacet
  facet normal 0.814715 -0.579062 -0.0304335
    outer loop
      vertex -15.0373 11.2831 230.16
      vertex -15.639 10.3906 231.034
      vertex -15.6612 10.4053 230.16
    endloop
  endfacet
  facet normal 0.84859 -0.526117 -0.0556428
    outer loop
      vertex -15.0298 9.20852 256.08
      vertex -15.5403 8.9722 250.529
      vertex -14.9463 9.93028 250.529
    endloop
  endfacet
  facet normal 0.848557 -0.526171 -0.0556374
    outer loop
      vertex -15.5403 8.9722 250.529
      vertex -15.0298 9.20852 256.08
      vertex -15.2723 8.81744 256.08
    endloop
  endfacet
  facet normal 0.645901 -0.762815 -0.030435
    outer loop
      vertex -11.6793 14.7356 230.16
      vertex -11.6628 14.7147 231.034
      vertex -11.7589 14.6682 230.16
    endloop
  endfacet
  facet normal 0.77628 -0.628645 -0.0468494
    outer loop
      vertex -14.6534 11.1226 240.892
      vertex -13.5838 11.7252 250.529
      vertex -14.2932 10.8492 250.529
    endloop
  endfacet
  facet normal 0.849755 -0.526303 -0.0303649
    outer loop
      vertex -16.2836 9.40136 230.16
      vertex -16.2287 9.49 230.16
      vertex -16.2606 9.38807 231.034
    endloop
  endfacet
  facet normal 0.692252 -0.721016 -0.0303932
    outer loop
      vertex -13.434 13.1556 230.16
      vertex -13.3588 13.2278 230.16
      vertex -13.415 13.137 231.034
    endloop
  endfacet
  facet normal 0.814781 -0.578974 -0.0303357
    outer loop
      vertex -14.9769 11.3681 230.16
      vertex -14.9558 11.352 231.034
      vertex -15.0373 11.2831 230.16
    endloop
  endfacet
  facet normal 0.010542 -0.999485 -0.0303182
    outer loop
      vertex -0.787376 18.7862 230.16
      vertex -0.683085 18.7873 230.16
      vertex -0.786263 18.7597 231.034
    endloop
  endfacet
  facet normal 0.318328 -0.946346 -0.0556439
    outer loop
      vertex -6.25492 16.819 250.529
      vertex -5.71091 16.6756 256.08
      vertex -6.14703 16.5289 256.08
    endloop
  endfacet
  facet normal 0.318415 -0.946316 -0.0556517
    outer loop
      vertex -5.71091 16.6756 256.08
      vertex -6.25492 16.819 250.529
      vertex -5.1865 17.1785 250.529
    endloop
  endfacet
  facet normal 0.135667 -0.990287 -0.0304235
    outer loop
      vertex -3.03237 18.5536 230.16
      vertex -1.96264 18.6733 231.034
      vertex -3.13127 18.5132 231.034
    endloop
  endfacet
  facet normal 0.135604 -0.990298 -0.0303442
    outer loop
      vertex -1.96264 18.6733 231.034
      vertex -3.03237 18.5536 230.16
      vertex -1.96542 18.6997 230.16
    endloop
  endfacet
  facet normal 0.543704 -0.837431 -0.0556313
    outer loop
      vertex -10.2411 14.735 250.529
      vertex -9.52126 14.8336 256.08
      vertex -10.0645 14.4809 256.08
    endloop
  endfacet
  facet normal 0.197426 -0.979847 -0.0303759
    outer loop
      vertex -3.13571 18.5394 230.16
      vertex -3.13127 18.5132 231.034
      vertex -3.23795 18.5188 230.16
    endloop
  endfacet
  facet normal 0.490149 -0.86986 -0.0556468
    outer loop
      vertex -8.31357 15.9024 250.529
      vertex -8.57106 15.4022 256.08
      vertex -9.29568 15.349 250.529
    endloop
  endfacet
  facet normal 0.49016 -0.869855 -0.0556458
    outer loop
      vertex -8.57106 15.4022 256.08
      vertex -8.31357 15.9024 250.529
      vertex -8.17017 15.6281 256.08
    endloop
  endfacet
  facet normal 0.543818 -0.837356 -0.0556474
    outer loop
      vertex -9.29568 15.349 250.529
      vertex -9.52126 14.8336 256.08
      vertex -10.2411 14.735 250.529
    endloop
  endfacet
  facet normal 0.543775 -0.837384 -0.0556517
    outer loop
      vertex -9.52126 14.8336 256.08
      vertex -9.29568 15.349 250.529
      vertex -9.13535 15.0842 256.08
    endloop
  endfacet
  facet normal 0.258521 -0.964869 -0.0468484
    outer loop
      vertex -4.20087 17.9105 240.892
      vertex -5.1865 17.1785 250.529
      vertex -5.31719 17.6114 240.892
    endloop
  endfacet
  facet normal 0.258564 -0.964858 -0.0468431
    outer loop
      vertex -5.1865 17.1785 250.529
      vertex -4.20087 17.9105 240.892
      vertex -4.09762 17.4703 250.529
    endloop
  endfacet
  facet normal 0.435028 -0.899906 -0.0303238
    outer loop
      vertex -7.74166 17.1317 230.16
      vertex -8.69891 16.6395 231.034
      vertex -8.71122 16.663 230.16
    endloop
  endfacet
  facet normal 0.435048 -0.899898 -0.0302979
    outer loop
      vertex -8.69891 16.6395 231.034
      vertex -7.74166 17.1317 230.16
      vertex -7.63694 17.1529 231.034
    endloop
  endfacet
  facet normal 0.814209 -0.578679 -0.0468495
    outer loop
      vertex -14.6534 11.1226 240.892
      vertex -14.2932 10.8492 250.529
      vertex -14.9463 9.93028 250.529
    endloop
  endfacet
  facet normal 0.775976 -0.628303 -0.055647
    outer loop
      vertex -14.2932 10.8492 250.529
      vertex -13.6391 11.1654 256.08
      vertex -14.0467 10.662 256.08
    endloop
  endfacet
  facet normal 0.734975 -0.675808 -0.0556346
    outer loop
      vertex -13.0381 11.8617 256.08
      vertex -13.5838 11.7252 250.529
      vertex -12.8208 12.555 250.529
    endloop
  endfacet
  facet normal 0.735012 -0.675768 -0.0556393
    outer loop
      vertex -13.5838 11.7252 250.529
      vertex -13.0381 11.8617 256.08
      vertex -13.3495 11.523 256.08
    endloop
  endfacet
  facet normal 0.735535 -0.676395 -0.0384525
    outer loop
      vertex -14.2134 12.2687 231.034
      vertex -13.1438 12.8714 240.892
      vertex -13.9261 12.0207 240.892
    endloop
  endfacet
  facet normal 0.776557 -0.628872 -0.0384525
    outer loop
      vertex -14.2134 12.2687 231.034
      vertex -13.9261 12.0207 240.892
      vertex -14.6534 11.1226 240.892
    endloop
  endfacet
  facet normal 0.849262 -0.526569 -0.0384545
    outer loop
      vertex -16.2606 9.38807 231.034
      vertex -15.639 10.3906 231.034
      vertex -15.9319 9.19829 240.892
    endloop
  endfacet
  facet normal 0.814531 -0.578844 -0.0384549
    outer loop
      vertex -15.639 10.3906 231.034
      vertex -14.6534 11.1226 240.892
      vertex -15.3229 10.1805 240.892
    endloop
  endfacet
  facet normal 0.735722 -0.676601 -0.030393
    outer loop
      vertex -13.415 13.137 231.034
      vertex -14.163 12.3629 230.16
      vertex -13.434 13.1556 230.16
    endloop
  endfacet
  facet normal 0.735773 -0.676542 -0.0304889
    outer loop
      vertex -14.163 12.3629 230.16
      vertex -13.415 13.137 231.034
      vertex -14.2134 12.2687 231.034
    endloop
  endfacet
  facet normal 0.735571 -0.676356 -0.0384588
    outer loop
      vertex -13.415 13.137 231.034
      vertex -13.1438 12.8714 240.892
      vertex -14.2134 12.2687 231.034
    endloop
  endfacet
  facet normal 0.595759 -0.802242 -0.0384561
    outer loop
      vertex -10.7158 15.418 231.034
      vertex -10.4992 15.1063 240.892
      vertex -11.427 14.4173 240.892
    endloop
  endfacet
  facet normal 0.645133 -0.763468 -0.0303475
    outer loop
      vertex -11.7589 14.6682 230.16
      vertex -12.5637 13.9534 231.034
      vertex -12.5815 13.9731 230.16
    endloop
  endfacet
  facet normal 0.645151 -0.763453 -0.0303186
    outer loop
      vertex -12.5637 13.9534 231.034
      vertex -11.7589 14.6682 230.16
      vertex -11.6628 14.7147 231.034
    endloop
  endfacet
  facet normal 0.735857 -0.676451 -0.0304743
    outer loop
      vertex -14.2336 12.2861 230.16
      vertex -14.163 12.3629 230.16
      vertex -14.2134 12.2687 231.034
    endloop
  endfacet
  facet normal 0.0105061 -0.999205 -0.0384641
    outer loop
      vertex -0.770368 18.3804 240.892
      vertex -3.17121e-07 18.5133 237.65
      vertex -3.17767e-07 18.3885 240.892
    endloop
  endfacet
  facet normal 0.0105121 -0.999205 -0.0384627
    outer loop
      vertex -3.17121e-07 18.5133 237.65
      vertex -0.770368 18.3804 240.892
      vertex -0.786263 18.7597 231.034
    endloop
  endfacet
  facet normal 0.13563 -0.990013 -0.0384571
    outer loop
      vertex -1.96264 18.6733 231.034
      vertex -1.92297 18.2958 240.892
      vertex -3.13127 18.5132 231.034
    endloop
  endfacet
  facet normal 0.318866 -0.947312 -0.0303962
    outer loop
      vertex -6.45525 17.6567 230.16
      vertex -5.4269 17.9748 231.034
      vertex -6.54484 17.5985 231.034
    endloop
  endfacet
  facet normal 0.318818 -0.94733 -0.0303326
    outer loop
      vertex -5.4269 17.9748 231.034
      vertex -6.45525 17.6567 230.16
      vertex -5.43458 18.0002 230.16
    endloop
  endfacet
  facet normal 0.258685 -0.965485 -0.0303318
    outer loop
      vertex -4.29362 18.3059 230.16
      vertex -5.4269 17.9748 231.034
      vertex -5.43458 18.0002 230.16
    endloop
  endfacet
  facet normal 0.25871 -0.96548 -0.0302972
    outer loop
      vertex -5.4269 17.9748 231.034
      vertex -4.29362 18.3059 230.16
      vertex -4.28755 18.2801 231.034
    endloop
  endfacet
  facet normal 0.377355 -0.924396 -0.055644
    outer loop
      vertex -6.25492 16.819 250.529
      vertex -6.14703 16.5289 256.08
      vertex -6.74671 16.2841 256.08
    endloop
  endfacet
  facet normal 0.490659 -0.870824 -0.0303254
    outer loop
      vertex -8.71122 16.663 230.16
      vertex -8.69891 16.6395 231.034
      vertex -8.80209 16.6118 230.16
    endloop
  endfacet
  facet normal 0.49063 -0.870836 -0.0304474
    outer loop
      vertex -8.80209 16.6118 230.16
      vertex -9.72655 16.0604 231.034
      vertex -9.74032 16.0832 230.16
    endloop
  endfacet
  facet normal 0.490713 -0.870793 -0.0303327
    outer loop
      vertex -9.72655 16.0604 231.034
      vertex -8.80209 16.6118 230.16
      vertex -8.69891 16.6395 231.034
    endloop
  endfacet
  facet normal 0.197484 -0.979551 -0.0384608
    outer loop
      vertex -3.13127 18.5132 231.034
      vertex -3.06797 18.1389 240.892
      vertex -4.20087 17.9105 240.892
    endloop
  endfacet
  facet normal 0.197473 -0.979554 -0.0384622
    outer loop
      vertex -4.28755 18.2801 231.034
      vertex -3.13127 18.5132 231.034
      vertex -4.20087 17.9105 240.892
    endloop
  endfacet
  facet normal 0.849503 -0.526705 -0.0304365
    outer loop
      vertex -15.639 10.3906 231.034
      vertex -16.2287 9.49 230.16
      vertex -15.6612 10.4053 230.16
    endloop
  endfacet
  facet normal 0.849497 -0.526715 -0.0304223
    outer loop
      vertex -16.2287 9.49 230.16
      vertex -15.639 10.3906 231.034
      vertex -16.2606 9.38807 231.034
    endloop
  endfacet
  facet normal 0.77592 -0.628373 -0.0556395
    outer loop
      vertex -13.6391 11.1654 256.08
      vertex -13.5838 11.7252 250.529
      vertex -13.3495 11.523 256.08
    endloop
  endfacet
  facet normal 0.77593 -0.628361 -0.0556382
    outer loop
      vertex -13.5838 11.7252 250.529
      vertex -13.6391 11.1654 256.08
      vertex -14.2932 10.8492 250.529
    endloop
  endfacet
  facet normal 0.735307 -0.676114 -0.046843
    outer loop
      vertex -13.1438 12.8714 240.892
      vertex -12.8208 12.555 250.529
      vertex -13.5838 11.7252 250.529
    endloop
  endfacet
  facet normal 0.644748 -0.762958 -0.0468509
    outer loop
      vertex -11.427 14.4173 240.892
      vertex -11.1461 14.0629 250.529
      vertex -12.0071 13.3353 250.529
    endloop
  endfacet
  facet normal 0.595563 -0.801941 -0.0468508
    outer loop
      vertex -11.427 14.4173 240.892
      vertex -10.2411 14.735 250.529
      vertex -11.1461 14.0629 250.529
    endloop
  endfacet
  facet normal 0.544064 -0.837735 -0.0468483
    outer loop
      vertex -9.52992 15.7358 240.892
      vertex -9.29568 15.349 250.529
      vertex -10.2411 14.735 250.529
    endloop
  endfacet
  facet normal 0.691836 -0.721411 -0.030461
    outer loop
      vertex -13.3588 13.2278 230.16
      vertex -12.5637 13.9534 231.034
      vertex -13.415 13.137 231.034
    endloop
  endfacet
  facet normal 0.691774 -0.721476 -0.0303509
    outer loop
      vertex -12.5637 13.9534 231.034
      vertex -13.3588 13.2278 230.16
      vertex -12.5815 13.9731 230.16
    endloop
  endfacet
  facet normal 0.645011 -0.763205 -0.0384594
    outer loop
      vertex -12.5637 13.9534 231.034
      vertex -11.427 14.4173 240.892
      vertex -12.3097 13.6713 240.892
    endloop
  endfacet
  facet normal 0.0732147 -0.996852 -0.0304124
    outer loop
      vertex -1.8614 18.7074 230.16
      vertex -0.786263 18.7597 231.034
      vertex -1.96264 18.6733 231.034
    endloop
  endfacet
  facet normal 0.0731386 -0.996861 -0.0303183
    outer loop
      vertex -0.786263 18.7597 231.034
      vertex -1.8614 18.7074 230.16
      vertex -0.787376 18.7862 230.16
    endloop
  endfacet
  facet normal 0.010402 -0.998395 -0.0556683
    outer loop
      vertex -3.21027e-07 17.7588 253.718
      vertex -3.21708e-07 17.6271 256.08
      vertex -0.278346 17.6242 256.08
    endloop
  endfacet
  facet normal 0.0104237 -0.999486 -0.0303322
    outer loop
      vertex -0.683085 18.7873 230.16
      vertex -3.15803e-07 18.7679 231.034
      vertex -0.786263 18.7597 231.034
    endloop
  endfacet
  facet normal 0.010535 -0.999482 -0.030419
    outer loop
      vertex -3.15803e-07 18.7679 231.034
      vertex -0.683085 18.7873 230.16
      vertex -3.15666e-07 18.7945 230.16
    endloop
  endfacet
  facet normal 0.490576 -0.87055 -0.0384502
    outer loop
      vertex -9.72655 16.0604 231.034
      vertex -8.69891 16.6395 231.034
      vertex -9.52992 15.7358 240.892
    endloop
  endfacet
  facet normal 0.377447 -0.924845 -0.0468443
    outer loop
      vertex -6.41253 17.2428 240.892
      vertex -6.25492 16.819 250.529
      vertex -7.48256 16.8061 240.892
    endloop
  endfacet
  facet normal 0.135661 -0.990008 -0.0384609
    outer loop
      vertex -3.13127 18.5132 231.034
      vertex -1.92297 18.2958 240.892
      vertex -3.06797 18.1389 240.892
    endloop
  endfacet
  facet normal 0.377505 -0.925209 -0.0384603
    outer loop
      vertex -7.63694 17.1529 231.034
      vertex -6.54484 17.5985 231.034
      vertex -7.48256 16.8061 240.892
    endloop
  endfacet
  facet normal 0.318479 -0.946295 -0.0556437
    outer loop
      vertex -5.1865 17.1785 250.529
      vertex -5.09704 16.8822 256.08
      vertex -5.71091 16.6756 256.08
    endloop
  endfacet
  facet normal 0.318778 -0.947049 -0.0384592
    outer loop
      vertex -5.4269 17.9748 231.034
      vertex -5.31719 17.6114 240.892
      vertex -6.54484 17.5985 231.034
    endloop
  endfacet
  facet normal 0.848958 -0.52638 -0.0468466
    outer loop
      vertex -15.9319 9.19829 240.892
      vertex -15.3229 10.1805 240.892
      vertex -15.5403 8.9722 250.529
    endloop
  endfacet
  facet normal 0.849263 -0.526569 -0.0384544
    outer loop
      vertex -15.639 10.3906 231.034
      vertex -15.3229 10.1805 240.892
      vertex -15.9319 9.19829 240.892
    endloop
  endfacet
  facet normal 0.848584 -0.526126 -0.055644
    outer loop
      vertex -14.9463 9.93028 250.529
      vertex -14.6885 9.759 256.08
      vertex -15.0298 9.20852 256.08
    endloop
  endfacet
  facet normal 0.544262 -0.838034 -0.0384563
    outer loop
      vertex -10.7158 15.418 231.034
      vertex -9.52992 15.7358 240.892
      vertex -10.4992 15.1063 240.892
    endloop
  endfacet
  facet normal 0.595315 -0.801564 -0.0556314
    outer loop
      vertex -10.2411 14.735 250.529
      vertex -10.0645 14.4809 256.08
      vertex -10.5845 14.0947 256.08
    endloop
  endfacet
  facet normal 0.735271 -0.676152 -0.0468492
    outer loop
      vertex -13.9261 12.0207 240.892
      vertex -13.1438 12.8714 240.892
      vertex -13.5838 11.7252 250.529
    endloop
  endfacet
  facet normal 0.776279 -0.628647 -0.0468492
    outer loop
      vertex -13.9261 12.0207 240.892
      vertex -13.5838 11.7252 250.529
      vertex -14.6534 11.1226 240.892
    endloop
  endfacet
  facet normal 0.595947 -0.802448 -0.0304076
    outer loop
      vertex -11.5955 14.7978 230.16
      vertex -10.7158 15.418 231.034
      vertex -11.6628 14.7147 231.034
    endloop
  endfacet
  facet normal 0.595929 -0.802462 -0.0303796
    outer loop
      vertex -10.7158 15.418 231.034
      vertex -11.5955 14.7978 230.16
      vertex -10.731 15.4398 230.16
    endloop
  endfacet
  facet normal 0.544232 -0.838385 -0.0303766
    outer loop
      vertex -10.731 15.4398 230.16
      vertex -10.6435 15.4966 230.16
      vertex -10.7158 15.418 231.034
    endloop
  endfacet
  facet normal 0.777129 -0.628603 -0.0304756
    outer loop
      vertex -14.2336 12.2861 230.16
      vertex -14.2134 12.2687 231.034
      vertex -14.2992 12.205 230.16
    endloop
  endfacet
  facet normal 0.136068 -0.990234 -0.0303756
    outer loop
      vertex -3.13571 18.5394 230.16
      vertex -3.03237 18.5536 230.16
      vertex -3.13127 18.5132 231.034
    endloop
  endfacet
  facet normal 0.0737882 -0.996812 -0.0303444
    outer loop
      vertex -1.96542 18.6997 230.16
      vertex -1.8614 18.7074 230.16
      vertex -1.96264 18.6733 231.034
    endloop
  endfacet
  facet normal 0.318592 -0.946734 -0.0468484
    outer loop
      vertex -5.31719 17.6114 240.892
      vertex -5.1865 17.1785 250.529
      vertex -6.41253 17.2428 240.892
    endloop
  endfacet
  facet normal 0.490341 -0.870271 -0.0468484
    outer loop
      vertex -9.52992 15.7358 240.892
      vertex -8.52306 16.3031 240.892
      vertex -9.29568 15.349 250.529
    endloop
  endfacet
  facet normal 0.490371 -0.870254 -0.0468443
    outer loop
      vertex -8.52306 16.3031 240.892
      vertex -8.31357 15.9024 250.529
      vertex -9.29568 15.349 250.529
    endloop
  endfacet
  facet normal 0.319099 -0.947235 -0.0303673
    outer loop
      vertex -6.5541 17.6234 230.16
      vertex -6.45525 17.6567 230.16
      vertex -6.54484 17.5985 231.034
    endloop
  endfacet
  facet normal 0.377589 -0.925475 -0.0303671
    outer loop
      vertex -6.5541 17.6234 230.16
      vertex -6.54484 17.5985 231.034
      vertex -6.65067 17.584 230.16
    endloop
  endfacet
  facet normal 0.490189 -0.869838 -0.0556521
    outer loop
      vertex -9.29568 15.349 250.529
      vertex -8.57106 15.4022 256.08
      vertex -9.13535 15.0842 256.08
    endloop
  endfacet
  facet normal 0.377137 -0.924485 -0.055635
    outer loop
      vertex -7.29864 16.393 250.529
      vertex -6.74671 16.2841 256.08
      vertex -7.17275 16.1103 256.08
    endloop
  endfacet
  facet normal 0.377305 -0.924415 -0.0556503
    outer loop
      vertex -6.74671 16.2841 256.08
      vertex -7.29864 16.393 250.529
      vertex -6.25492 16.819 250.529
    endloop
  endfacet
  facet normal 0.434531 -0.898937 -0.0556418
    outer loop
      vertex -7.29864 16.393 250.529
      vertex -7.58704 15.91 256.08
      vertex -8.31357 15.9024 250.529
    endloop
  endfacet
  facet normal 0.4346 -0.898904 -0.0556353
    outer loop
      vertex -7.58704 15.91 256.08
      vertex -7.29864 16.393 250.529
      vertex -7.17275 16.1103 256.08
    endloop
  endfacet
  facet normal 0.848974 -0.526355 -0.0468432
    outer loop
      vertex -15.3229 10.1805 240.892
      vertex -14.9463 9.93028 250.529
      vertex -15.5403 8.9722 250.529
    endloop
  endfacet
  facet normal 0.814239 -0.578636 -0.0468433
    outer loop
      vertex -15.3229 10.1805 240.892
      vertex -14.6534 11.1226 240.892
      vertex -14.9463 9.93028 250.529
    endloop
  endfacet
  facet normal 0.813835 -0.578426 -0.0556461
    outer loop
      vertex -14.2932 10.8492 250.529
      vertex -14.0467 10.662 256.08
      vertex -14.4219 10.1341 256.08
    endloop
  endfacet
  facet normal 0.644971 -0.763239 -0.0384532
    outer loop
      vertex -11.6628 14.7147 231.034
      vertex -11.427 14.4173 240.892
      vertex -12.5637 13.9534 231.034
    endloop
  endfacet
  facet normal 0.691058 -0.720655 -0.055642
    outer loop
      vertex -12.0071 13.3353 250.529
      vertex -11.8 13.1053 256.08
      vertex -12.2675 12.657 256.08
    endloop
  endfacet
  facet normal 0.691102 -0.720612 -0.0556448
    outer loop
      vertex -12.8208 12.555 250.529
      vertex -12.2675 12.657 256.08
      vertex -12.5996 12.3385 256.08
    endloop
  endfacet
  facet normal 0.691066 -0.720647 -0.0556406
    outer loop
      vertex -12.2675 12.657 256.08
      vertex -12.8208 12.555 250.529
      vertex -12.0071 13.3353 250.529
    endloop
  endfacet
  facet normal 0.644409 -0.762654 -0.0556418
    outer loop
      vertex -12.0071 13.3353 250.529
      vertex -11.3053 13.5233 256.08
      vertex -11.8 13.1053 256.08
    endloop
  endfacet
  facet normal 0.0731481 -0.996579 -0.0384571
    outer loop
      vertex -1.96264 18.6733 231.034
      vertex -0.770368 18.3804 240.892
      vertex -1.92297 18.2958 240.892
    endloop
  endfacet
  facet normal 0.0731943 -0.996576 -0.0384626
    outer loop
      vertex -0.786263 18.7597 231.034
      vertex -0.770368 18.3804 240.892
      vertex -1.96264 18.6733 231.034
    endloop
  endfacet
  facet normal 0.318559 -0.946745 -0.0468443
    outer loop
      vertex -6.41253 17.2428 240.892
      vertex -5.1865 17.1785 250.529
      vertex -6.25492 16.819 250.529
    endloop
  endfacet
  facet normal 0.135575 -0.989659 -0.0468463
    outer loop
      vertex -1.92297 18.2958 240.892
      vertex -1.8757 17.8461 250.529
      vertex -2.99256 17.6931 250.529
    endloop
  endfacet
  facet normal 0.197335 -0.978756 -0.05564
    outer loop
      vertex -2.99256 17.6931 250.529
      vertex -3.39202 17.297 256.08
      vertex -4.09762 17.4703 250.529
    endloop
  endfacet
  facet normal 0.197243 -0.978774 -0.0556479
    outer loop
      vertex -3.39202 17.297 256.08
      vertex -2.99256 17.6931 250.529
      vertex -2.94095 17.3879 256.08
    endloop
  endfacet
  facet normal 0.0104208 -0.999206 -0.0384519
    outer loop
      vertex -3.15803e-07 18.7679 231.034
      vertex -3.17121e-07 18.5133 237.65
      vertex -0.786263 18.7597 231.034
    endloop
  endfacet
  facet normal 0.0731226 -0.99577 -0.055641
    outer loop
      vertex -1.8757 17.8461 250.529
      vertex -1.38443 17.572 256.08
      vertex -1.84335 17.5383 256.08
    endloop
  endfacet
  facet normal 0.0731591 -0.995767 -0.0556441
    outer loop
      vertex -1.38443 17.572 256.08
      vertex -1.8757 17.8461 250.529
      vertex -0.751434 17.9287 250.529
    endloop
  endfacet
  facet normal 0.0105023 -0.998847 -0.0468503
    outer loop
      vertex -3.17767e-07 18.3885 240.892
      vertex -3.1934e-07 18.0847 247.369
      vertex -0.770368 18.3804 240.892
    endloop
  endfacet
  facet normal 0.135513 -0.989211 -0.0556494
    outer loop
      vertex -1.8757 17.8461 250.529
      vertex -2.29924 17.4758 256.08
      vertex -2.99256 17.6931 250.529
    endloop
  endfacet
  facet normal 0.135614 -0.989198 -0.0556408
    outer loop
      vertex -2.29924 17.4758 256.08
      vertex -1.8757 17.8461 250.529
      vertex -1.84335 17.5383 256.08
    endloop
  endfacet
  facet normal 0.434911 -0.899652 -0.0384602
    outer loop
      vertex -7.63694 17.1529 231.034
      vertex -7.48256 16.8061 240.892
      vertex -8.52306 16.3031 240.892
    endloop
  endfacet
  facet normal 0.434755 -0.899329 -0.0468479
    outer loop
      vertex -7.48256 16.8061 240.892
      vertex -7.29864 16.393 250.529
      vertex -8.52306 16.3031 240.892
    endloop
  endfacet
  facet normal 0.377667 -0.925446 -0.0302956
    outer loop
      vertex -6.65067 17.584 230.16
      vertex -7.63694 17.1529 231.034
      vertex -7.64775 17.1771 230.16
    endloop
  endfacet
  facet normal 0.37761 -0.925467 -0.0303698
    outer loop
      vertex -7.63694 17.1529 231.034
      vertex -6.65067 17.584 230.16
      vertex -6.54484 17.5985 231.034
    endloop
  endfacet
  facet normal 0.435048 -0.899897 -0.0302979
    outer loop
      vertex -7.64775 17.1771 230.16
      vertex -7.63694 17.1529 231.034
      vertex -7.74166 17.1317 230.16
    endloop
  endfacet
  facet normal 0.691646 -0.721212 -0.0384593
    outer loop
      vertex -12.5637 13.9534 231.034
      vertex -12.3097 13.6713 240.892
      vertex -13.415 13.137 231.034
    endloop
  endfacet
  facet normal 0.691643 -0.721215 -0.0384589
    outer loop
      vertex -13.415 13.137 231.034
      vertex -12.3097 13.6713 240.892
      vertex -13.1438 12.8714 240.892
    endloop
  endfacet
  facet normal 0.595545 -0.801955 -0.0468482
    outer loop
      vertex -10.4992 15.1063 240.892
      vertex -10.2411 14.735 250.529
      vertex -11.427 14.4173 240.892
    endloop
  endfacet
  facet normal 0.544067 -0.837733 -0.046848
    outer loop
      vertex -10.4992 15.1063 240.892
      vertex -9.52992 15.7358 240.892
      vertex -10.2411 14.735 250.529
    endloop
  endfacet
  facet normal 0.197318 -0.978759 -0.055638
    outer loop
      vertex -4.09762 17.4703 250.529
      vertex -3.39202 17.297 256.08
      vertex -4.02694 17.169 256.08
    endloop
  endfacet
  facet normal 0.197424 -0.979198 -0.0468418
    outer loop
      vertex -3.06797 18.1389 240.892
      vertex -2.99256 17.6931 250.529
      vertex -4.09762 17.4703 250.529
    endloop
  endfacet
  facet normal 0.135613 -0.989654 -0.0468418
    outer loop
      vertex -3.06797 18.1389 240.892
      vertex -1.92297 18.2958 240.892
      vertex -2.99256 17.6931 250.529
    endloop
  endfacet
  facet normal 0.0103682 -0.998848 -0.0468447
    outer loop
      vertex -0.751434 17.9287 250.529
      vertex -3.1934e-07 18.0847 247.369
      vertex -3.20107e-07 17.9365 250.529
    endloop
  endfacet
  facet normal 0.010397 -0.998848 -0.0468379
    outer loop
      vertex -3.1934e-07 18.0847 247.369
      vertex -0.751434 17.9287 250.529
      vertex -0.770368 18.3804 240.892
    endloop
  endfacet
  facet normal 0.0104152 -0.998395 -0.0556668
    outer loop
      vertex -0.738472 17.6194 256.08
      vertex -3.21027e-07 17.7588 253.718
      vertex -0.278346 17.6242 256.08
    endloop
  endfacet
  facet normal 0.0104539 -0.998395 -0.0556547
    outer loop
      vertex -0.751434 17.9287 250.529
      vertex -3.21027e-07 17.7588 253.718
      vertex -0.738472 17.6194 256.08
    endloop
  endfacet
  facet normal 0.0103635 -0.998397 -0.0556335
    outer loop
      vertex -3.21027e-07 17.7588 253.718
      vertex -0.751434 17.9287 250.529
      vertex -3.20107e-07 17.9365 250.529
    endloop
  endfacet
  facet normal 0.377583 -0.925177 -0.0384503
    outer loop
      vertex -6.54484 17.5985 231.034
      vertex -6.41253 17.2428 240.892
      vertex -7.48256 16.8061 240.892
    endloop
  endfacet
  facet normal 0.318706 -0.947073 -0.0384502
    outer loop
      vertex -6.54484 17.5985 231.034
      vertex -5.31719 17.6114 240.892
      vertex -6.41253 17.2428 240.892
    endloop
  endfacet
  facet normal 0.64478 -0.762932 -0.046846
    outer loop
      vertex -12.3097 13.6713 240.892
      vertex -11.427 14.4173 240.892
      vertex -12.0071 13.3353 250.529
    endloop
  endfacet
  facet normal 0.691395 -0.720956 -0.0468463
    outer loop
      vertex -12.3097 13.6713 240.892
      vertex -12.0071 13.3353 250.529
      vertex -13.1438 12.8714 240.892
    endloop
  endfacet
  facet normal 0.1355 -0.989213 -0.0556478
    outer loop
      vertex -2.99256 17.6931 250.529
      vertex -2.29924 17.4758 256.08
      vertex -2.94095 17.3879 256.08
    endloop
  endfacet
  facet normal 0.197413 -0.979201 -0.0468431
    outer loop
      vertex -4.20087 17.9105 240.892
      vertex -3.06797 18.1389 240.892
      vertex -4.09762 17.4703 250.529
    endloop
  endfacet
  facet normal 0.644457 -0.762613 -0.0556492
    outer loop
      vertex -11.1461 14.0629 250.529
      vertex -11.3053 13.5233 256.08
      vertex -12.0071 13.3353 250.529
    endloop
  endfacet
  facet normal 0.644513 -0.762566 -0.0556429
    outer loop
      vertex -11.3053 13.5233 256.08
      vertex -11.1461 14.0629 250.529
      vertex -10.9539 13.8203 256.08
    endloop
  endfacet
  facet normal 0.595384 -0.801512 -0.055644
    outer loop
      vertex -11.1461 14.0629 250.529
      vertex -10.5845 14.0947 256.08
      vertex -10.9539 13.8203 256.08
    endloop
  endfacet
  facet normal 0.595294 -0.801579 -0.0556345
    outer loop
      vertex -10.5845 14.0947 256.08
      vertex -11.1461 14.0629 250.529
      vertex -10.2411 14.735 250.529
    endloop
  endfacet
  facet normal 0.0731922 -0.996217 -0.0468379
    outer loop
      vertex -0.770368 18.3804 240.892
      vertex -0.751434 17.9287 250.529
      vertex -1.8757 17.8461 250.529
    endloop
  endfacet
  facet normal 0.0731219 -0.996222 -0.0468463
    outer loop
      vertex -1.92297 18.2958 240.892
      vertex -0.770368 18.3804 240.892
      vertex -1.8757 17.8461 250.529
    endloop
  endfacet
  facet normal -0.5 -0.866026 -2.3733e-06
    outer loop
      vertex -15.5403 8.9722 250.529
      vertex -16.9692 9.79716 256.08
      vertex -17.267 9.96911 250.529
    endloop
  endfacet
  facet normal -0.500005 -0.866022 -4.34726e-06
    outer loop
      vertex -16.9692 9.79716 256.08
      vertex -15.5403 8.9722 250.529
      vertex -15.2723 8.81744 256.08
    endloop
  endfacet
  facet normal -0.499994 -0.866029 1.01597e-06
    outer loop
      vertex -15.9319 9.19829 240.892
      vertex -17.267 9.96911 250.529
      vertex -17.7021 10.2203 240.892
    endloop
  endfacet
  facet normal -0.5 -0.866026 1.83716e-08
    outer loop
      vertex -17.267 9.96911 250.529
      vertex -15.9319 9.19829 240.892
      vertex -15.5403 8.9722 250.529
    endloop
  endfacet
  facet normal -0.49999 -0.866031 6.17016e-08
    outer loop
      vertex -16.2606 9.38807 231.034
      vertex -17.7021 10.2203 240.892
      vertex -18.0674 10.4312 231.034
    endloop
  endfacet
  facet normal -0.499994 -0.866029 -6.88282e-07
    outer loop
      vertex -17.7021 10.2203 240.892
      vertex -16.2606 9.38807 231.034
      vertex -15.9319 9.19829 240.892
    endloop
  endfacet
  facet normal -0.500014 -0.866017 -7.62988e-05
    outer loop
      vertex -16.2836 9.40136 230.16
      vertex -18.0674 10.4312 231.034
      vertex -18.0929 10.446 230.16
    endloop
  endfacet
  facet normal -0.49999 -0.866031 -1.11779e-05
    outer loop
      vertex -18.0674 10.4312 231.034
      vertex -16.2836 9.40136 230.16
      vertex -16.2606 9.38807 231.034
    endloop
  endfacet
  facet normal 1 -5.17623e-09 -2.8721e-14
    outer loop
      vertex -3.15803e-07 18.7679 231.034
      vertex -3.05009e-07 20.8532 231.034
      vertex -3.05746e-07 20.7108 234.365
    endloop
  endfacet
  facet normal 1 -5.17627e-09 4.65506e-14
    outer loop
      vertex -3.17121e-07 18.5133 237.65
      vertex -3.05746e-07 20.7108 234.365
      vertex -3.07191e-07 20.4317 240.892
    endloop
  endfacet
  facet normal 1 -5.17619e-09 -7.45968e-14
    outer loop
      vertex -3.17767e-07 18.3885 240.892
      vertex -3.07191e-07 20.4317 240.892
      vertex -3.08938e-07 20.0941 247.369
    endloop
  endfacet
  facet normal 1 -5.17667e-09 2.91195e-13
    outer loop
      vertex -3.1934e-07 18.0847 247.369
      vertex -3.08938e-07 20.0941 247.369
      vertex -3.09791e-07 19.9295 250.529
    endloop
  endfacet
  facet normal 1 -5.17612e-09 -8.87396e-14
    outer loop
      vertex -3.20107e-07 17.9365 250.529
      vertex -3.09791e-07 19.9295 250.529
      vertex -3.10813e-07 19.732 253.718
    endloop
  endfacet
  facet normal 1 -5.17636e-09 -1.27835e-13
    outer loop
      vertex -3.21027e-07 17.7588 253.718
      vertex -3.10813e-07 19.732 253.718
      vertex -3.1157e-07 19.5857 256.08
    endloop
  endfacet
  facet normal 1 -5.17619e-09 3.38161e-15
    outer loop
      vertex -3.07191e-07 20.4317 240.892
      vertex -3.17767e-07 18.3885 240.892
      vertex -3.17121e-07 18.5133 237.65
    endloop
  endfacet
  facet normal 1 -5.17671e-09 3.28532e-13
    outer loop
      vertex -3.05009e-07 20.8532 231.034
      vertex -3.15666e-07 18.7945 230.16
      vertex -3.04856e-07 20.8827 230.16
    endloop
  endfacet
  facet normal 1 -5.17623e-09 -7.86973e-13
    outer loop
      vertex -3.15666e-07 18.7945 230.16
      vertex -3.05009e-07 20.8532 231.034
      vertex -3.15803e-07 18.7679 231.034
    endloop
  endfacet
  facet normal 1 -5.17631e-09 1.67855e-14
    outer loop
      vertex -3.15803e-07 18.7679 231.034
      vertex -3.05746e-07 20.7108 234.365
      vertex -3.17121e-07 18.5133 237.65
    endloop
  endfacet
  facet normal 1 -5.17667e-09 5.06036e-14
    outer loop
      vertex -3.08938e-07 20.0941 247.369
      vertex -3.1934e-07 18.0847 247.369
      vertex -3.17767e-07 18.3885 240.892
    endloop
  endfacet
  facet normal 1 -5.17612e-09 -3.17885e-14
    outer loop
      vertex -3.09791e-07 19.9295 250.529
      vertex -3.20107e-07 17.9365 250.529
      vertex -3.1934e-07 18.0847 247.369
    endloop
  endfacet
  facet normal 1 -5.17636e-09 5.025e-14
    outer loop
      vertex -3.10813e-07 19.732 253.718
      vertex -3.21027e-07 17.7588 253.718
      vertex -3.20107e-07 17.9365 250.529
    endloop
  endfacet
  facet normal 1 -5.17615e-09 -2.95706e-13
    outer loop
      vertex -3.21027e-07 17.7588 253.718
      vertex -3.1157e-07 19.5857 256.08
      vertex -3.21708e-07 17.6271 256.08
    endloop
  endfacet
endsolid OpenSCAD_Model
